<?xml version="1.0" encoding="utf-8"?>
<!-- Generator: Adobe Illustrator 15.0.0, SVG Export Plug-In . SVG Version: 6.00 Build 0)  -->
<!DOCTYPE svg PUBLIC "-//W3C//DTD SVG 1.1//EN" "http://www.w3.org/Graphics/SVG/1.1/DTD/svg11.dtd">
<svg version="1.1" id="Calque_1" xmlns="http://www.w3.org/2000/svg" xmlns:xlink="http://www.w3.org/1999/xlink" x="0px" y="0px"
	 width="595.279px" height="468px" viewBox="0 165.445 595.279 468" enable-background="new 0 165.445 595.279 468"
	 xml:space="preserve">
<path fill="#303284" d="M586.444,459.08l-1.395-2.324l-0.931-0.465v-1.861l-0.465-1.859l-0.931-1.396l-1.859-0.93l-0.466-0.465
	l-1.395-1.395l-1.396-0.93l-1.86-0.467h-0.465l-1.86-1.395l-2.325-1.395l-2.79-1.396l-2.791-0.93h-0.465l-2.325-2.324l-2.791-1.861
	l-2.79-1.395l-2.79-0.93h-0.465l-2.791-1.861l-3.721-1.395l-1.86-0.465l-2.325-1.396l-2.325-0.93l-2.325-0.465l-2.325-0.465h-2.325
	l-2.79,0.465l-1.396-2.326l-3.256-1.859l-4.186-0.93h-4.186l-4.65,0.93l-1.396,0.465l-3.255-1.395l-3.721-0.93l-3.721-0.467h-3.721
	l-3.72,0.467h-0.466l-4.186-1.396l-4.186-1.396l-4.186-0.465h-2.79l-3.721-3.721l-4.186-2.79l-3.721-1.86l-3.721-0.93h-3.72
	l-2.325,0.465l-2.326-1.86l-4.65-1.86l-3.255-0.465l-2.791,0.465l-3.255-1.396l-3.256-0.465l-3.255-0.465h-1.396l-4.65-1.86
	l-5.581-1.396l-5.115-0.465h-0.931l-5.115-3.255l-5.581-1.395h-3.721l-8.371-1.86l-5.115-0.465h-2.325l-2.791-2.79l-3.721-2.326
	l-4.186-0.465l-4.186,0.465l-2.79,0.93l-3.721-0.465h-6.976h0.465v-0.465l-7.906-1.395l-6.976-0.93l-6.046-0.465h-2.325l-4.65-0.465
	l-4.651-0.465h-0.465l-5.115-1.86l-5.116-1.395l-4.65-0.465h-3.721l-4.186-3.255l-4.186-0.93l-4.186-0.465h-0.93l-5.116-3.255
	l-4.186-1.396l-3.255-0.465l-3.721-1.86l-5.115-1.395h-4.651l-5.115-2.325l-4.65-0.93h-2.325l-5.116-2.791l-4.65-1.395l-4.65-0.465
	h-0.931l-6.976-3.255l-4.65-1.395l-5.116-0.465H222.3l-3.256-2.325l-2.79-1.395l-2.79-0.465l-3.256-0.465l-2.79,0.465l-3.256-2.325
	l-3.255-1.395l-4.651-0.93h-3.72l-4.187,0.93l-0.465,0.465l-4.65-1.86l-4.65-1.395h-4.186l-4.186-2.791l-3.256-1.395l-3.721-0.465
	l-3.255,0.465l-3.256,1.395l-2.79-2.79l-3.256-1.86l-3.72-0.465l-2.791,0.465l-2.79,1.395l-1.86-1.395l-1.396-0.93l-1.395-0.465
	l-1.86-0.465h-2.325l-1.396,0.465l-2.325,1.395l-0.465,0.465l-3.721-0.465h-3.721l-3.256,0.93l-2.79,2.325l-1.86,2.325l-1.395,3.721
	l-0.931,3.72l-0.93,3.721l-0.466,3.72l-0.465,7.441l1.396,6.046l1.395,3.255v0.465c-4.65-0.93-5.115-1.395-7.44-2.325l-0.465-2.791
	v-2.79l0.465-11.627v-2.79L103.709,347l-0.466-2.325l-0.93-2.325l-0.93-2.325l-0.931-2.326l-1.396-1.86l-1.395-1.86l-3.721-3.256
	v-0.465l0.465-3.255l0.465-1.395l0.931-2.791l-1.86-0.93l-2.325,2.791l-1.86,3.255l-1.396,3.255l-0.465,3.255l-0.465,2.791v3.255
	l0.465,3.255l0.465,1.395l-0.465-0.93l-1.396-1.86l-1.859-4.186l-0.931-2.326l-0.465-2.79l-0.465-5.581l-4.186,3.721l-1.396,2.791
	l-0.931,3.255v2.79l0.466,2.791l0.93,2.791l1.396,2.79h-0.465l-2.791-0.465l-0.465,1.86l1.86,0.93l6.511,4.65l1.396,1.396
	l10.231,11.626l0.465,0.465c-26.044-10.231-53.947-22.788-87.896-39.065c6.976,11.626,32.554,23.718,43.25,31.624
	c10.697,5.581,25.579,12.092,38.601,17.208l-10.696,2.325l-6.511,1.395l-6.511,2.325l-3.256,1.396l-2.325,2.325l-2.791,1.86
	l-2.325,1.86l-2.325,2.325l-1.86,2.325l-1.395,2.791l-0.931,3.255l1.86,0.93l0.931-0.93l3.255-3.255l4.186-2.791l4.186-2.325
	l1.86-0.465l1.396-0.465l6.511-1.395l2.79-0.93l11.627-6.976l2.325-1.395l1.86-0.93l1.396-0.465l-0.466-0.93
	c0.931,0.465,1.86,0.465,2.325,0.93l-0.465,0.465l-10.696,5.581l-6.046,3.721l-5.581,4.186l-3.255,2.325l-2.325,2.791l-1.396,2.79
	l-0.93,2.791l-0.466,3.255l0.466,3.255l1.86,5.116l2.79-5.581l1.86-2.791l1.86-2.325l1.86-1.86l1.859-1.395l4.651-2.791v0.465
	l-0.466,3.72v4.186l0.466,4.651l1.395,5.116h1.86l0.465-2.326l1.86-6.976l0.931-2.326l2.79-6.511l4.65-8.371l5.581-8.836
	c1.396,0.465,3.256,0.93,4.65,1.86l-4.186,7.906l-1.395,2.791l-1.86,2.325l-0.931,3.255l-0.93,3.255l-0.465,3.255v3.255l0.465,2.791
	l1.396,2.791l2.325,2.79l3.72,2.325l3.256,0.932l0.93,2.324l1.86,2.326l1.86,1.859l1.86,1.396l1.86,0.93l1.86,1.395l4.186,1.395
	h0.93v-0.465l1.86,2.326l2.791,1.859l3.72,0.932h3.721l3.256-0.932l0.465,0.932l2.79,2.789l2.791,1.861l2.79,1.395l3.721,0.465h2.79
	l2.791,1.861l3.255,1.395l3.721,0.93l2.79,2.326l3.721,1.859l4.65,0.93l5.116,0.467l0.465,0.465l3.256,2.789l3.72,1.861l3.256,1.395
	l4.186,0.465l3.721-0.93l1.86,0.93l2.79,1.396l2.79,0.465h2.791l2.79-0.465l1.396,0.93l4.65,1.395l5.115,0.465l6.046-0.465
	l1.396,0.93l4.186,1.396l4.65,0.465l6.511-0.465l4.186,1.395l4.651,0.465l5.115-0.465l1.86,1.395l4.65,1.861l5.116,0.465
	l5.115-0.465v-0.465l2.79,0.465h4.651l5.115-0.93l2.79,0.93l3.721,0.93l3.721,0.465h4.65l0.931,0.465l4.65,1.396l4.65,0.93
	l5.115,0.465l5.116-0.465v-0.465l2.79,0.93l4.186,0.465l4.186,0.465v-0.465l2.791,0.93l5.58,0.93l6.046,0.467l6.511-0.467
	l3.256,0.932l4.186,0.93l3.721,0.465h4.186l0.465,0.465l3.721,1.861l3.721,0.93h3.72l3.721-0.93l3.256-2.326l4.186,1.859
	l5.115,1.396h5.581v-0.93h1.396l5.115,0.465l5.116-0.465l5.115-1.861l4.65,0.465h5.581l4.186-0.93l2.79,0.465h3.256l6.976-0.93
	l2.325,0.93l2.791,0.465l2.79-0.465l2.325-1.395h0.465l3.721,1.859l3.721,1.396h3.721l4.186-1.396l3.721-2.324l4.186-2.791h3.255
	l4.186-0.465l3.721-0.465l2.325,0.93l3.721,0.465l3.721,0.465l3.721-0.465l3.72-0.93l0.931,0.465l4.186,0.93l3.721,0.465h3.721
	l3.255-0.465l2.325-1.859l1.396,0.465l2.325,0.93l2.325,0.465h2.325l2.325-0.465l1.86-0.93l3.256,0.465l3.721-0.465l3.255-1.395
	h3.256l2.79-0.467l2.79-1.395l2.325-1.859h2.791l2.79-0.465l2.325-0.932l2.791-1.395h3.255l1.396-0.465l0.465-0.465l1.396-0.465
	l1.396-0.932l0.93-1.395l0.465-1.395h0.931l1.86-1.861l0.465-1.395h0.465L586.444,459.08L586.444,459.08z M79.99,386.065
	l-5.58,3.255l-2.326,0.93l-3.255,0.465l-6.511,2.326l-4.65,2.325l-4.186,2.791l-0.466,0.465l1.86-3.255l1.86-2.326l2.325-1.86
	l2.325-1.86l2.791-1.395l2.79-1.396l6.046-1.86l12.092-2.79L79.99,386.065z M568.307,466.986l4.186,2.326l1.859,0.93l0.466,0.93
	l-0.466,0.93h-1.395l-1.396-0.93l-0.465-0.465l-1.86-0.465l-4.65-1.859l-1.396-0.467l-3.256-1.859l-1.395-1.395l-0.466-0.465
	l-0.93-0.467l-2.79-2.789l-0.465-0.465l5.58,0.465l1.396,1.395l1.86,1.395l2.79,1.861l1.396,0.93L568.307,466.986z M560.401,450.708
	l2.325-0.93l3.721-0.93l4.65-0.465h1.86l2.325,0.465l1.396,0.465l1.395,0.465h-3.255l-2.325,0.465h-0.466l-1.395,0.465l-3.256,0.932
	l-1.86,0.93l-2.79,1.395l-1.396,0.465l-0.465,0.465h-0.465l-6.046-0.93l0.465-0.465l1.86-1.859l1.396-0.932l1.86-0.93
	L560.401,450.708L560.401,450.708z M584.118,460.941l-2.325-0.465l-6.511-1.396l4.65-0.93h2.325l1.396,0.465l0.93,1.396
	L584.118,460.941z M582.258,455.826h-2.325l-1.86,0.465l-6.976,1.859l-0.465,0.465l-6.977-1.395l0.931-0.465l7.44-3.256l1.86-0.465
	l2.325-0.465h4.186l0.931,0.465l0.465,0.93l0.465,1.395V455.826z M569.237,446.058l0.93,0.465h-4.65l-3.255,0.93h-0.466
	l-2.325,0.932h-0.465l-1.396,0.465l-2.325,0.93l-1.86,1.395l-1.395,1.396l-0.931,1.395l-3.721-0.465h-1.86l-3.72-0.465h-1.396
	l-1.86-0.465l0.465-0.93l1.396-1.861l1.86-1.859l1.86-1.396l2.325-1.395l2.325-0.93l0.93-0.465l3.256-0.932l1.86-0.465h4.186
	l3.721,0.465l1.86,0.467l2.79,0.93L569.237,446.058L569.237,446.058z M560.401,440.943h-4.186l-2.791,0.465l-2.79,0.465
	l-1.396,0.465h-0.93l-1.86,0.465l-3.721,1.861l-1.396,0.93l-0.93,0.465l-0.465,0.465l-1.396,1.861l-0.465,0.465l-1.396,2.324
	l-0.93,1.396l-10.231-1.396l-2.325-0.465h-0.465l2.79-1.859l0.465-0.465l7.906-5.117l3.255-2.324l5.581-2.791l2.79-0.93l2.791-0.465
	l2.79-0.465h2.79l2.326,0.465l2.325,1.395L560.401,440.943L560.401,440.943z M548.774,434.896l-2.325,0.467l-2.325,0.465
	l-2.325,0.93l-4.651,2.324l-4.186,2.791l-3.255,2.326l-2.325,1.395l-5.116,3.721l-1.86,1.395l-1.395,0.932l-11.627-1.396
	l0.465-0.465l8.371-6.045l2.791-1.861l6.046-3.256l3.255-1.395l3.256-1.395l3.255-0.932h3.256l3.255,0.467h2.326l3.255-0.467
	l3.256,0.932L548.774,434.896L548.774,434.896z M532.961,430.246h7.441h-0.93l-4.186,1.396l-4.186,1.395l-3.721,1.395l-3.721,1.861
	l-6.977,4.186l-8.371,5.58l-3.72,3.256l-6.511-0.93l-2.791-0.465l6.511-3.256l5.116-2.791l4.186-2.324l10.231-5.117l2.325-0.93
	l2.325-0.93l4.65-1.395L532.961,430.246L532.961,430.246z M517.615,425.595h3.721l3.255,0.465l2.326,1.396l0.93,1.395l-1.396,0.465
	l-2.325,0.93l-3.255,1.396l-2.326,1.395l-4.186,1.859l-12.557,6.977l-5.58,2.791l-5.581,2.791l-4.186-0.467l-7.441-0.465
	l-3.255-0.465l9.767-6.51l8.836-5.117l5.115-2.324l4.651-2.326l5.115-1.859l4.186-1.396l1.86-0.465L517.615,425.595L517.615,425.595
	z M496.687,424.201h3.721l3.721,0.465l3.255,0.93l0.465,0.465l-3.721,1.396l-9.766,4.65l-10.231,5.58l-8.371,5.115l-3.256,2.326
	l-0.465,0.465l-13.952-1.395l0.931-0.932l2.325-2.324l6.046-4.65l6.976-4.65l6.977-3.721l3.72-1.396l3.721-0.93l3.721-0.93
	L496.687,424.201L496.687,424.201z M482.735,421.875l4.186,0.932l0.931,0.465l-3.721,1.395l-3.256,1.395l-3.255,1.396l-3.256,1.859
	l-2.79,1.861l-5.116,3.719l-6.046,5.117l-0.465,0.465l-1.395,1.395l-2.791,2.326l-17.207-2.326l0.465-0.465l3.721-4.65l2.79-2.791
	l2.791-2.789l2.79-2.326l3.255-1.859l3.256-1.861l3.256-1.395l2.325-0.93l4.186-0.932l4.186-0.464h6.976L482.735,421.875
	L482.735,421.875z M457.156,411.644h3.255l3.721,0.93l3.721,1.86l3.721,2.791l1.86,1.86h-2.325l-3.721,0.465l-3.721,0.93
	l-0.93,0.465h-0.466l-2.325,0.93l-2.79,0.932l-2.79,1.395l-2.326,1.395l-2.79,1.861l-2.79,2.324l-2.791,2.326l-2.79,2.789
	l-2.79,3.256l-0.465,1.396l-1.86,2.324l-8.837-1.395l-4.186-0.465l7.906-9.768l5.581-6.045l3.255-2.791l2.325-1.86l4.651-3.255
	l2.79-1.395l2.79-1.396l2.791-0.93L457.156,411.644z M451.575,409.784l0.931,0.93l-2.791,0.93l-3.255,1.86l-3.721,2.325
	l-3.256,2.791l-3.255,3.255l-0.465,0.465l-0.931,0.932l-2.325,2.789l-2.325,2.326l-2.325,2.791l-7.441,8.371l-11.161-1.396
	l0.465-0.465l4.65-4.186l8.837-8.836l1.859-1.859l5.116-4.651l2.325-1.86l2.325-1.86l2.325-1.86l5.116-2.791l2.325-0.93l2.79-0.465
	h2.791L451.575,409.784L451.575,409.784z M436.694,406.993l3.256,0.93l0.93,0.465l-0.93,0.465l-3.256,1.86l-0.93,0.465l-3.256,1.86
	l-1.86,1.395l-1.396,0.93l-1.859,1.395l-2.326,1.86l-1.859,2.791l-1.396,1.396l-2.791,2.789l-6.045,6.512l-5.116,5.115l-2.325,1.859
	l-10.231-2.324l-4.186-0.465l6.976-8.836l3.721-4.186l3.721-3.721l3.721-3.255l2.325-1.86l2.79-1.86l3.256-1.86h0.465l2.79-1.396
	l0.466-0.465l0.93-0.465l2.79-0.93l3.256-0.465l2.79-0.465l2.791,0.465v-0.465h0.465L436.694,406.993L436.694,406.993z
	 M426.927,404.668l-3.255,0.93l-1.86,0.93h-0.465l-0.466,0.465h-0.93l-1.86,0.93l-0.93,0.465l-1.86,0.93l-3.256,2.325l-0.93,0.465
	l-0.465,0.465l-3.256,2.791l-6.046,5.581l-7.906,8.371l-4.65,6.047l-17.673-1.861l-1.395-0.465h-1.396l1.86-1.395l3.256-2.791
	l6.045-5.115l3.256-3.256l1.86-1.86l7.441-6.511l3.72-2.791l3.721-2.325l0.931-0.465l3.255-1.396l3.721-1.395l4.186-1.395
	l2.325-0.465h3.721l5.115,0.465L426.927,404.668L426.927,404.668z M410.185,400.017l2.325,1.396h-0.465l-4.65,0.93l-4.65,1.86
	l-4.186,2.326h-0.466l-2.325,1.395l-2.79,1.86l-2.79,1.86l-2.326,2.326l-5.58,5.116l-6.511,6.045l-7.441,6.047l-3.255,2.324h-4.186
	l-2.791-0.465l-2.79-0.465l-4.65-0.93l1.395-0.465l2.791-1.861l2.79-2.324l4.65-4.186l13.952-12.092l4.65-3.721l5.116-3.255
	l5.115-2.791l5.116-1.86l5.115-0.93h4.65L410.185,400.017L410.185,400.017z M388.327,396.297l5.115,0.465l1.86,0.465l-1.86,0.465
	l-4.65,2.325l-4.65,2.325l-4.186,2.791l-4.186,2.791l-3.721,3.255l-6.977,6.046l-7.44,6.511l-0.465,0.465l-3.256,2.791l-3.255,2.324
	l-2.326,0.93h-4.186l-5.58-0.465h-4.186l6.046-4.186l7.44-6.51l7.441-6.976l7.44-6.046l3.721-2.791l4.186-2.325l4.186-1.86
	l4.186-1.395l3.256-0.465L388.327,396.297L388.327,396.297z M378.561,391.181l3.256,0.93l1.395,0.93l-4.65,1.86v0.465h-0.465
	l-3.721,1.395l-3.721,1.395l-3.255,1.86l-3.256,1.86l-6.046,4.651l-15.347,13.952l-6.977,5.58l-3.255,2.326h-5.581l-6.511-0.465
	l0.465-0.465l1.86-1.396l4.65-3.721l4.651-3.72l13.021-11.162l6.046-5.116l6.976-4.65l3.256-2.325l3.721-1.86l3.255-1.86l3.256-0.93
	l3.72-0.465L378.561,391.181z M356.703,390.716h8.371l-2.326,0.93l-4.186,2.791l-4.65,3.255l-3.255,2.791l-0.466,0.465l-3.255,2.791
	l-15.813,13.487l-5.58,4.65l-5.116,3.721l-2.325,1.396h-0.465l-8.371-1.396h-2.325l1.859-3.721l2.791-4.65l3.255-4.186l3.256-3.721
	l3.721-3.72l4.186-3.256l4.186-2.79l2.79-1.86l6.511-3.255l3.721-1.396l0.931-0.465l3.255-0.93l4.186-0.93H356.703L356.703,390.716z
	 M337.17,387.46l5.581,0.465l6.046,0.465l2.325,0.465l-4.186,1.396l-2.791,0.93l-1.395,0.465l-4.65,1.86l-4.651,2.325l-1.395,0.93
	l-0.466,0.465l-3.255,1.86l-3.256,2.326l-3.255,2.325l-3.256,2.79l-2.79,2.791l-2.325,2.325l-2.325,3.256l-2.326,3.255l-2.325,3.72
	l-1.86,3.256h-1.859l-3.256-0.93h-1.86l-1.86-0.465h-0.93l1.86-3.721l1.86-3.255l3.72-6.511l1.396-2.325l2.79-3.721l2.791-3.72
	l3.255-3.255l3.256-2.791l3.721-2.325l2.79-1.396l3.721-1.395l4.186-0.93l2.79-0.465L337.17,387.46L337.17,387.46z M328.334,386.53
	l-1.396,0.465l-4.65,1.86l-0.931,0.465l-3.255,1.395l-2.79,1.86l-2.791,1.86l-2.325,1.86l-2.325,2.325l-1.86,2.325l-4.186,6.046
	l-2.325,4.186l-2.325,4.186l-1.396,3.255l-2.79,4.187l-7.906-1.396h-1.395l0.93-3.255l2.79-6.511l1.86-3.255l1.86-2.79l2.325-2.791
	l2.325-2.791l2.791-2.325l2.79-2.325l3.255-1.86l3.256-1.86l3.256-1.395l3.72-1.396l3.721-0.93l3.721-0.465h5.115L328.334,386.53z
	 M314.847,382.81l4.651,1.395l0.93,0.465l-3.256,0.465l-4.186,0.93l-4.186,1.395l-3.72,1.86l-3.721,2.325l-3.721,2.325l-3.255,2.791
	l-2.791,3.255l-3.255,3.721l-2.325,4.186l-2.326,4.186l-1.859,4.65l-0.931,3.255l-11.626-1.86l1.395-3.721l1.86-4.65l2.325-4.651
	l2.791-4.186l2.79-3.72l2.79-3.256l3.256-3.255l3.255-2.79l2.791-1.86h0.465l3.721-1.86l3.255-0.93l1.396-0.465l4.186-0.465h4.65
	L314.847,382.81L314.847,382.81z M301.361,380.484l0.465,0.465h-0.93l-4.186,1.395l-3.721,1.396l-0.93,0.465l-3.256,1.86
	l-3.256,2.325l-2.79,2.325l-4.65,5.116l-1.86,2.791l-1.86,2.79l-2.79,5.581l-2.791,6.511l-1.86,4.186l-7.44-1.395l-3.721-0.93
	l0.931-1.86l1.395-3.255l2.791-6.046l3.72-6.046l0.466-0.93l2.325-2.79l2.79-3.255l3.256-3.255l3.255-2.791l3.256-2.325l3.255-1.86
	l3.256-0.93l3.721-0.93l3.72-0.465l3.721,0.465L301.361,380.484L301.361,380.484z M286.944,375.369l2.325,1.395l-4.65,1.395
	l-3.256,1.396l-3.255,1.86l-3.256,2.326l-2.79,2.325l-2.325,2.325l-2.325,2.791l-2.325,2.79l-1.396,2.326l-0.931,0.93l-2.79,4.186
	l-4.65,9.766l-1.396,4.186l-7.44-2.791l6.046-12.091l3.72-6.511l3.721-5.581l2.325-3.255l2.791-2.791l2.79-2.79l2.79-2.326
	l2.791-1.86l2.79-0.93l2.79-0.465h3.256v-0.465h1.86L286.944,375.369L286.944,375.369z M275.782,371.648l0.93,0.465l-1.396,0.465
	l-3.72,1.86l-3.721,2.325l-3.256,2.791l-3.255,3.72l-2.791,3.721l-2.79,4.186l-1.86,1.86l-0.93,1.396l-6.046,10.231l-3.721,7.441
	l-12.092-2.325l0.931-2.326l1.395-2.79l4.186-7.441l2.791-4.186l2.325-3.255l1.86-2.79l5.115-5.581l2.791-2.79l2.79-2.326l2.79-1.86
	l1.86-1.396l2.325-0.93l4.186-1.395h4.65L275.782,371.648L275.782,371.648z M263.226,369.323l-2.791,1.395l-0.93,0.465l-1.86,0.93
	l-4.186,3.256l-4.186,3.72l-3.721,4.186l-3.721,4.186l-0.465,0.93l-0.465,0.465l-4.65,6.511l-1.86,3.255l-3.256,6.046l-1.395,2.79
	l-0.466,1.86l-9.301-2.325l1.86-4.186l4.65-9.301l2.325-4.186l4.186-6.976l2.325-3.255l0.931-1.395l3.255-3.255l3.256-2.791
	l3.255-2.325l3.256-1.396l3.721-0.93h4.186l4.186,0.93L263.226,369.323L263.226,369.323z M239.972,362.812h4.186l4.187,1.396
	l2.325,0.93l-2.325,0.465l-2.326,0.93l-2.325,0.93l-2.325,2.325l-2.325,1.86l-1.86,1.86l-2.325,2.325l-1.396,2.325l-1.86,2.325
	l-2.79,4.186l-2.325,3.721l-4.65,8.371l-3.256,5.116l-1.396,4.651l-11.626-2.326l2.79-6.045l1.86-3.721l4.186-8.836l2.325-4.186
	l2.791-4.186l2.79-3.72l3.256-3.255l3.255-2.791l3.256-1.86l0.465-0.465l3.255-1.396L239.972,362.812L239.972,362.812z
	 M231.601,359.557l3.721,1.86l-3.255,1.86h-0.466l-0.465,0.465l-0.465,0.465l-2.79,1.395l-2.791,2.325l-2.325,2.326l-4.186,5.115
	l-1.86,2.791l-5.115,8.836l-6.977,13.487l-1.395,2.79l-2.791-0.465l-7.44-1.86h-0.465l9.766-24.183l2.325-4.186l1.396-2.326
	l1.396-1.86l1.86-2.791l2.325-2.325l1.86-1.86l2.325-1.395l3.255-1.396l3.721-0.465l4.186,0.465L231.601,359.557L231.601,359.557z
	 M212.998,353.046l2.791,0.93l2.325,0.93l0.465,0.465l-3.721,1.86l-2.79,1.86l-0.465,0.465l-0.931,0.465l-2.79,3.255l-2.79,3.72
	l-0.931,1.86l-0.465,0.93l-1.86,3.255l-5.115,10.231l-6.977,16.277l-13.486-4.186l-3.256-0.465l2.791-6.976l4.65-9.301l3.721-6.511
	l2.325-3.255l2.325-3.255l2.79-2.791l2.79-2.79l2.791-2.326l2.79-1.86l2.325-1.396l1.86-0.93l3.256-0.93l2.79-0.465L212.998,353.046
	L212.998,353.046z M192.536,348.86h3.72l3.721,0.465l3.256,1.396l1.395,0.93l-1.86,0.93l-0.93,0.465l-1.86,0.465l-3.721,1.86
	l-3.72,2.791l-3.721,3.255l-2.791,3.721l-3.255,4.65l-3.256,5.116l-3.255,6.046l-2.791,6.976l-1.395,4.186l-0.931,2.325
	l-11.626-3.255l0.465-4.651l0.93-3.72l1.396-4.651l0.93-2.325l2.326-4.651l2.79-4.65l2.79-4.186l3.256-3.721l3.721-3.255l3.72-2.791
	l3.256-1.86l5.115-1.86H192.536L192.536,348.86z M182.305,347.93l2.325,0.93l-0.465,0.465l-1.396,0.465l-4.186,2.325l-3.721,2.791
	l-3.256,3.255l-2.79,3.255l-3.255,3.721l-1.86,3.72l-1.86,3.721l-1.396,3.72l-0.465,1.396l-0.931,2.79l-0.465,1.86v0.465
	l-0.465,2.79l-0.465,2.325l-0.465,1.86v0.93l-1.86-0.465l-4.186-1.86l-2.791-0.93l0.931-2.325l1.395-4.186l1.396-4.186l3.256-8.371
	l2.79-6.511l1.396-2.79l1.86-2.791l1.859-2.791l1.86-2.325l1.86-1.86l1.396-0.93l2.325-0.93l3.256-0.465h3.72L182.305,347.93
	L182.305,347.93z M160.447,342.814l2.79-0.465l3.256,0.465l2.79,0.93l1.396,0.93l-2.79,1.395l-0.466,0.465h-0.465l-2.79,2.325
	l-2.79,2.791l-2.326,3.255l-1.859,3.72l-0.466,1.86l-1.395,3.255l-6.977,16.742l-0.93,3.256l-0.931,2.325l-2.325-0.465l-1.395-0.465
	l-3.721-1.395l-3.721-0.93l0.465-3.721l0.931-4.65l1.395-4.651l1.396-4.65l1.86-4.186l1.86-3.256l3.255-4.65l3.721-4.186
	l4.186-3.721h0.465l2.791-1.395L160.447,342.814L160.447,342.814z M144.634,339.094l2.791-0.465l2.79,0.465l2.325,1.396l2.325,2.325
	l-1.395,0.93h-0.465l-3.256,2.325l-2.79,2.791l-2.791,3.255l-2.325,3.721l-0.93,1.395l-1.396,1.86l-1.396,2.79l-2.325,5.581
	l-1.86,6.046l-1.395,6.511l-0.466,2.325l-3.255-0.93l-6.046-2.325l0.465-2.325v-0.93l2.325-8.836l0.931-2.79l1.86-5.116l2.325-4.651
	l1.395-2.325l2.791-4.186l1.86-1.86l3.255-3.72l1.86-1.396L144.634,339.094L144.634,339.094z M132.077,338.164l1.396-0.465h2.325
	l1.396,0.465l1.396,0.465l0.93,0.93l-1.86,1.395l-2.79,2.791l-2.325,3.72l-2.325,4.186l-2.326,4.186l-1.859,4.186l-1.86,4.65
	l-1.396,4.186l-0.931,4.186l-0.465,2.791l-0.465,1.86h-1.396l-2.325-0.93h-0.465l0.465-2.791l1.396-6.511l1.396-5.581l1.859-6.045
	l1.86-5.116l1.86-4.186l1.86-3.256l1.86-2.325l1.396-1.395L132.077,338.164L132.077,338.164z M111.15,357.696l0.466-3.72l0.93-3.255
	l0.93-3.255l1.396-2.791l1.396-2.791l2.325-1.86l2.79-0.93h3.256l2.325,0.465l-1.396,1.86l-1.395,1.86l-2.325,4.651l-2.791,7.906
	l-2.79,11.161l-1.86,8.372l-2.79-0.93l-0.466-9.301V357.696z M86.501,355.836l-2.325-3.256l0.931,0.465l1.86,0.93l3.255,2.325
	l1.396,1.395l2.325,3.256l0.465,1.395l0.931,2.791l-1.86-2.326l-4.186-4.65L86.501,355.836L86.501,355.836z M99.524,369.788v-6.046
	l1.395,7.906l-0.93-0.465L99.524,369.788L99.524,369.788z M99.058,339.094l0.931,1.86l0.93,2.325l0.466,2.326l0.465,2.325
	l0.465,7.906l-0.465,10.231l-1.86-10.231l-0.465-2.326l-0.465-6.976l-0.466-2.791l-0.93-4.651l-0.465-2.325L99.058,339.094z
	 M95.338,336.769l0.465,2.791l0.465,2.791l0.465,2.79l-0.465-1.395l-1.396-4.651l-0.465-3.255v-3.72L95.338,336.769L95.338,336.769z
	 M89.292,343.745l-0.931-3.255v-3.255l0.931-2.791l0.93-2.791l1.396-2.79l0.465-0.93v4.65l0.465,5.116l0.466,1.86l1.395,4.65
	L95.338,347l0.465,0.93l0.465,1.395l0.465,2.791l0.466,5.116v2.325l-0.466-0.93l-0.93-2.79l-0.931-2.326l-2.79-3.72l-0.93-0.465
	L89.292,343.745z M78.596,342.35l-0.466-2.326v-2.79l0.466-2.326l1.395-2.325l0.466-0.465v1.395l0.465,3.255l0.93,2.791l2.325,4.65
	l1.396,1.86l3.256,4.186v0.465l0.93,3.255l0.465,0.93l-1.86-2.325l-2.325-1.396l-2.325-0.93l-1.86-0.93l-0.93-1.86l-1.396-2.791
	L78.596,342.35L78.596,342.35z M74.41,401.877l-1.86,1.86l-1.86,1.86l-1.86,2.325l-1.86,2.791l-0.465,1.395l-0.465-0.465
	l-0.466-2.79l0.466-2.325l0.93-2.326l1.396-2.325l1.86-2.325l2.325-2.325l5.58-4.186l6.046-3.72l9.302-5.116l-0.465,1.395
	l-3.721,2.326l-1.86,1.395l-1.86,1.86l-1.86,1.86l-1.396,2.325l-0.93,2.325L74.41,401.877L74.41,401.877z M90.687,389.321
	l-2.325,3.255l-3.255,2.791l0.465-0.93l1.396-1.86l1.86-1.86L90.687,389.321z M93.943,388.855l-5.115,8.836l-4.186,8.836
	l-2.326,6.976v0.465l-0.93-4.651v-3.72l0.465-3.255l0.931-2.791l2.79-1.86l4.186-3.255L93.943,388.855l0.93-1.86l0.466-0.465
	L93.943,388.855z M96.733,383.275l0.466-1.395h0.465L96.733,383.275z M101.849,418.62l-1.86-2.325l-1.396-2.325l-0.93-2.326v-2.79
	l0.465-2.791l0.931-3.255l2.325-6.046l1.395-2.791l1.396-2.325l2.325-4.65l1.86,0.465l0.93,0.465l-0.465,2.79v0.465l-1.86,2.79
	l-1.395,6.511l-0.466,5.581v5.116l0.466,4.65l0.93,3.721l0.465,0.93l-1.86-0.465L101.849,418.62z M118.126,431.177l-1.396-0.932
	l-1.396-0.93l-1.395-0.93l-1.396-1.395l-1.396-1.861l-0.465-1.395l-0.93-2.791l-1.86-4.65l-0.465-2.325v-4.651l0.93-9.766
	l0.465-2.325l0.465-2.326l0.466-1.395l0.465-1.395l0.93-3.721l8.371,2.791l-1.395,4.65l-0.931,5.581l-0.465,5.581v2.791l0.465,5.581
	l0.931,6.046l0.465,1.396l1.396,4.65l0.93,2.789L118.126,431.177L118.126,431.177z M135.798,437.222l-2.325,0.465h-2.79l-2.791-0.93
	l-1.859-1.861l-1.86-2.324l-1.86-3.256l-0.931-3.721l-0.93-3.721v-0.464l-0.465-4.186l-0.466-4.186v-4.651l0.466-8.371l0.465-3.72
	l0.93-3.256l0.465-1.86l8.837,3.255l-0.465,1.86l-1.396,6.045l-0.465,6.046v5.581l0.465,2.79l0.93,5.58l1.396,5.582l2.325,5.115
	l1.86,3.256L135.798,437.222L135.798,437.222z M150.68,444.199l-3.255-0.465l-2.791-1.396l-2.79-1.859l-2.325-1.861l-1.86-2.789
	l-0.465-0.932l-1.396-2.789l-1.86-3.721l-1.395-4.186l-0.931-4.186l-0.465-4.186l-0.465-4.186v-4.186l0.465-4.186l0.93-4.186
	l0.931-2.79l10.696,3.255l0.465,19.533l0.465,2.79v2.791l0.466,3.721l0.465,3.721l0.93,3.256l0.931,3.254l1.396,2.791l1.395,2.326
	l0.931,0.93L150.68,444.199L150.68,444.199z M157.192,446.058l-0.466-0.465h0.931l-4.186-2.324l-0.931-0.932l-1.86-2.324
	l-0.93-2.326l-0.931-2.324l-0.93-3.256l-0.93-6.512l-0.466-4.65v-5.581l-0.465-13.021v-2.791l2.325,0.93l1.396,0.465l4.65,1.396
	v7.906l-0.93,10.231v1.859l0.93,4.652l0.931,4.186l0.465,2.789v1.396l0.93,4.186v0.93l0.931,2.791l1.395,2.789l0.931,1.396
	L157.192,446.058L157.192,446.058z M174.864,453.035l-4.186-0.93l-3.721-1.396l-2.325-1.859l-0.93-0.93l-1.86-2.326l-1.86-3.256
	l-0.931-2.789l-1.395-5.117l-0.465-3.254v-10.232l0.465-6.976v-4.186l-0.931-6.046l7.906,2.325l-0.93,4.186l-0.466,5.116v6.51
	l0.466,3.721l0.465,4.186l1.396,4.186l1.395,4.186l1.396,2.326l0.465,0.93l2.325,4.65l2.791,4.186l2.79,3.721l0.465,0.465
	L174.864,453.035L174.864,453.035z M193.931,459.544h-3.255l-3.256-1.395l-3.255-1.859l-2.791-1.861l-0.93-0.93l-3.721-4.186
	l-3.256-4.186l-2.79-4.65l-0.93-1.861l-1.396-3.721l-1.396-5.115l-0.93-5.115l-0.465-5.116v-5.116l0.465-5.116l0.465-3.255
	l10.231,3.255v6.511l0.465,6.51l1.396,7.441l0.93,3.721l1.396,3.721l0.465,0.465l0.465,1.396l1.86,4.65l0.466,0.93l0.93,1.395
	l0.93,1.861l1.396,1.859l0.931,1.861l2.79,3.254l2.79,2.791l1.396,0.93L193.931,459.544L193.931,459.544z M208.348,461.871h-2.325
	l-2.79-0.465l-2.791-0.93l-2.79-1.861l-2.325-1.859l-2.325-2.326l-2.791-3.256l-0.93-1.395l-0.93-1.859l-1.396-2.326l-0.931-2.324
	l-2.325-5.582l-0.93-2.791l-0.465-2.324l-0.931-5.115l-0.93-6.046l-0.465-6.511v-5.581l2.79,0.93l2.79,0.93l2.791,0.93l2.79,0.93
	l5.115,1.395h0.931l0.93,12.091l0.465,2.326v0.465l0.931,8.836l0.465,4.65l0.931,4.186l1.395,4.186l1.86,3.721l2.325,3.256
	l1.86,1.395l0.465,0.467L208.348,461.871L208.348,461.871z M217.65,464.197l-4.186-1.396l-3.256-1.859l-0.93-1.396l-1.396-1.859
	l-1.86-2.326l-1.396-2.324l-0.93-2.791l-0.931-3.256l-0.93-3.254l-0.465-3.256l-0.931-6.977l-0.465-3.256v-5.58l-0.465-7.906v-1.86
	l1.86,0.465l1.395,0.465l7.441,1.86l0.931,9.767l0.465,3.254l0.465,3.256l0.465,3.256l1.396,6.047l0.93,2.789l0.931,2.791
	l0.465,0.93l1.86,4.186l2.325,3.721l2.79,3.256l2.325,2.324H222.3L217.65,464.197L217.65,464.197z M239.042,467.451l-4.186-0.465
	l-3.721-1.395l-2.325-1.395l-1.86-1.861l-2.325-2.324l-1.86-2.791l-1.86-2.791l-2.325-4.65l-1.396-3.721v-0.465l-0.93-4.186
	l-0.93-4.186l-1.396-8.836l-0.931-9.301l3.721,0.93l1.396,0.465l1.396,0.465h1.395l1.86,0.465h0.931l-0.466,4.185l0.931,5.115v0.467
	l0.465,1.395l1.396,6.51l0.93,3.721l1.396,3.721l0.465,1.396v0.465l0.465,1.395v0.465l0.931,2.326l1.395,3.256l1.396,2.789
	l3.256,4.186l1.859,1.861l1.86,1.395l0.931,0.93L239.042,467.451L239.042,467.451z M254.389,469.312l-4.186-0.465l-3.72-1.396
	l-3.721-1.859l-2.791-2.791l-2.79-3.256l-2.325-3.719l-1.86-3.721l-0.465-1.396l-1.396-3.256l-1.395-3.254l-1.396-4.65l-1.86-6.977
	l-0.465-1.861l-0.931-5.58l-0.465-2.791l10.231,2.791v1.861l0.93,5.58l1.86,6.51l2.791,6.977l1.395,3.721l0.931,1.861l0.93,1.859
	l2.791,4.65l2.79,4.65l2.325,2.791l0.931,1.395l0.465,0.465l0.465,0.465l2.325,1.861L254.389,469.312L254.389,469.312z
	 M270.666,472.568l-4.186-0.467l-4.186-1.395l-3.721-2.324l-2.79-2.791l-1.396-1.861l-4.65-5.58l-3.721-6.045l-0.93-1.861
	l-1.396-2.791l-1.86-4.65l-1.395-4.65l-1.396-4.186l-1.396-8.371v-0.465l7.906,1.861l4.65,0.93l2.791,10.695l2.325,7.441l0.93,3.256
	l1.86,4.186l1.86,4.186l0.931,1.859l0.465,0.932l1.86,3.254l1.86,2.791l2.325,2.791l2.325,2.324l1.395,0.932H270.666
	L270.666,472.568z M283.223,472.101h-4.186l-3.255-0.465l-3.256-1.395l-3.255-2.791l-2.791-2.789l-2.325-3.721l-0.93-1.861
	l-1.396-2.789l-1.396-3.721l-2.79-7.441l-2.325-8.371l-1.86-8.371l6.976,1.859l0.465,2.326l0.466,3.256l1.395,6.045l0.931,3.256
	l0.93,3.256l1.396,2.789l1.396,2.326l1.395,2.791v0.93l1.86,2.789l0.465,0.932l1.86,2.789l2.791,2.791l2.79,2.791l0.93,0.465
	l2.791,1.859L283.223,472.101L283.223,472.101z M295.315,473.498l-3.721-0.93l-3.255-1.396l-3.256-1.859l-1.86-1.396l-0.465-0.465
	l-2.325-1.859l-2.325-2.326l-1.86-2.324l-1.86-1.396l-0.465-0.465l-2.325-3.254l-1.396-2.791l-0.465-1.395l-1.86-3.721l-1.396-4.186
	l-1.395-4.652l-1.396-4.65l-0.465-3.254l6.976,1.395l1.86,0.465l1.396,0.465l0.93,0.465l0.93,3.721v0.93l0.931,4.65l1.396,4.652
	l0.465,0.93l0.465,1.395l2.325,5.582l3.256,5.58l1.86,2.791l2.325,2.789l2.79,2.326l1.86,1.859l3.721,2.791l1.395,0.93l0.931,0.465
	L295.315,473.498L295.315,473.498z M319.032,476.753l-4.65-0.467l-4.65-0.93l-4.186-1.395l-4.186-1.861l-2.325-1.395l-3.721-2.791
	l-3.255-2.324l-1.396-1.395l-2.325-2.326l-2.791-3.721l-2.325-3.721l-1.86-4.186l-1.395-3.721l-2.791-9.301l-0.465-1.859
	l-0.465-1.861l10.696,1.861l0.465,2.789v1.861l0.466,1.395l0.465,0.93l0.465,0.93l0.465,0.932h-0.93v0.465l1.86,3.256l2.325,4.186
	l2.325,3.719l2.79,3.721l2.79,3.256l3.256,3.256l3.255,2.791l3.721,2.324l3.721,2.326l1.396,0.93h0.465l2.79,1.395v0.93V476.753z
	 M323.218,475.822l-4.186-1.395l-2.325-0.93l-3.255-1.861l-3.256-1.859l-2.79-2.326l-2.791-2.324l-2.79-2.326l-4.65-5.58
	l-0.93-3.721l-1.86-3.256l-1.396-3.256l-1.396-2.789l-0.465-2.326l-0.93-2.324v-0.932l-0.466-2.789l8.837,1.395l3.255,7.906
	l1.86,4.186l2.325,3.721l1.86,3.721l1.396,2.789l3.72,5.117l4.651,4.65l1.395,0.93l1.396,1.395l3.721,2.791l4.186,2.326l1.396,0.465
	l-2.325-0.465L323.218,475.822L323.218,475.822z M350.192,479.078l-6.046-0.465l-5.115-0.93l-4.65-1.396l-2.325-0.93l-3.721-1.859
	l-3.256-1.861l-2.79-2.324l-1.396-0.93l-1.86-1.861l-3.255-3.256l-2.791-3.721l-2.325-3.719l-1.86-2.326l-7.905-16.277l6.976,0.93
	l4.186,0.465l1.86,4.186l1.396,2.791l4.186,6.977l4.65,6.045l2.325,2.791l2.79,2.791l2.791,2.324l6.046,4.65l3.255,2.326
	l3.256,1.859l2.325,0.93l2.325,1.396l1.396,0.465l0.93,0.465L350.192,479.078L350.192,479.078z M362.283,480.007l-3.721-0.93
	l-4.186-1.395l-2.79-0.93l-3.721-1.861l-1.396-0.93l-4.186-2.326l-4.186-2.789l-3.72-3.256l-3.721-3.256l-3.721-3.721l-3.256-3.721
	l-2.79-3.721l-2.79-4.186l-2.325-4.186l-0.466-0.465l-0.93-2.789l8.371,0.93l2.79,0.465l5.116,4.186l5.115,4.65l5.116,5.58
	l7.906,8.838l9.766,9.766l0.465,0.465l0.466,0.465l0.93,0.93l6.046,5.117l0.465,0.465L362.283,480.007L362.283,480.007z
	 M384.607,484.193l-3.256,1.861h-3.255l-3.256-1.861l-3.721-2.324l-3.72-2.791l-3.721-3.256l-3.721-3.254v-0.467l-15.813-17.207
	l-8.371-8.836l-4.186-4.186l-1.86-1.395h1.86l9.767,1.859l6.511,5.582l9.302,9.301l7.905,8.371l3.256,3.256l3.721,3.254l3.721,2.791
	l3.72,2.791l1.86,0.93l1.86,0.93l2.791,1.396l0.465,0.465L384.607,484.193L384.607,484.193z M393.443,481.869l-4.65-1.396
	l-4.186-1.859l-2.325-0.93l-0.931-0.465l-2.79-1.861l-2.79-1.859l-5.581-5.115l-10.696-10.697l-6.511-6.977l-3.256-3.721
	l-3.721-3.254l-0.93-0.932l8.371,0.932h0.465l1.396,0.465l1.396,0.465h0.465l2.325,1.395l2.79,2.791l3.256,3.256l11.161,12.557
	l4.186,4.186l4.65,4.186l4.651,4.186l4.65,3.254l3.721,1.861L393.443,481.869L393.443,481.869z M414.836,483.263l-4.651,0.465
	l-4.65-0.93l-2.79-1.395l-3.256-1.861l-4.186-2.789l-4.186-2.791l-3.721-3.256l-3.721-3.256l-3.255-3.254l-6.046-6.047l-2.79-3.256
	l-5.116-6.045l-2.325-2.326l-2.325-1.859l-0.93-0.465l7.905,0.93h3.721l3.256,2.791l3.255,3.254l13.022,14.418l3.255,3.256
	l0.465,0.465l5.116,4.65l0.465,0.465l0.93,0.465l4.186,2.791l4.186,2.324l4.651,1.861l1.395,0.465L414.836,483.263L414.836,483.263z
	 M425.067,481.869l-4.65-0.465l-2.325-0.465l-2.325-0.932l-3.721-1.859l-3.721-1.395l-3.255-1.861l-2.325-1.859l-6.046-5.117
	l-1.396-1.395l-4.65-5.115l-7.906-9.301l-2.79-2.791l-4.186-3.721h2.325l2.79,0.465l6.046,0.465l1.396,0.93l4.65,0.932h1.396
	l0.93-0.465l3.256,4.65l3.72,4.65l3.256,4.186l3.256,4.186l6.046,6.51l3.255,2.791l3.256,2.326l1.86,1.395l0.465,0.465l0.465,0.465
	l2.325,1.396l1.86,0.93H425.067L425.067,481.869z M440.414,481.869h-2.79l-1.396-0.465v-0.465h-1.86l-2.325-0.467l-2.791-0.93
	l-2.79-1.395l-0.93-0.93l-2.325-1.861l-2.791-2.324l-6.511-5.582l-2.79-2.789l-7.441-9.303l-1.86-2.789l-3.255-5.115l10.696,1.395
	h4.65l1.86,1.859l7.906,8.836l1.86,2.326l1.86,2.326l1.86,2.324l7.905,8.836l6.977,6.047L440.414,481.869L440.414,481.869z
	 M456.692,481.404l-0.931,0.465l-2.325,0.465l-2.325-0.465l-2.79-0.93l-2.791-1.861l-2.79-2.324l-2.79-2.791l-2.791-3.256
	l-6.046-6.51l-8.371-10.232l-2.325-2.791l-2.325-2.789l10.696,0.93l10.696,13.951l0.931,1.396l0.465,0.465l0.465,0.93l0.466,0.465
	l4.186,5.115l6.511,6.047l3.255,2.324L456.692,481.404L456.692,481.404z M477.155,480.007l-3.721,1.861l-3.721,0.93h-3.256
	l-3.255-0.465l-3.256-0.93l-1.86-0.932l-3.72-2.789l-6.512-6.047l-5.115-5.58l-0.93-1.395l-0.931-1.396l-9.301-13.951l5.58-0.465
	h0.931l3.255,1.395l2.325,3.721l5.116,6.977l2.79,2.789l1.86,1.861l1.396,1.395l1.396,1.396l0.93,0.93l0.93,0.93l2.325,1.859
	l0.931,0.467l1.396,0.93l4.186,2.324l0.93,0.465l5.116,1.861l2.325,0.93l2.325,0.465h0.93L477.155,480.007L477.155,480.007z
	 M481.805,477.218l-3.721-0.465l-3.256-0.932l-3.255-0.93l-3.256-1.395l-5.115-3.256l-4.186-2.791l-1.86-1.395l-1.396-1.395
	l-2.325-2.326l-2.325-2.791l-5.115-6.51l-0.931-1.861l14.417,1.396l4.186,5.115l5.581,5.58l2.79,2.791l3.256,2.326l6.511,4.65
	l3.721,2.324l3.255,1.861l0.931,0.465l-3.721,0.465L481.805,477.218L481.805,477.218z M503.198,478.613l-3.255-0.465l-3.256-0.465
	l-0.93-0.465l-4.186-1.861l-3.256-1.395l-6.046-3.721l-2.79-1.859l-7.906-6.512l-2.325-2.326l-6.511-6.975h5.115l6.046,0.465h0.465
	l1.86,1.859l0.465,0.465l1.86,1.861l2.791,2.324l3.255,2.791l8.371,6.047l4.651,3.254l4.186,2.791l2.325,1.395l2.79,1.861
	L503.198,478.613L503.198,478.613z M525.521,480.007l-2.325,1.396h-3.256l-3.721-1.396l-4.186-1.859l-4.186-2.326l-4.186-2.324
	l-4.186-2.791l-21.857-16.742l12.557,0.93l3.255,1.861l1.86,0.93l15.813,11.162l2.325,1.395l5.581,3.721l4.186,2.791l1.86,1.395
	l0.93,0.93L525.521,480.007z M534.822,479.078l-1.86-0.465l-2.325-0.465l-2.325-0.93l-2.325-1.396l-0.93-0.465l-12.557-8.371
	l-7.906-5.115l-1.396-0.93l-3.255-1.861l-3.256-2.324l-1.86-2.326l0.465-0.93h2.326l6.511,1.395l1.395,1.396l7.441,6.975
	l6.046,5.117l6.976,4.65l3.721,2.324l3.721,1.861l1.86,0.465h0.465l1.396,0.465L534.822,479.078L534.822,479.078z M544.588,478.148
	h-3.721l-2.79-0.93l-1.86-0.465l-2.325-0.932l-2.79-1.395l-6.046-3.721l-8.371-6.045l-6.512-5.582l-1.395-1.395l-0.465-0.465
	l5.115,0.465l7.906,0.465l9.767,8.836l7.44,6.047l3.721,2.324l4.186,1.861l0.93,0.465L544.588,478.148L544.588,478.148z
	 M557.145,475.822l-2.325,0.465h-2.325l-2.325-0.465l-2.325-0.93l-2.326-0.93l-2.79-1.395l-2.325-1.861l-5.115-4.186l-9.767-8.836
	l4.65,0.465l5.581,0.465l0.465,0.93l1.396,2.326l0.465,0.93l1.86,1.861l1.86,1.859l2.325,1.861l2.325,1.395l0.93,0.465l0.466,0.465
	l0.93,0.465l0.465,0.465l0.931,0.465l1.86,0.932l1.86,0.465l4.186,0.93h1.395L557.145,475.822L557.145,475.822z M568.307,472.101
	H557.61l-5.58-1.395l-1.86-0.93l-0.931-0.465l-1.395-0.465l-2.326-1.396h-0.465l-4.186-3.721l-0.93-1.395l-0.465-0.93l-0.931-1.395
	l-0.465-0.467l3.256,0.467l8.836,0.465l0.93,1.395l1.396,1.859l1.86,1.861l0.93,0.93l0.466,0.465l2.325,1.861l1.395,0.93
	l4.186,1.859l0.931,0.465l4.186,1.396L568.307,472.101L568.307,472.101z M580.864,467.451l-0.466,0.932l-0.465,0.465h-0.93
	l-2.791-0.932l-3.255-1.395l-4.65-2.791l-4.651-3.254l6.511,0.93l7.441,3.721l0.93,0.465l0.931,0.465l0.93,0.465l0.466,0.465h0.465
	L580.864,467.451L580.864,467.451z M583.654,464.197l-0.465,0.465h-1.396l-3.256-0.932l-2.79-1.395l5.581,0.465h0.465l2.325,0.465
	L583.654,464.197L583.654,464.197z"/>
</svg>
