<?xml version="1.0" encoding="utf-8"?>
<!-- Generator: Adobe Illustrator 15.0.0, SVG Export Plug-In . SVG Version: 6.00 Build 0)  -->
<!DOCTYPE svg PUBLIC "-//W3C//DTD SVG 1.1//EN" "http://www.w3.org/Graphics/SVG/1.1/DTD/svg11.dtd">
<svg version="1.1" id="Calque_1" xmlns="http://www.w3.org/2000/svg" xmlns:xlink="http://www.w3.org/1999/xlink" x="0px" y="0px"
	 width="595.279px" height="595.275px" viewBox="0 123.307 595.279 595.275" enable-background="new 0 123.307 595.279 595.275"
	 xml:space="preserve">
<path fill="#67595D" d="M179.616,434.798c-3.748,7.785-7.013,14.367-10.115,21.031c-15.523,33.377-28.383,67.68-35.019,104.02
	c-3.693,20.213-5.712,40.572-0.433,60.863c4.534,17.436,13.97,26.389,30.112,27.127c7.064,0.33,14.454-1.166,21.333-3.105
	c18.211-5.158,34.056-15.119,49.38-25.91c3.721-2.623,7.524-4.26,12.166-2.533c8.223,3.061,11.199,13.961,4.265,19.137
	c-25.025,18.645-51.511,34.723-83.939,35.717c-26.56,0.818-45.785-13.426-54.259-38.744c-6.324-18.891-6.696-38.322-4.376-57.816
	c6.893-58.031,29.29-110.756,56.185-161.865c2.311-4.39,2.45-7.878,0.813-12.571c-6.716-19.286-12.961-38.74-19.096-58.221
	c-1.162-3.693-2.353-4.744-6.361-3.865c-26.351,5.795-52.311,12.868-75.685,26.713c-9.027,5.348-17.687,11.989-24.904,19.57
	c-12.003,12.603-12.231,26.55-2.423,40.94c8.557,12.561,20.616,21.15,33.34,28.912c3.981,2.438,8.181,4.512,12.189,6.902
	c5.827,3.482,7.822,10.236,4.832,15.854c-2.999,5.623-9.729,7.85-15.84,4.707c-17.877-9.189-34.55-20.096-47.92-35.396
	c-8.194-9.375-14.198-19.914-16.185-32.406c-2.474-15.58,1.99-29.308,11.348-41.642c9.65-12.71,22.323-21.779,36.159-29.313
	c24.536-13.361,50.975-21.342,78.135-27.225c1.86-0.405,3.702-0.907,6.223-1.535c-1.279-7.246-2.651-14.277-3.749-21.36
	c-4.45-28.806-6.501-57.635,0.572-86.348c2.8-11.357,7.194-22.091,14.841-31.136c15.607-18.449,35.679-22.556,58.188-17.059
	c22.248,5.437,40.93,17.756,58.352,32.094c4.93,4.055,5.064,11.38,1.041,16.101c-4.106,4.813-10.491,5.441-16.082,1.632
	c-8.78-5.976-17.318-12.361-26.443-17.761c-10.454-6.181-21.681-10.566-34.191-10.627c-10.333-0.051-18.365,4.153-24.253,12.524
	c-7.459,10.617-10.124,22.867-11.533,35.428c-2.981,26.569,0.558,52.687,5.734,78.679c0.553,2.763,1.613,3.739,4.521,3.446
	c20.974-2.093,41.953-4.181,62.96-5.934c4.566-0.377,7.548-2.028,10.38-5.609c27.3-34.484,57.227-66.416,92.432-93.059
	c19.611-14.84,40.334-27.778,64.178-34.842c14.938-4.423,30.058-6.06,45.103-0.772c18.788,6.604,29.289,20.881,34.703,39.307
	c5.738,19.561,4.841,39.502,2.511,59.439c-0.6,5.106-1.493,10.189-2.455,15.24c-1.307,6.874-6.404,10.515-13.269,9.715
	c-6.241-0.726-10.315-5.744-9.659-12.71c0.906-9.608,3.098-19.165,3.194-28.755c0.117-11.348-0.125-22.988-2.487-34.01
	c-4.926-22.918-20.779-31.908-44.232-26.736c-17.594,3.874-33.196,12.152-48.051,21.941c-30.513,20.109-56.561,45.255-80.743,72.443
	c-4.497,5.055-8.822,10.269-13.194,15.431c-0.265,0.307-0.246,0.856-0.581,2.163h6.329c62.276,0.628,123.637,8.032,183.603,25.29
	c28.555,8.222,56.119,18.938,81.483,34.717c13.496,8.395,25.885,18.11,35.684,30.787c19.984,25.858,18.306,54.887-4.683,78.042
	c-15.523,15.641-34.643,25.52-55.008,33.193c-5.762,2.162-12.105-1.016-14.31-6.535c-2.423-6.064,0.204-12.338,6.371-15.328
	c9.403-4.559,19.184-8.506,28.076-13.92c7.338-4.473,14.333-10.018,20.216-16.271c12.45-13.25,12.91-27.732,2.354-42.559
	c-7.906-11.105-18.528-19.226-29.95-26.323c-28.183-17.514-59.109-28.364-90.952-36.833c-33.196-8.832-66.923-14.994-101.175-17.431
	c-27.294-1.939-54.687-2.498-82.032-3.795c-3.948-0.191-6.646,0.977-8.841,4.362c-16.03,24.723-32.242,49.329-48.189,74.107
	c-1.163,1.805-1.655,5.051-0.86,6.962c26.997,64.244,61.188,124.208,106.499,177.445c19.077,22.402,39.823,43.121,65.016,58.797
	c11.822,7.354,24.16,13.488,38.47,14.441c12.967,0.873,22.426-4.553,28.862-15.557c6.064-10.367,8.497-21.834,9.585-33.619
	c3.516-38.029-4.004-74.709-13.976-111.012c-10.213-37.186-24.667-72.801-41.228-107.596c-1.335-2.8-2.428-6.125-2.283-9.139
	c0.265-5.483,4.59-9.385,9.999-10.231c4.753-0.744,9.757,1.869,12.133,6.966c5.925,12.687,11.938,25.351,17.366,38.256
	c16.751,39.86,30.238,80.759,37.362,123.534c4.972,29.857,7.349,59.822,0.447,89.729c-1.549,6.689-3.832,13.334-6.692,19.58
	c-11.752,25.689-35.582,37.299-63.193,31.262c-22.448-4.916-41.395-16.645-59.072-30.656c-32.512-25.77-58.891-57.189-82.748-90.852
	c-27.196-38.344-50.166-79.121-69.41-122.004C181.858,439.226,181.031,437.677,179.616,434.798L179.616,434.798z M167.86,332.718
	l14.863,47.269c11.743-17.923,22.69-34.628,34.466-52.612L167.86,332.718z M299.817,454.742
	c-18.682-0.023-33.885-15.166-33.848-33.713c0.033-18.844,15.217-33.861,34.21-33.856c18.668,0.009,33.838,15.138,33.853,33.74
	C334.04,439.734,318.837,454.765,299.817,454.742z"/>
</svg>
