<?xml version="1.0" encoding="utf-8"?>
<!-- Generator: Adobe Illustrator 15.0.0, SVG Export Plug-In . SVG Version: 6.00 Build 0)  -->
<!DOCTYPE svg PUBLIC "-//W3C//DTD SVG 1.1//EN" "http://www.w3.org/Graphics/SVG/1.1/DTD/svg11.dtd">
<svg version="1.1" id="Calque_1" xmlns="http://www.w3.org/2000/svg" xmlns:xlink="http://www.w3.org/1999/xlink" x="0px" y="0px"
	 width="595.279px" height="595.275px" viewBox="0 123.307 595.279 595.275" enable-background="new 0 123.307 595.279 595.275"
	 xml:space="preserve">
<path fill="#EF5734" d="M552.737,402.705c-5.916-2.381-11.836-5.078-18.017-6.417c-35.075-7.595-70.104-15.5-105.389-21.946
	c-25.811-4.716-51.998-7.353-78.005-10.915c2.651-18.11,5.064-20.365,24.49-23.374c9.911,17.119,9.911,17.119,30.359,14.719
	c41.939-4.92,68.755-29.076,76.358-72.104c5.646-31.889,12.236-62.7,36.387-86.521c0.293-0.283-0.19-1.349-0.302-2.027
	c-44.409-13.631-101.5,16.989-137.055,73.856c-16.258-2.158-26.62-7.395-33.856-24.481c-19.393-45.79-55.146-73.373-105.969-75.256
	C149.75,164.835,66.109,218.21,30.104,303.131c-35.722,84.25-24.295,166.292,16.198,245.724
	c16.458,32.281,37.479,61.412,68.629,81.475c26.676,17.18,51.287,11.734,69.155-14.504c0.734-1.09,2.106-1.758,3.743-3.07
	l7.972,20.881c2.697,7.07,5.125,14.254,8.139,21.184c6.134,14.092,22.573,20.826,36.87,16.035c3.674-1.232,8.413-1.357,12.096-0.199
	c15.919,5.004,30.509,5.152,43.27-7.758c2.032-2.051,6.339-2.711,9.548-2.609c21.913,0.693,34.033-6.492,43.441-26.172
	c0.8-1.666,2.009-3.33,3.446-4.465c14.677-11.572,18.286-23.625,10.905-40.535c-4.45-10.199-10.003-19.924-15.23-29.77
	c-3.758-7.072-7.785-13.998-12.757-22.885c24.276,8.012,45.948,16.281,65.955-1.939c4.116,2.125,7.562,4.158,11.203,5.738
	c20.059,8.73,46.846,5.852,58.264-7.553c4.729-5.553,8.984-5.938,15.305-5.455c24.983,1.916,54.18-5.994,58.286-35.693
	c26.551-5.385,38.67-17.146,40.847-39.613C587.741,427.554,578.073,412.886,552.737,402.705L552.737,402.705z M398.005,339.712
	c-2.642,0.047-6.357-4.748-7.827-8.078c-1.967-4.46-2.219-9.668-4.022-18.658l21.063,8.143c9.612-7.129,19.384,3.874,33.252,5.088
	C425.844,336.304,412.198,339.461,398.005,339.712L398.005,339.712z M487.366,208.235c-10.269,35.224-20.662,70.885-31.847,109.238
	c-13.083-10.947-22.491-18.812-34.099-28.513l38.763-59.798c-21.546,13.157-34.062,33.359-45.893,55.519l-17.355-9.683
	C409.827,240.45,453.98,208.746,487.366,208.235z M341.142,274.65c29.336,1.632,54.403,14.091,77.237,31.689
	c1.517,1.167,1.758,3.976,3.879,9.189c-26.634-9.101-49.315-5.883-71.982,2.651c-6.632,2.498-14.7,1.181-22.113,1.619l0.125,3.423
	l41.758-2.577l0.387,3c-14.478,6.65-28.96,13.296-43.428,19.947c-11.241-15.417-6.758-52.641,5.078-65.063
	C334.198,276.306,338.156,274.483,341.142,274.65L341.142,274.65z M406.651,424.992l-0.465,3.119
	c45.171,8.889,90.348,17.779,135.677,26.699c-5.315,14.398-16.156,18.859-42.59,18.398c-1.014,24.625-12.445,31.15-49.641,28.346
	c-7.549,22.383-27.63,27.238-61.956,14.789c-18.37,19.984-39.2,12.762-60.667,4.367c-4.246,33.195-19.589,59.119-48.729,75.643
	c-27.1,15.375-56.156,13.688-85.093,7.375C76.512,578.291,9.375,464.642,40.414,345.726
	c23.229-88.999,95.826-149.527,185.271-154.47c43.223-2.391,81.665,20.123,99.723,59.091c1.73,3.729,1.875,10.571-0.418,13.426
	c-24.128,30.039-24.564,62.239-8.901,95.478c3.6,7.646,2.432,12.129-2.153,17.919c-20.658,26.053-48.287,41.144-79.279,51.077
	l-4.19,1.262c35.885-0.754,70.243-6.498,95.343-34.964c6.59-7.464,12.826-9.464,21.667-8.06
	c48.413,7.72,96.877,15.115,145.234,23.184c12.445,2.074,24.648,5.841,36.787,9.417c9.366,2.762,15.714,8.817,17.43,20.36
	C499.626,434.566,453.143,429.781,406.651,424.992L406.651,424.992z M260.965,297.178c-0.023-16.347-13.84-29.815-30.029-29.271
	c-15.123,0.507-29.006,15.185-28.452,30.094c0.586,15.877,13.961,28.644,29.75,28.401
	C248.218,326.161,260.984,313.176,260.965,297.178z M214.547,283.826c0.023-10.329,10.088-11.71,18.687-11.32
	c7.683,0.344,16.933,2.246,16.449,11.538c-0.549,10.501-10.659,10.943-21.49,14.05C223.369,293.346,214.542,288.579,214.547,283.826
	L214.547,283.826z"/>
</svg>
