<svg xmlns="http://www.w3.org/2000/svg" viewBox="0 0 128 128">
<path fill="#4897AA" d="M40.9,84c-0.7,0-1.5-0.1-2.2-0.3c-0.8,4.6-0.9,10.2,2.7,10.2c4.6,0.1,14.3,0.1,18.8,0c0.2-0.8,0.2-1,0-0.9
	c-3.6-1.5-9.8-5.1-6.7-10.5c-1.1,0.1-2.1,0.3-3.2,0.5C47.6,83.5,44.6,84,40.9,84z M91.6,93c-3.4-1.4-8.9-4.6-7.2-9.4
	c-2.1,1.2-4.5,1.8-7.1,1.8c-2.5,0-4.8-0.6-7.3-1.3c-0.7,4.5-0.7,9.7,2.7,9.7c4.6,0.1,14.3,0.1,18.8,0C91.7,93.1,91.7,92.9,91.6,93z
	 M29.4,75.8C28,73.9,27,72,26.2,70.6c-0.9,4.2-5.4,20.2-20.9,24.3l-0.6,1.5c0,0,19.8-1.8,31.4-14C33.8,81.2,31.6,79,29.4,75.8
	L29.4,75.8z M93.2,51.3c0,0-1.1-3.8-4.7-8.1c-7.1,4.3-12,11.8-12.7,20.5c-0.4-1.8-0.6-3.7-0.6-5.6c0-7.7,3.2-14.6,8.4-19.5
	c-1.8-1.4-3.9-2.6-6.4-3.7c-8.5,5.8-13.1,16.3-11.3,26.8c-0.8-1.7-1.5-3.4-2-5.3c-2.3-8.7-0.1-17.5,5.2-24c-2.3-0.4-4.8-0.7-7.6-0.8
	c-8.1,7.8-10.5,20.2-5.6,30.6c-1.2-1.4-2.4-2.9-3.3-4.5c-4.6-7.9-4.7-17.1-1.1-24.8c-3.7,1.2-6.9,3.1-9.6,5.5
	c-3.5,9-2,19.4,4.5,27.1c-1.5-1-3-2.2-4.4-3.5c-4.1-4.1-6.6-9.1-7.5-14.4c-5.7,9.6-7.2,20.1-7.2,20.1s6.6,14.4,13.8,14.4
	c7.1,0,11.4-1.9,18.3-1.9c7,0,12.5,3.4,18,3.4S94,80.8,93.2,51.3L93.2,51.3z M100.4,53c1.5-1.4,3.6-3.5,5.1-6.1
	c2.9-5.1,2.4-10.9,2.4-10.9s-6.6,2.5-9.5,7.7c-1.9,3.3-3,6.3-3.2,8.4c0.8,0.3,1.3-0.7,0,0c0.2,8.1-0.6,14.8-2.2,20
	c0.1,0,0.2,0,0.3,0c0,0,5.3,2.1,11.2-0.2c5.8-2.3,14.3,9.9,15.6,12.8l3.2,0.3C123.3,85,121.4,58.7,100.4,53L100.4,53z M105.8,63.5
	c-1.4,0-2.5-1.1-2.5-2.5c0-1.4,1.1-2.5,2.5-2.5s2.5,1.1,2.5,2.5C108.3,62.4,107.1,63.5,105.8,63.5z"/>
</svg>
