<svg xmlns="http://www.w3.org/2000/svg" viewBox="0 0 128 128">
	<path fill="#00C900" d="M8.2,86.3L8.2,86.3c0.2-11.1,2.4-20.8,8-29.7c9.3-15.2,22.1-26.7,39.1-32.8c14.8-5.4,29.3-4.6,43.6,1.5
		c2.8,1.3,4.6,0.7,6.5-1.3c3.3-3.5,5.9-7.4,7.4-11.9c0.2-0.9,0.7-2,1.3-2.6c0.4-0.4,1.5-0.9,2-0.7c3.9,1.7,4.8,5.6,2.2,9.1
		c-2.8,3.5-5.6,6.9-8.5,10.4c-2,2.4-2.2,4.3-1.1,7.4c6.3,16.1,2.2,30.2-9.3,42.3c-9.8,10.4-22.4,16.3-36,19.5
		c-7.2,1.7-14.5,2-21.7,3.5c-3.9,0.7-7.6,2.2-11.3,3.9c-4.1,1.7-6.9,5-8.7,9.1c-0.7,1.3-1.5,3.7-2.6,4.8c-0.4,0.7-1.3,0.7-1.7,0
		c-0.9-1.1-2-3.3-2.6-4.6C9.9,105.4,8.4,95.6,8.2,86.3z"/>
</svg>
