<?xml version="1.0" encoding="utf-8"?>
<!-- Generator: Adobe Illustrator 15.0.0, SVG Export Plug-In . SVG Version: 6.00 Build 0)  -->
<!DOCTYPE svg PUBLIC "-//W3C//DTD SVG 1.1//EN" "http://www.w3.org/Graphics/SVG/1.1/DTD/svg11.dtd">
<svg version="1.1" id="Calque_1" xmlns="http://www.w3.org/2000/svg" xmlns:xlink="http://www.w3.org/1999/xlink" x="0px" y="0px"
	 width="595.279px" height="527.973px" viewBox="0 155.049 595.279 527.973" enable-background="new 0 155.049 595.279 527.973"
	 xml:space="preserve">
<path fill="#444444" d="M530.594,345.677c-0.121-0.557-0.202-1.143-0.364-1.68c-0.081-0.333-0.202-0.637-0.304-0.971
	c-0.161-0.496-0.304-0.971-0.506-1.446c-0.161-0.334-0.304-0.648-0.466-0.981c-0.223-0.456-0.425-0.891-0.688-1.326
	c-0.184-0.313-0.385-0.617-0.587-0.931c-0.265-0.415-0.526-0.83-0.852-1.224c-0.223-0.293-0.443-0.577-0.688-0.87
	c-0.283-0.374-0.627-0.749-0.972-1.092c-0.283-0.273-0.525-0.546-0.81-0.79c-0.364-0.333-0.77-0.647-1.134-0.961
	c-0.323-0.223-0.606-0.465-0.931-0.678c-0.102-0.081-0.202-0.162-0.323-0.253L308.747,190.341c-6.737-4.492-15.499-4.492-22.236,0
	L73.284,332.475c-0.121,0.091-0.202,0.172-0.333,0.253c-0.304,0.232-0.597,0.455-0.911,0.678c-0.395,0.313-0.759,0.627-1.133,0.961
	c-0.273,0.243-0.546,0.516-0.789,0.79c-0.354,0.344-0.688,0.698-0.991,1.092c-0.253,0.293-0.465,0.557-0.688,0.87
	c-0.293,0.395-0.577,0.81-0.851,1.224c-0.182,0.314-0.395,0.617-0.556,0.931c-0.253,0.435-0.476,0.87-0.688,1.326
	c-0.143,0.333-0.314,0.647-0.456,0.981c-0.202,0.475-0.374,0.971-0.517,1.446c-0.102,0.334-0.232,0.638-0.313,0.971
	c-0.143,0.557-0.243,1.123-0.354,1.68c-0.061,0.293-0.122,0.577-0.162,0.87c-0.102,0.87-0.182,1.74-0.182,2.61v142.134
	c0,0.891,0.061,1.76,0.182,2.609c0.04,0.303,0.102,0.588,0.162,0.871c0.111,0.564,0.212,1.133,0.354,1.678
	c0.081,0.346,0.212,0.646,0.313,0.973c0.162,0.506,0.333,0.99,0.517,1.477c0.122,0.324,0.293,0.646,0.456,0.973
	c0.212,0.445,0.435,0.891,0.688,1.336c0.182,0.322,0.374,0.646,0.556,0.93c0.273,0.404,0.536,0.811,0.851,1.215
	c0.223,0.322,0.455,0.586,0.688,0.869c0.304,0.385,0.638,0.73,0.991,1.072c0.243,0.283,0.516,0.547,0.789,0.811
	c0.344,0.322,0.739,0.627,1.133,0.932c0.293,0.242,0.607,0.484,0.911,0.688c0.131,0.08,0.212,0.162,0.333,0.242L286.49,650.109
	c3.379,2.244,7.234,3.379,11.129,3.379c3.896,0,7.75-1.113,11.128-3.379l213.206-142.145c0.121-0.082,0.224-0.162,0.323-0.244
	c0.304-0.223,0.607-0.443,0.911-0.688c0.404-0.303,0.769-0.607,1.133-0.932c0.283-0.264,0.547-0.525,0.811-0.809
	c0.363-0.344,0.688-0.688,1.012-1.072c0.243-0.283,0.465-0.547,0.688-0.871c0.283-0.404,0.567-0.809,0.852-1.213
	c0.161-0.324,0.384-0.607,0.565-0.932c0.242-0.426,0.485-0.891,0.688-1.336c0.142-0.303,0.304-0.646,0.445-0.971
	c0.202-0.486,0.363-0.973,0.525-1.479c0.102-0.324,0.242-0.627,0.323-0.971c0.122-0.547,0.243-1.113,0.345-1.68
	c0.04-0.283,0.121-0.566,0.161-0.869c0.103-0.871,0.184-1.74,0.184-2.611v-142.13c0-0.891-0.062-1.761-0.184-2.61
	c-0.04-0.293-0.101-0.577-0.161-0.87h0.02V345.677z M297.659,467.677l-70.9-47.428l70.9-47.428l70.899,47.428L297.659,467.677z
	 M277.628,337.988l-86.925,58.143l-70.151-46.933l157.077-104.721L277.628,337.988L277.628,337.988z M154.655,420.25l-50.14,33.548
	v-67.096L154.655,420.25z M190.702,444.369l86.925,58.113v93.5L120.551,491.271l70.151-46.924V444.369z M317.691,502.482
	l86.926-58.113l70.151,46.924l-157.077,104.73v-93.521V502.482z M440.674,420.25l50.159-33.548v67.096L440.674,420.25z
	 M404.616,396.131l-86.926-58.143v-93.511l157.077,104.721L404.616,396.131z"/>
</svg>
