<?xml version="1.0" encoding="utf-8"?>
<!-- Generator: Adobe Illustrator 15.0.0, SVG Export Plug-In . SVG Version: 6.00 Build 0)  -->
<!DOCTYPE svg PUBLIC "-//W3C//DTD SVG 1.1//EN" "http://www.w3.org/Graphics/SVG/1.1/DTD/svg11.dtd">
<svg version="1.1" id="Calque_1" xmlns="http://www.w3.org/2000/svg" xmlns:xlink="http://www.w3.org/1999/xlink" x="0px" y="0px"
	 width="595.279px" height="595.275px" viewBox="0 123.307 595.279 595.275" enable-background="new 0 123.307 595.279 595.275"
	 xml:space="preserve">
<path fill="#EE4323" d="M417.198,350.572l-3.525-1.925c1.855,4.483,2.46,8.306,2.395,11.724c0.661-2.767,1.098-5.623,1.154-8.59
	c0.041,3.688-0.405,7.153-1.271,10.375l0.116-1.79c-1.018,4.288-2.72,8.259-4.994,11.896l1.093-1.163
	c-13.394,22.412-49.934,27.309-67.955,4.162c-28.927-37.158,0.596-77.219,4.729-116.568c5.167-49.315-25.755-97.193-64.099-125.846
	c21.118,34.164-6.707,79.368-28.969,104.63c-21.589,24.504-47.837,44.958-71.667,67.206c-25.592,23.918-50.213,49.087-71.242,77.145
	C70.88,437.98,45.111,508.605,64.048,578.666c18.919,70.021,79.563,114.588,148.049,130.344
	c-34.55-14.938-66.881-52.891-66.955-91.725c-0.089-42.348,26.74-78.293,60.118-101.914c-4.014,15.156-6.204,29.021,3.734,42.578
	c9.245,12.607,25.43,18.727,40.707,15.402c35.712-7.809,37.345-47.064,16.18-69.936c-20.933-22.641-41.182-48.232-33.22-81.076
	c3.99-16.462,14.101-31.875,26.913-42.906c-9.85,25.872,18.124,51.384,36.55,64.082c31.978,22.049,67.043,38.717,96.444,64.555
	c30.917,27.16,53.757,63.881,49.143,106.48c-5.004,46.168-41.688,78.279-82.832,94.486
	c86.948-19.197,176.808-86.682,178.636-183.123C539.044,446.583,484.623,385.526,417.198,350.572L417.198,350.572z"/>
</svg>
