<svg xmlns="http://www.w3.org/2000/svg" viewBox="0 0 128 128">
<path fill="#444444" d="M126.9,43.9c0-0.2-0.101-0.3-0.101-0.5c0-0.1-0.1-0.2-0.1-0.3s-0.101-0.3-0.101-0.4c0-0.1-0.1-0.2-0.1-0.3
	c-0.1-0.1-0.1-0.2-0.2-0.4c0-0.1-0.1-0.2-0.2-0.3c-0.1-0.1-0.1-0.2-0.199-0.3c-0.101-0.1-0.101-0.2-0.2-0.2
	c-0.101-0.1-0.2-0.2-0.3-0.3c-0.101-0.1-0.101-0.1-0.2-0.2c-0.101-0.1-0.2-0.2-0.3-0.3c-0.101-0.1-0.2-0.1-0.301-0.2
	c0,0-0.1,0-0.1-0.1L67,1.9c-1.8-1.2-4.2-1.2-6,0L3.399,40.3c0,0-0.1,0-0.1,0.1c-0.1,0.1-0.2,0.1-0.2,0.2c-0.1,0.1-0.2,0.2-0.3,0.3
	S2.7,41,2.6,41.1c-0.1,0.1-0.2,0.2-0.3,0.3s-0.1,0.2-0.2,0.2c-0.1,0.1-0.2,0.2-0.2,0.3S1.8,42.1,1.7,42.2
	C1.6,42.3,1.6,42.4,1.5,42.6c0,0.1-0.101,0.2-0.101,0.3c-0.1,0.1-0.1,0.3-0.1,0.4c0,0.1-0.1,0.2-0.1,0.3c0,0.2-0.101,0.3-0.101,0.5
	c0,0.1,0,0.2,0,0.2c0,0.2,0,0.5,0,0.7v38.4c0,0.199,0,0.5,0,0.699c0,0.101,0,0.2,0,0.2c0,0.2,0.101,0.3,0.101,0.5
	c0,0.101,0.1,0.2,0.1,0.3c0,0.101,0.1,0.301,0.1,0.4S1.5,85.7,1.5,85.8C1.6,85.9,1.6,86,1.7,86.2c0,0.1,0.1,0.2,0.199,0.3
	C2,86.6,2,86.7,2.1,86.8C2.2,86.9,2.2,87,2.3,87c0.1,0.1,0.2,0.2,0.3,0.3C2.7,87.4,2.7,87.4,2.8,87.5s0.2,0.2,0.3,0.3
	C3.2,87.9,3.3,87.9,3.3,88c0,0,0.1,0,0.1,0.1L61,126.1c0.899,0.601,2,0.9,3,0.9s2.1-0.3,3-0.9L124.6,87.7c0,0,0.101,0,0.101-0.101
	c0.1-0.1,0.2-0.1,0.2-0.199c0.1-0.101,0.199-0.2,0.3-0.301c0.1-0.1,0.1-0.1,0.2-0.199c0.1-0.101,0.199-0.2,0.3-0.301
	c0.1-0.1,0.1-0.1,0.2-0.199C126,86.3,126.1,86.2,126.1,86.1c0-0.1,0.101-0.199,0.2-0.3c0.101-0.1,0.101-0.2,0.2-0.399
	c0-0.101,0.1-0.2,0.1-0.301C126.7,85,126.7,84.8,126.7,84.7c0-0.101,0.1-0.2,0.1-0.3c0-0.101,0.101-0.301,0.101-0.5
	c0-0.101,0-0.2,0-0.2c0-0.2,0-0.5,0-0.7V44.8c0-0.2,0-0.5,0-0.7C126.9,44,126.9,43.9,126.9,43.9L126.9,43.9L126.9,43.9z M64,76.8
	L44.899,64L64,51.2L83.2,64L64,76.8z M58.6,41.8L35.1,57.5L16.2,44.8L58.6,16.5V41.8L58.6,41.8z M25.399,64l-13.5,9.1V54.9
	L25.399,64z M35.1,70.5l23.5,15.7v25.3L16.2,83.2L35.1,70.5L35.1,70.5z M69.4,86.2l23.5-15.7L111.8,83.2L69.4,111.5V86.2L69.4,86.2z
	 M102.6,64l13.5-9.1V73L102.6,64z M92.9,57.5L69.4,41.8V16.5L111.8,44.8L92.9,57.5z"/>
</svg>
