<?xml version="1.0" encoding="utf-8"?>
<!-- Generator: Adobe Illustrator 15.0.0, SVG Export Plug-In . SVG Version: 6.00 Build 0)  -->
<!DOCTYPE svg PUBLIC "-//W3C//DTD SVG 1.1//EN" "http://www.w3.org/Graphics/SVG/1.1/DTD/svg11.dtd">
<svg version="1.1" id="Calque_1" xmlns="http://www.w3.org/2000/svg" xmlns:xlink="http://www.w3.org/1999/xlink" x="0px" y="0px"
	 width="595.279px" height="590.97px" viewBox="0 125.05 595.279 590.97" enable-background="new 0 125.05 595.279 590.97"
	 xml:space="preserve">
<path fill="#196389" d="M244.505,152.522C156.982,171.181,79.31,234.955,46.743,315.007c-27.478,67.152-27.478,143.803,0,210.979
	c28.814,70.576,93.28,129.59,168.911,154.686c27.137,8.818,33.576,9.5,82.093,9.5c48.528,0,54.955-0.682,82.093-9.5
	c114.344-37.645,189.307-140.426,189.307-260.164c0-118.718-72.617-219.809-185.905-258.815
	c-26.128-8.807-34.596-10.179-76.989-11.188c-26.13-0.68-53.947,0.329-61.724,2.041L244.505,152.522z M328.262,330.252
	c46.815,82.093,61.406,122.46,54.979,151.285c-10.179,43.416-48.176,71.234-91.592,66.824
	c-21.379-2.395-44.436-15.293-57.335-31.523l-8.14-10.883h13.568c36.965-0.656,65.476-35.605,59.717-73.602
	c-2.042-15.611-13.568-46.478-27.149-72.947l-7.799-15.269l17.285-29.518c9.488-16.29,18.332-28.827,19.68-27.818
	c1.359,0.668,13.557,20.347,26.785,43.427L328.262,330.252L328.262,330.252z M257.041,362.82
	c29.179,58.004,34.245,83.441,21.708,105.137c-22.716,38.35-76.663,27.49-87.851-17.967c-1.712-5.418-0.34-16.277,3.378-27.125
	c6.108-19.339,42.395-87.183,46.476-87.183C242.123,335.683,249.571,347.879,257.041,362.82z"/>
</svg>
