<svg xmlns="http://www.w3.org/2000/svg" viewBox="0 0 128 128">
<path fill="#196389" class="st0" d="M50.7,0.5C30.4,4.9,12.3,19.8,4.8,38.4c-6.4,15.7-6.4,33.6,0,49.2c6.7,16.5,21.6,30.2,39.2,36.1
	c6.3,2.1,7.8,2.2,19,2.2c11.3,0,12.8-0.2,19-2.2C108.6,115,126,91,126,63.1c0-27.7-16.8-51.3-43.1-60.4C76.8,0.6,74.8,0.3,65,0
	C58.9-0.1,52.5,0.1,50.7,0.5L50.7,0.5z M70.1,42C81,61.2,84.4,70.6,82.9,77.3c-2.4,10.1-11.2,16.6-21.3,15.6
	c-5-0.6-10.3-3.6-13.3-7.4L46.4,83h3.1c8.6-0.2,15.2-8.3,13.9-17.2c-0.5-3.6-3.1-10.8-6.3-17l-1.8-3.6l4-6.9
	c2.2-3.8,4.3-6.7,4.6-6.5C64.2,32,67,36.6,70.1,42L70.1,42L70.1,42z M53.6,49.6c6.8,13.5,7.9,19.5,5,24.5c-5.3,9-17.8,6.4-20.4-4.2
	c-0.4-1.3-0.1-3.8,0.8-6.3c1.4-4.5,9.8-20.3,10.8-20.3C50.1,43.3,51.8,46.1,53.6,49.6z"/>
</svg>
