<svg xmlns="http://www.w3.org/2000/svg" viewBox="0 0 128 128">
<g>
	<path id="path-1_1_" fill="#FFFFFF" d="M349.949,367.214c-1.439,29.231-5.707,56.234-17.092,81.657
		c-8.738,19.515-28.719,29.672-51.252,26.813c-18.521-2.349-35.504-18.19-39.64-36.975c-4.614-20.958,4.043-42.885,22.636-52.43
		C290.848,372.809,319.539,368.975,349.949,367.214"/>
</g>
<path fill="#E21708" d="M57.971,41.818c0,0-2.516,13.941-3.519,21.008c-5.096-3.974-15.182-11.199-15.182-11.199
	s7.913,10.642,11.649,15.395c-7.099,0.806-21.328,3.021-21.328,3.021s14.553,2.34,21.33,3.124
	c-3.932,4.977-11.688,15.066-11.688,15.066s10.538-7.277,15.272-10.927c0.965,6.771,3.463,21.192,3.463,21.192
	s2.285-14.409,3.152-21.433c4.682,3.648,14.564,11.271,14.564,11.271s-6.885-10.309-10.654-15.177
	c6.85-0.805,20.766-3.118,20.766-3.118s-14.053-2.237-20.717-3.01c3.449-4.674,10.674-15.41,10.674-15.41
	s-10.123,7.852-14.642,11.467C60.278,56.109,57.971,41.818,57.971,41.818 M118.602,9.527c-1.439,29.23-5.705,56.232-17.09,81.656
	c-8.74,19.515-28.721,29.671-51.252,26.813c-18.521-2.35-35.506-18.191-39.641-36.976c-4.613-20.959,4.043-42.885,22.637-52.429
	C59.502,15.121,88.193,11.287,118.602,9.527"/>
</svg>
