<?xml version="1.0" encoding="utf-8"?>
<!-- Generator: Adobe Illustrator 15.0.0, SVG Export Plug-In . SVG Version: 6.00 Build 0)  -->
<!DOCTYPE svg PUBLIC "-//W3C//DTD SVG 1.1//EN" "http://www.w3.org/Graphics/SVG/1.1/DTD/svg11.dtd">
<svg version="1.1" id="Calque_1" xmlns="http://www.w3.org/2000/svg" xmlns:xlink="http://www.w3.org/1999/xlink" x="0px" y="0px"
	 width="595.279px" height="611.97px" viewBox="0 116.05 595.279 611.97" enable-background="new 0 116.05 595.279 611.97"
	 xml:space="preserve">
<path fill="#444444" d="M306.167,700.852c11.323-5.316,19.534-12.773,19.534-18.268c0-2.201,29.035-31.197,32.863-32.863
	c0.535-0.178,4.383,0.912,8.032,2.381l6.941,2.936l-12.932,8.211c-7.14,4.363-13.705,8.031-14.796,8.031L306.167,700.852z
	 M362.016,669.633l12.396-6.227c25.027-12.574,92.56-35.779,118.124-40.697c11.305-2.021,8.767-3.848-3.095-2.201
	c-6.228,0.732-12.415,2.002-13.883,2.359c-5.117,2.021,4.025-6.387,14.974-13.844c6.029-3.848,9.479-7.141,7.854-7.141
	c-8.746,0-87.8,31.574-102.793,41.252c-5.653,3.65-6.029,3.473-6.029-4.4c0-6.586,0.556-6.941,12.415-13.486
	c10.394-5.674,74.294-34.332,76.477-34.332c0.377,0-1.448,3.828-4.205,8.568l-5.116,8.746l13.883-12.771
	c7.675-7.121,13.883-13.328,14.041-13.863c0-0.734-4.362-0.18-9.837,1.092c-5.474,1.27-10.393,1.822-10.749,1.109
	c-1.845-2.936,2.36-23.76,6.188-31.217c2.201-4.402,5.116-14.598,6.405-22.648c5.295-31.771,11.86-57.496,19.18-75.027
	c15.509-36.69,16.977-42.156,14.597-52.398c-1.271-4.928-1.824-11.305-1.091-14.418c0.535-2.915,0.179-7.487-0.733-10.025
	c-1.27-3.48-1.27-5.672,0.178-7.308c1.646-2.202,0.557-4.572-5.651-11.87c-4.204-4.929-7.496-9.292-7.141-9.48
	c0.357-0.367,3.649-1.825,7.141-3.292l6.387-2.925l1.824-25c1.11-13.686,1.646-24.84,1.646-24.84c-0.179,0-8.19,2.38-18.067,5.494
	c-9.856,2.916-18.801,5.474-20.09,5.474c-2.56,0-4.938-4.75-12.772-26.635c-5.117-13.873-6.029-18.266-5.117-27.379
	c1.091-12.594-3.292-41.619-8.746-57.862c-7.317-21.915-30.305-61.7-37.802-64.992c-6.386-3.104-10.947-2.37-13.327,1.834
	c-2.38,4.572-2.182,5.117,6.387,25l6.585,15.331l-11.306-8.955c-25.366-19.724-49.84-33.041-63.703-34.688
	c-8.767-1.101-9.123-0.912-11.146,4.572c-1.271,3.104-3.649,6.029-5.475,6.396c-2.38,0.734-3.292,2.737-3.292,7.834
	c0,6.396,1.469,8.229,18.802,24.821c10.233,9.668,17.89,17.71,17.176,17.889c-0.734,0-7.854-4.205-15.51-9.48
	c-11.503-7.675-15.528-9.479-22.095-9.668c-15.351,0-14.992,10.581,0.715,21.727c5.475,4.026,16.422,13.695,24.116,21.737
	l14.24,14.597l-12.771,2.201c-20.11,3.649-28.123,6.208-30.126,10.214c-3.828,7.12-1.469,9.113,19.714,16.065
	c11.323,3.837,22.271,8.567,24.632,10.581c7.317,6.763,23.938,16.422,33.774,19.714c6.388,2.013,10.394,4.571,11.683,7.309
	c1.091,2.38,3.828,5.126,6.208,6.217c2.935,1.279,5.116,4.75,7.317,12.048c1.646,5.663,2.56,10.76,2.003,11.305
	c-0.556,0.367-8.031,3.114-16.619,5.672l-15.688,4.929l13.327,23.73c12.237,22.094,13.507,23.74,18.267,23.185
	c6.029-0.545,6.029-0.545,0.912,8.042l-4.025,6.763l4.205,7.675c2.735,5.305,3.648,9.302,2.914,11.87
	c-1.091,3.471-1.823,2.915-5.474-4.938c-4.76-10.214-17.711-27.191-25.545-33.775c-13.525-10.948-19.178-13.139-36.711-13.328
	l-16.421-0.357l-8.588-8.231c-4.563-4.571-13.129-10.581-18.979-13.506c-10.016-4.929-11.859-5.295-33.409-5.295h-22.828
	l-17.344,9.113c-22.271,11.493-45.269,34.142-59.687,58.408c-5.296,8.935-9.659,15.34-9.659,14.418
	c-0.188-0.913-0.922-5.117-1.646-9.302c-1.468-7.467-1.468-7.655,4.017-8.221c5.305-0.545,5.672-1.101,9.489-16.977
	c2.192-9.123,4.563-18.256,5.295-20.269c1.102-3.659,0-4.205-15.33-8.042c-12.406-3.104-16.433-4.75-16.433-7.13
	c0-5.663,5.305-22.461,7.844-25.545c1.458-1.646,3.104-4.571,3.472-6.584c0.367-2.013,4.205-5.662,8.935-8.221
	c12.772-6.952,13.506-7.844,26.824-33.597c9.668-18.802,14.974-26.824,25.366-37.97c7.317-7.844,13.328-14.974,13.328-15.708
	c0-3.104-7.497-11.305-10.215-11.305c-5.483,0-1.468-3.292,23.373-19.178c32.676-20.626,33.587-21.539,30.483-23.918
	c-2.013-1.646-13.139,4.571-47.281,25.912c-24.632,15.519-45.269,28.113-45.813,28.113s-2.747-5.484-4.938-12.048l-3.837-11.86
	l12.594-11.86c13.318-12.594,16.243-17.521,12.772-21.727c-1.646-2.013-4.938-1.101-18.802,5.662
	c-9.303,4.571-23.563,10.214-31.951,12.961c-14.052,4.383-15.331,4.383-18.436,1.646c-7.685-6.952-12.594-2.747-31.584,26.635
	c-3.837,5.851-7.497,10.591-8.21,10.591c-0.913,0-5.474-7.13-10.393-16.064c-4.938-8.756-10.581-17.711-12.594-20.091
	c-4.938-5.295-9.668-5.117-11.126,0.367c-1.825,7.308,6.396,40.717,19.535,81.047c4.205,12.594,4.384,13.328,1.279,14.974
	c-2.926,1.458-3.104,2.559-1.279,7.309c1.458,4.026,2.926,5.117,5.306,4.393c2.736-0.734,4.383,1.279,8.567,10.759
	c5.295,11.682,5.295,11.86,2.37,22.461c-1.636,6.029-2.916,10.948-3.104,11.126c0,0.188-4.571-0.724-10.036-2.191
	c-16.61-4.383-15.509-5.662-17.889,21.37c-1.279,13.317-2.191,25.544-2.191,27.191c0,2.191,2.38,3.471,8.389,4.383l8.391,1.101
	l-1.279,10.948c-1.101,8.756-0.734,11.672,1.636,14.23c3.114,3.292,4.026,23.186,4.571,94.563l0.188,25.725l6.941,2.201
	c8.587,2.914,13.139,6.762,13.139,11.682c0,2.379,2.926,5.83,7.845,9.303c4.204,2.914,20.269,14.596,35.411,25.92
	c26.467,19.516,27.745,20.805,25.922,24.813c-1.646,3.826-1.279,5.115,3.281,9.658c4.394,4.563,4.761,5.314,1.834,5.85
	c-1.646,0.379-7.496-0.377-12.771-1.445c-12.228-2.758-54.233-4.762-54.044-2.578c0,0.912,8.746,6.027,19.535,11.305
	c10.778,5.295,17.89,8.209,15.886,6.404c-2.201-1.824-7.13-6.029-10.948-9.301l-7.317-6.207l10.77,1.289
	c19.714,2.359,82.693,19.713,86.897,24.096c2.559,2.559,1.468,2.738-10.036,1.646c-33.766-3.113-48.372-3.293-71.566-1.111
	c-13.863,1.291-26.279,2.936-27.558,3.67c-3.292,1.646,25.366,3.648,54.412,3.648c22.828,0,50.196,4.205,101.138,15.529
	l13.317,2.916l-3.104,6.762c-4.938,10.035-13.139,38.518-11.86,40.52L362.016,669.633z M373.697,141.337
	c25.544,13.873,42.344,27.379,42.344,33.964c-0.18,3.649,0.732,4.928,3.292,4.928c1.824,0,4.938,0.912,6.94,1.834
	c2.737,1.458,3.472,1.27,3.472-0.555c0-3.649-4.384-16.064-11.306-31.762c-5.851-13.506-5.851-18.802,0-18.802
	c4.563,0,7.12,3.283,17.891,21.905c11.126,19.357,18.245,34.876,22.826,50.752c4.563,15.519,6.565,43.444,3.828,51.486
	c-1.626,4.572-1.468,7.13,0.733,12.406c6.406,14.785,15.331,37.801,15.331,39.626s-36.69,13.685-41.788,13.685
	c-0.912,0-2.38-1.825-3.113-4.195c-4.205-13.694-8.567-23.194-10.749-23.194c-1.468,0-3.848-2.38-5.494-5.484
	c-3.292-6.584-6.208-8.042-19.179-10.769c-6.743-1.458-15.311-5.663-26.457-12.951c-12.771-8.39-18.999-11.136-28.281-12.961
	c-6.585-1.101-13.328-2.925-14.974-3.838c-4.205-2.013-4.205-6.396,0.179-8.567c3.848-2.202,40.34-5.484,46.567-4.393
	c2.736,0.555,7.1-1.091,12.019-4.205c8.409-5.662,7.318-8.201-1.626-3.649c-8.567,4.571-12.236,3.649-19.356-5.117
	c-3.649-4.572-15.152-15.698-25.743-24.821c-18.444-16.243-21.736-21.003-16.421-23.006c3.094-1.279,9.301,1.825,29.015,14.597
	c8.211,5.305,19.894,12.416,25.922,15.698c10.035,5.672,10.592,5.851,7.299,1.646c-9.479-11.493-35.422-39.983-43.235-47.46
	c-8.767-8.389-11.324-15.331-6.229-17.344c4.008-1.468,12.772,3.837,41.253,25.188c16.978,12.584,23.007,16.61,16.978,10.759
	c-9.479-8.935-33.398-27.19-44.723-33.954c-3.294-2.013-6.208-5.484-6.585-7.844c-1.092-6.941,8.229-4.938,29.393,6.396
	L373.697,141.337L373.697,141.337z M207.042,170.174c0,3.292-3.658,7.497-14.606,16.62c-8.042,6.763-14.597,12.406-14.597,12.584
	c0,0.188,1.823,0.188,3.837,0.188c3.104-0.188,4.75,1.646,7.309,8.935c4.571,13.14,4.383,16.977-1.279,18.445
	c-3.838,0.912-6.028-0.188-11.859-5.851c-8.042-7.844-8.936-13.506-2.925-17.889c3.471-2.38,2.925-2.38-2.926,0.178l-7.13,3.292
	l-5.295-6.406c-2.925-3.471-5.117-7.487-4.75-8.935c0.179-1.279,7.31-5.484,15.876-9.113c8.568-3.639,19.168-8.756,23.74-11.493
	C203.204,164.512,207.042,164.333,207.042,170.174z M146.969,191.524c2.19,3.292,10.581,12.771,18.435,20.813
	c14.24,14.964,16.62,19.535,11.315,21.548c-7.676,2.925-16.433-0.545-28.292-11.126c-4.018-3.659-7.676-6.218-8.042-5.672
	c-0.545,0.367-1.279,3.659-2.003,7.13c-0.734,4.938-0.557,5.662,1.091,2.925c1.101-1.646,2.747-3.104,3.837-3.104
	c3.471,0,19.902,12.039,19.902,14.597c0,2.38-54.401,34.688-61.146,36.155c-3.292,0.724-21.548-55.69-25.555-78.677
	c-0.912-5.851-0.545-6.763,2.38-6.763c4.205,0,9.847,8.201,21.182,30.662c4.75,9.302,8.756,16.798,8.936,16.798
	c0.366,0,0.366-2.191,0-5.117c-0.545-3.659,2.38-9.847,12.227-25.555c14.785-23.185,18.444-25.178,25.733-14.597V191.524z
	 M237.703,217.455c0.556,4.205-1.091,6.952-7.467,13.695c-8.756,9.113-23.928,30.84-30.482,43.989
	c-5.128,10.214-15.342,21.182-24.107,25.723c-5.483,2.747-6.763,4.76-7.844,10.581c-0.734,4.026-2.38,8.231-3.659,9.302
	c-1.279,1.081-3.837,7.309-5.662,13.873c-1.825,6.565-4.383,12.405-5.663,12.961c-1.279,0.545-11.503-1.279-22.648-4.026
	l-20.27-5.117l0.912-6.941c0.556-3.838,2.202-9.49,3.838-12.782c2.747-5.474,2.747-6.208-3.838-19.536
	c-4.383-9.113-6.029-14.597-4.928-16.064c2.736-4.016,66.261-42.71,69.92-42.71c2.013,0,6.028-2.003,9.123-4.562
	c8.379-7.13,42.521-24.295,47.639-24.107c3.659,0.357,4.75,1.458,5.117,5.663L237.703,217.455z M518.119,322.956
	c-0.753,9.302-1.666,17.532-2.38,18.266c-1.468,1.646-84.884,30.662-88.375,30.662c-2.735,0-20.069-30.116-18.979-33.409
	c0.732-2.191,99.501-31.94,106.779-32.129c4.204-0.179,4.204,0,2.916,16.61H518.119z M137.3,349.443
	c25.732,6.584,47.647,12.772,48.561,13.506c1.458,1.279-3.292,22.461-6.039,27.013c-0.912,1.458-14.418,0.178-49.65-4.572
	c-26.457-3.659-48.739-7.13-49.285-7.655c-0.734-0.734-0.367-10.036,0.724-21.003c1.646-17.155,2.38-19.536,5.305-19.536
	c2.014,0,24.633,5.484,50.386,12.227V349.443z M313.643,345.059c16.422,7.854,25.743,17.156,29.394,29.204
	c3.45,11.671,3.648,29.571,0.179,32.674c-1.646,1.458-2.201,4.75-1.646,8.935c2.003,14.417-8.052,30.839-26.457,43.455
	c-22.837,15.311-28.668,16.977-77.953,22.094c-38.158,3.828-43.811,5.652-50.574,14.598c-2.19,3.094-5.116,5.475-6.396,5.475
	c-3.282,0-2.925-8.371,0.555-14.42c5.484-9.48,14.053-13.148,45.992-20.447c34.876-8.053,47.648-12.217,63.713-21.002
	c11.126-6.209,16.967-11.859,16.967-16.799c0-1.469-3.095-0.18-8.559,3.49c-15.152,10.57-34.32,16.064-73.014,20.805
	c-22.461,2.916-39.806,8.031-50.197,14.775c-7.318,4.76-12.415,5.672-12.415,2.379c0-1.09,4.571-9.32,10.214-18.246
	c17.71-27.924,47.827-52.031,75.94-60.966c19.168-6.039,54.401-6.584,66.815-0.922c4.205,2.013,7.318,2.747,6.765,1.834
	c-2.023-3.292-22.094-9.49-33.776-10.402c-29.392-2.38-68.83,12.049-88.543,32.308c-6.039,6.217-15.698,12.782-18.623,12.782
	c-2.38,0,3.282-10.582,15.331-28.836c21.36-31.951,42.71-49.483,68.096-55.879C289.716,335.917,295.387,336.284,313.643,345.059z
	 M508.046,357.643c6.405,6.584,7.496,8.756,6.584,13.149c-0.557,2.916,0,6.396,1.109,7.675c1.271,1.458,1.627,5.117,0.714,9.113
	c-1.269,7.13-0.157,6.951-16.6,3.48c-3.471-0.734-1.646,0.912,5.652,4.929c10.412,5.662,10.947,6.396,11.503,13.694
	c0.556,7.467-4.383,21.36-16.778,48.017c-2.578,5.473-4.76,12.217-4.76,14.953c0,2.559-0.912,5.117-1.825,5.475
	c-2.736,0.932-6.782,17.354-10.035,39.982c-1.824,13.129-4.401,23.361-8.211,31.771c-3.808,8.369-5.851,16.777-6.763,25.725
	c-0.912,11.48-1.646,13.684-5.852,16.797c-7.497,5.475-65.171,29.928-68.819,29.193c-2.201-0.355-5.116-4.561-7.854-11.502
	c-6.228-15.51-6.743-24.256-2.38-33.043c2.003-3.826,4.76-10.748,6.029-15.15c1.27-4.205,3.471-8.191,4.76-8.729
	c1.271-0.555,4.006-3.668,6.207-7.139c2.004-3.471,4.74-6.229,6.029-6.229s3.113,5.674,4.384,14.617
	c1.269,7.854,3.471,17.154,4.938,20.447c2.559,6.029,2.559,5.85,2.736-7.676c0.377-18.82,2.201-28.104,5.672-28.836
	c2.36-0.377,3.114,1.445,3.828,9.102c0.556,5.316,2.201,12.615,3.649,16.066c2.577,6.027,2.757,5.672,1.845-12.021
	c-0.377-10.232,0.178-23.938,1.447-31.414c2.578-15.865,4.76-16.621,17.176-5.672c4.562,4.025,8.389,6.783,8.389,6.029
	c0-3.828-12.415-19.895-19.355-24.832c-11.683-8.369-10.571-10.57,5.295-10.57c7.14,0,16.063,0.734,19.556,1.824l6.386,1.646
	l-7.317-6.387c-4.025-3.49-10.929-7.695-15.509-9.32l-8.212-2.938l-4.204-17.531c-4.938-20.447-4.938-22.451-1.092-33.408
	c2.56-7.854,2.56-8.568-0.912-14.418c-4.76-7.655-4.76-12.039-0.355-18.623c1.824-2.925,2.915-6.763,2.538-8.746
	c-0.714-2.38,0.377-4.026,3.292-5.305c8.767-4.026,55.513-21.727,57.496-21.727c1.289-0.188,5.493,3.282,9.658,7.487
	L508.046,357.643z M376.434,369.345c8.211,2.38,12.416,5.117,19.912,12.594c5.117,5.295,10.948,12.772,13.13,16.977l3.649,7.308
	l-4.007-0.912c-2.201-0.545-8.053-3.104-13.149-5.663c-7.478-3.837-12.396-4.938-27.369-5.851l-18.266-0.912l-0.557-11.682
	c-0.355-8.221,0.198-12.227,1.846-13.139C355.45,365.696,365.308,366.241,376.434,369.345z M134.008,390.328
	c15.519,2.191,29.203,4.929,30.304,6.029c1.091,1.101,3.838,11.86,6.029,23.74c3.292,19.157,3.471,22.292,1.101,24.831
	c-5.672,6.207-24.642,52.557-24.642,60.055c0,1.445,3.479-2.938,7.844-9.877c4.205-7.121,9.302-12.932,11.126-13.309
	c3.114-0.734,3.292,0.18,2.38,7.496c-2.013,13.686,2.737,34.49,9.48,43.076c3.292,4.186,6.218,7.479,6.396,7.479
	c0.188,0,0.188-2.539-0.357-5.475c-0.922-6.207,2.916-7.496,7.12-2.559c1.279,1.646,6.764,5.494,12.049,8.389
	c11.313,6.387,12.404,9.838,11.126,32.486l-0.913,14.24l5.483-6.586c2.925-3.646,6.396-8.189,7.675-10.191
	c1.825-2.578,3.659-3.135,7.31-2.203c5.305,1.27,22.828,16.799,22.828,20.092c0,1.09-1.646,5.117-3.472,8.568
	c-2.925,5.295-3.471,8.943-2.558,16.6c0.912,8.943,0.545,10.412-3.838,14.795c-2.558,2.559-4.75,5.652-4.75,6.764
	c0,0.912-1.467,1.824-3.114,1.824c-5.662,0-40.697-10.035-40.697-11.504c0-0.912-1.278-4.383-2.925-7.854
	c-1.646-3.471-2.559-8.768-2.19-11.859c0.912-5.475,0-6.387-23.006-23.563c-13.14-9.658-28.658-20.824-34.51-24.633
	c-11.492-7.676-18.435-17.154-17.344-23.561c0.734-3.293,0.188-4.008-2.925-3.471c-2.191,0.555-6.208-0.18-9.113-1.289l-5.305-2.004
	l1.279-13.148c2.746-30.662,2.925-42.145,1.101-71.201c-1.279-20.427-2.925-32.118-4.571-34.677
	c-3.471-5.484-0.367-21.36,4.205-21.36c1.646,0,15.886,1.825,31.396,3.838v0.021H134.008z M383.733,398.37
	c11.503,3.471,31.972,15.876,35.798,21.905c5.652,8.389,3.114,12.235-4.938,7.874c-2.559-1.289-0.912,1.27,3.848,6.584
	c8.032,8.727,14.042,20.07,15.331,28.461c0.377,3.828-0.179,4.74-4.76,5.117c-3.114,0.377-12.396-1.646-20.805-4.385
	c-13.328-4.203-24.117-10.393-39.983-23.203c-1.289-0.912-2.38-1.27-2.38-0.715c0,0.715,6.208,6.387,13.685,12.951
	c11.86,10.035,15.511,12.037,26.102,14.598c9.479,2.199,37.048,6.584,41.608,6.584c0.356,0,0.715,1.092,0.715,2.381
	c0,3.271-48.729,5.85-58.766,3.111c-18.267-5.115-37.066-16.619-43.811-27.012c-2.183-3.293-3.293-8.408-3.293-14.975
	c0-11.125,2.022-15.707,6.028-14.063c2.201,0.734,2.381-0.555,1.666-6.94c-0.377-4.383-0.197-10.948,0.357-14.418l1.269-6.584
	h11.504c6.229,0,15.707,1.279,20.824,2.747V398.37z M347.955,461.35c9.479,13.506,48.015,38.336,59.875,38.336
	c2.757,0,6.405,1.646,8.211,3.828c2.915,3.135,3.112,4.58,1.289,9.5c-2.022,5.494-1.846,5.652,0.714,2.201
	c1.468-2.021,3.292-5.871,3.848-8.766c0.714-3.65,2.003-4.939,5.295-4.939c5.296,0,5.652,4.205,1.646,14.24
	c-4.204,9.658-9.837,14.975-15.887,14.975c-4.025,0-6.028,1.27-8.39,5.672c-5.672,10.393-13.863,18.604-23.185,23.006
	c-8.944,4.008-8.944,4.205-2.201,3.094c7.854-1.268,8.052-0.713,3.292,12.238c-11.306,29.568-34.132,44.346-71.378,46.547
	c-14.786,0.912-15.888,0.715-24.842-4.563c-6.941-4.045-10.947-8.031-14.964-15.15c-5.672-10.035-27.201-31.773-40.171-40.162
	c-4.205-2.736-9.124-8.191-11.315-12.236c-2.925-5.832-4.938-7.477-10.034-8.566c-7.31-1.271-12.951-7.656-18.99-20.807
	c-6.029-13.328-5.295-17.354,4.938-23.738c12.405-7.855,23.373-10.592,50.386-12.773c25.545-2.021,40.885-5.117,51.665-10.59
	c3.838-2.004,9.302-4.006,12.237-4.76c4.918-1.271,5.115-1.072,2.914,2.021c-1.288,1.824-4.58,5.117-7.13,7.299l-4.57,4.045
	l6.961-1.666c9.104-2.002,20.626-10.193,26.259-18.602c2.38-3.848,5.494-6.963,6.585-6.963c1.11,0.18,4.204,3.471,6.941,7.318
	L347.955,461.35L347.955,461.35z M268.009,602.995c2.925,4.76,9.479,11.146,15.151,14.975c10.947,7.318,10.581,8.391-4.393,10.393
	c-16.61,2.201-11.305,4.938,6.763,3.471c11.683-0.912,16.433-0.555,16.433,0.912c0,1.111-0.913,2.023-2.015,2.023
	c-4.016,0-32.129,14.598-36.512,18.979c-6.941,6.744-12.594,4.762-12.594-4.561c0-3.85-0.912-8.965-2.003-11.504
	c-1.834-3.826-1.469-5.492,2.19-10.57c2.925-4.025,4.383-8.768,4.571-14.24c0.179-8.389,3.283-18.266,5.663-18.266
	c0.912,0,3.837,3.848,6.763,8.389H268.009z M382.284,611.604c3.294,8.369,3.67,10.928,1.825,13.129
	c-1.447,1.824-1.825,5.475-1.091,10.59c1.091,7.121,0.714,8.191-3.471,10.393c-4.026,2.184-5.494,2.006-12.416-1.289
	c-4.204-2.002-13.148-5.65-19.893-7.854c-12.613-4.025-16.064-7.318-8.031-7.318c2.38,0,11.126,2.023,19.534,4.404
	c8.39,2.537,15.707,4.203,16.064,3.826c3.649-3.668-13.506-11.859-24.831-11.859c-6.228,0-5.116-3.113,2.182-5.494
	c3.649-1.27,10.035-6.207,14.975-11.859c4.74-5.295,9.302-9.123,9.856-8.369c0.557,0.535,2.915,5.832,5.295,11.662L382.284,611.604
	L382.284,611.604z M339.209,641.155c5.672,2.578,10.214,4.938,10.214,5.314c0,0.357-5.853,5.475-12.772,11.105l-12.951,10.592
	l-15.886-7.498c-8.756-4.203-18.256-8.031-21.182-8.746c-4.384-1.09-4.75-1.467-2.192-2.914c6.942-3.848,24.643-9.48,33.964-10.592
	c5.475-0.732,10.193-1.467,10.193-1.645c0.198,0,4.958,1.824,10.591,4.383H339.209L339.209,641.155z M299.036,495.483l-5.483,6.762
	l-19.168-2.182c-27.379-3.113-33.23-2.936-37.436,1.627l-3.471,4.025l6.396-1.092c10.77-1.645,47.827,3.85,51.854,7.676
	c4.75,4.74,6.396,26.279,2.38,30.842c-2.747,2.936-2.38,3.668,5.295,9.855c4.572,3.67,9.303,6.406,10.77,5.852
	c2.916-1.092,17.89-20.824,15.887-20.824c-0.754,0-4.76,3.293-8.568,7.316c-3.826,4.027-8.052,7.318-9.32,7.318
	c-4.74,0-7.12-6.227-7.12-18.086c0-8.014-1.102-14.24-3.292-18.803c-3.472-6.764-3.472-6.764,1.101-12.771
	c4.018-5.295,8.042-14.24,6.396-14.24c-0.367,0-3.104,3.113-6.219,6.764V495.483L299.036,495.483z M309.995,496.573
	c0.911,7.498,5.115,12.236,13.485,15.709c2.757,1.09,6.029,4.383,7.318,7.297c1.646,3.848,4.204,5.672,10.947,7.318
	c16.799,4.383,19.893,4.582,23.383,0.377c1.825-2.201,4.383-3.848,5.474-3.848c1.271,0,2.737-1.27,3.293-2.936
	c1.11-2.539,0.555-2.539-3.848,0.377c-7.497,4.938-30.84,4.938-34.489,0c-4.205-5.652-3.114-6.941,4.938-5.852
	c6.94,0.912,26.1-2.914,29.392-6.029c0.714-0.555-5.493-0.732-13.704-0.555c-8.191,0.377-20.626-0.18-27.369-1.447
	c-12.236-2.201-12.594-2.381-16.063-9.857l-3.473-7.496L309.995,496.573L309.995,496.573z M233.945,517.713
	c8.151-6.324,18.772-2.914,27.885-1.586c7.13-1.289,14.301-2.617,21.647-1.824c1.021,0.615,3.094,1.824,4.104,2.42
	c-4.868,0.516-9.728,1.27-14.597,1.785c-5.325,2.418-10.303,6.107-16.511,5.156c-2.281-1.428-4.512-2.936-6.565-4.641
	c-5.216-1.43-10.64-0.834-15.984-1.311H233.945L233.945,517.713z M319.594,561.784c6.129,0.197,12.455,0.039,17.671-3.629
	c0.536,1.963,1.448,3.748,2.697,5.375c-1.705,0.355-3.393,0.752-5.077,1.129c-9.539-3.709-17.948,4.781-27.311,5.316
	c-3.113-0.299-5.493-2.32-7.646-4.404c-3.709-0.158-7.616-0.613-10.969,1.369c-5.057,2.697-10.799,2.301-16.342,2.082
	c1.825-1.805,3.649-3.629,5.504-5.453c3.124-0.039,6.237-0.08,9.382-0.158c1.14-1.211,2.271-2.42,3.431-3.611
	c5.603-0.732,11.255,1.111,14.845,5.596C310.866,566.344,314.991,563.17,319.594,561.784z M304.214,576.479
	c4.153-0.1,8.24-1.012,12.246-1.924c5.554,0.596,10.889,3.254,15.054,6.963c-3.59-0.756-7.199-1.43-10.849-1.807
	c-9.48-4.205-18.375,3.293-26.903,6.625c-2.618,4.838-4.859,9.994-4.918,15.607c-1.161-1.25-2.291-2.479-3.451-3.709
	c-0.308-6.307,0.754-13.725,6.535-17.395c3.927-1.883,8.191-2.992,12.287-4.4L304.214,576.479L304.214,576.479z"/>
</svg>
