<svg xmlns="http://www.w3.org/2000/svg" viewBox="0 0 128 128" enable-background="new 0 0 128 128">
<path fill="#444444" d="M65.7,122.8c2.4-1.1,4.1-2.7,4.1-3.9c0-0.5,6.2-6.6,7-7c0.1,0,0.9,0.2,1.7,0.5L80,113l-2.7,1.7
	c-1.5,0.9-2.9,1.7-3.1,1.7L65.7,122.8z M77.6,116.1l2.6-1.3c5.3-2.7,19.7-7.6,25.1-8.6c2.4-0.4,1.9-0.8-0.7-0.5
	c-1.3,0.2-2.6,0.4-2.9,0.5c-1.1,0.4,0.9-1.4,3.2-2.9c1.3-0.8,2-1.5,1.7-1.5c-1.9,0-18.6,6.7-21.8,8.8c-1.2,0.8-1.3,0.7-1.3-0.9
	c0-1.4,0.1-1.5,2.6-2.9c2.2-1.2,15.8-7.3,16.2-7.3c0.1,0-0.3,0.8-0.9,1.8l-1.1,1.9l2.9-2.7c1.6-1.5,2.9-2.8,3-2.9
	c0-0.2-0.9,0-2.1,0.2c-1.2,0.3-2.2,0.4-2.3,0.2c-0.4-0.6,0.5-5,1.3-6.6c0.5-0.9,1.1-3.1,1.4-4.8c1.1-6.8,2.5-12.2,4.1-15.9
	c3.3-7.8,3.6-9,3.1-11.1c-0.3-1-0.4-2.4-0.2-3.1c0.1-0.6,0-1.6-0.2-2.1c-0.3-0.7-0.3-1.2,0-1.6c0.3-0.5,0.1-1-1.2-2.5
	c-0.9-1-1.6-2-1.5-2c0.1-0.1,0.8-0.4,1.5-0.7l1.4-0.6l0.4-5.3c0.2-2.9,0.3-5.3,0.3-5.3s-1.7,0.5-3.8,1.2c-2.1,0.6-4,1.2-4.3,1.2
	c-0.5,0-1-1-2.7-5.7c-1.1-2.9-1.3-3.9-1.1-5.8c0.2-2.7-0.7-8.8-1.9-12.3c-1.6-4.7-6.4-13.1-8-13.8c-1.4-0.7-2.3-0.5-2.8,0.4
	c-0.5,1-0.5,1.1,1.4,5.3l1.4,3.3L88,8.3c-5.4-4.2-10.6-7-13.5-7.4c-1.9-0.2-1.9-0.2-2.4,1c-0.3,0.7-0.8,1.3-1.2,1.4
	c-0.5,0.2-0.7,0.6-0.7,1.7c0,1.4,0.3,1.7,4,5.3c2.2,2.1,3.8,3.8,3.6,3.8c-0.2,0-1.7-0.9-3.3-2c-2.4-1.6-3.3-2-4.7-2.1
	c-3.3,0-3.2,2.2,0.2,4.6c1.2,0.9,3.5,2.9,5.1,4.6l3,3.1l-2.7,0.5c-4.3,0.8-6,1.3-6.4,2.2c-0.8,1.5-0.3,1.9,4.2,3.4
	c2.4,0.8,4.7,1.8,5.2,2.2c1.6,1.4,5.1,3.5,7.2,4.2c1.4,0.4,2.2,1,2.5,1.6c0.2,0.5,0.8,1.1,1.3,1.3c0.6,0.3,1.1,1,1.6,2.6
	c0.4,1.2,0.5,2.3,0.4,2.4c-0.1,0.1-1.7,0.7-3.5,1.2l-3.3,1l2.8,5c2.6,4.7,2.9,5,3.9,4.9c1.3-0.1,1.3-0.1,0.2,1.7l-0.9,1.4l0.9,1.6
	c0.6,1.1,0.8,2,0.6,2.5c-0.2,0.7-0.4,0.6-1.2-1c-1-2.2-3.8-5.8-5.4-7.2c-2.9-2.3-4.1-2.8-7.8-2.8l-3.5-0.1l-1.8-1.7
	c-1-1-2.8-2.2-4-2.9c-2.1-1-2.5-1.1-7.1-1.1h-4.8l-3.7,1.9c-4.7,2.4-9.6,7.3-12.7,12.4C39,61.4,38,62.8,38,62.6s-0.2-1.1-0.3-2
	c-0.3-1.6-0.3-1.6,0.9-1.7c1.1-0.1,1.2-0.2,2-3.6c0.5-1.9,1-3.9,1.1-4.3c0.2-0.8,0-0.9-3.3-1.7c-2.6-0.7-3.5-1-3.5-1.5
	c0-1.2,1.1-4.8,1.7-5.4c0.3-0.3,0.7-1,0.7-1.4c0.1-0.4,0.9-1.2,1.9-1.7c2.7-1.5,2.9-1.7,5.7-7.1c2.1-4,3.2-5.7,5.4-8.1
	c1.6-1.7,2.8-3.2,2.8-3.3c0-0.7-1.6-2.4-2.2-2.4c-1.2,0-0.3-0.7,5-4.1c6.9-4.4,7.1-4.6,6.5-5.1c-0.4-0.4-2.8,1-10,5.5
	c-5.2,3.3-9.6,6-9.7,6c-0.1,0-0.6-1.2-1-2.6l-0.8-2.5l2.7-2.5c2.8-2.7,3.5-3.7,2.7-4.6c-0.3-0.4-1-0.2-4,1.2c-2,1-5,2.2-6.8,2.8
	c-3,0.9-3.3,0.9-3.9,0.4c-1.6-1.5-2.7-0.6-6.7,5.7c-0.8,1.2-1.6,2.2-1.7,2.2c-0.2,0-1.2-1.5-2.2-3.4c-1-1.9-2.2-3.8-2.7-4.3
	c-1-1.1-2.1-1.1-2.4,0.1c-0.4,1.6,1.4,8.6,4.1,17.2c0.9,2.7,0.9,2.8,0.3,3.2c-0.6,0.3-0.7,0.5-0.3,1.6c0.3,0.9,0.6,1.1,1.1,0.9
	c0.6-0.2,0.9,0.3,1.8,2.3c1.1,2.5,1.1,2.5,0.5,4.8c-0.3,1.3-0.6,2.3-0.7,2.4c0,0-1-0.2-2.1-0.5c-3.5-0.9-3.3-1.2-3.8,4.5
	c-0.3,2.8-0.5,5.4-0.5,5.8c0,0.5,0.5,0.7,1.8,0.9l1.8,0.2l-0.3,2.3c-0.2,1.9-0.2,2.5,0.3,3c0.7,0.7,0.9,4.9,1,20.1v5.5l1.5,0.5
	c1.8,0.6,2.8,1.4,2.8,2.5c0,0.5,0.6,1.2,1.7,2c0.9,0.6,4.3,3.1,7.5,5.5c5.6,4.1,5.9,4.4,5.5,5.3c-0.3,0.8-0.3,1.1,0.7,2.1
	c0.9,1,1,1.1,0.4,1.2c-0.3,0.1-1.6-0.1-2.7-0.3c-2.6-0.6-11.5-1-11.5-0.5c0,0.2,1.9,1.3,4.1,2.4c2.3,1.1,3.8,1.7,3.4,1.4
	c-0.5-0.4-1.5-1.3-2.3-2l-1.6-1.3l2.3,0.3c4.2,0.5,17.6,4.2,18.5,5.1c0.5,0.5,0.3,0.6-2.1,0.3c-7.2-0.7-10.3-0.7-15.2-0.2
	c-2.9,0.3-5.6,0.6-5.9,0.8c-0.7,0.3,5.4,0.8,11.6,0.8c4.8,0,10.7,0.9,21.5,3.3l2.8,0.6l-0.7,1.4c-1,2.1-2.8,8.2-2.5,8.6L77.6,116.1z
	 M80.1,3.9c5.4,2.9,9,5.8,9,7.2c0,0.8,0.2,1,0.7,1c0.4,0,1,0.2,1.5,0.4c0.6,0.3,0.7,0.3,0.7-0.1c0-0.8-0.9-3.4-2.4-6.7
	c-1.2-2.9-1.2-4,0-4c1,0,1.5,0.7,3.8,4.7c2.4,4.1,3.9,7.4,4.8,10.8c1,3.3,1.4,9.2,0.8,10.9c-0.3,1-0.3,1.5,0.2,2.6
	c1.4,3.1,3.3,8,3.3,8.4S94.7,42,93.6,42c-0.2,0-0.5-0.4-0.7-0.9c-0.9-2.9-1.8-4.9-2.3-4.9c-0.3,0-0.8-0.5-1.2-1.2
	c-0.7-1.4-1.3-1.7-4.1-2.3c-1.4-0.3-3.3-1.2-5.6-2.8c-2.7-1.8-4-2.4-6-2.8c-1.4-0.2-2.8-0.6-3.2-0.8c-0.9-0.4-0.9-1.4,0-1.8
	c0.8-0.5,8.6-1.2,9.9-0.9c0.6,0.1,1.5-0.2,2.6-0.9c1.8-1.2,1.6-1.7-0.3-0.8c-1.8,1-2.6,0.8-4.1-1.1c-0.8-1-3.2-3.3-5.5-5.3
	c-3.9-3.5-4.6-4.5-3.5-4.9c0.7-0.3,2,0.4,6.2,3.1c1.7,1.1,4.2,2.6,5.5,3.3c2.1,1.2,2.3,1.2,1.6,0.3c-2-2.4-7.5-8.5-9.2-10.1
	c-1.9-1.8-2.4-3.3-1.3-3.7c0.9-0.3,2.7,0.8,8.8,5.4c3.6,2.7,4.9,3.5,3.6,2.3c-2-1.9-7.1-5.8-9.5-7.2c-0.7-0.4-1.3-1.2-1.4-1.7
	C73.6,1.1,75.6,1.5,80.1,3.9L80.1,3.9L80.1,3.9z M44.7,10c0,0.7-0.8,1.6-3.1,3.5c-1.7,1.4-3.1,2.6-3.1,2.7c0,0,0.4,0,0.8,0
	c0.7,0,1,0.3,1.6,1.9c1,2.8,0.9,3.6-0.3,3.9c-0.8,0.2-1.3,0-2.5-1.2c-1.7-1.7-1.9-2.9-0.6-3.8c0.7-0.5,0.6-0.5-0.6,0l-1.5,0.7
	l-1.1-1.4c-0.6-0.7-1.1-1.6-1-1.9c0-0.3,1.6-1.2,3.4-1.9c1.8-0.8,4.1-1.9,5-2.4C43.9,8.8,44.7,8.8,44.7,10z M31.9,14.6
	c0.5,0.7,2.2,2.7,3.9,4.4c3,3.2,3.5,4.1,2.4,4.6c-1.6,0.6-3.5-0.1-6-2.4c-0.9-0.8-1.6-1.3-1.7-1.2c-0.1,0.1-0.3,0.8-0.4,1.5
	c-0.2,1-0.1,1.2,0.2,0.6c0.2-0.3,0.6-0.7,0.8-0.7c0.7,0,4.2,2.6,4.2,3.1s-11.6,7.4-13,7.7c-0.7,0.2-4.6-11.8-5.4-16.7
	c-0.2-1.2-0.1-1.4,0.5-1.4c0.9,0,2.1,1.7,4.5,6.5c1,2,1.9,3.6,1.9,3.6c0.1,0,0.1-0.5,0-1.1c-0.1-0.8,0.5-2.1,2.6-5.4
	C29.6,12.8,30.4,12.3,31.9,14.6L31.9,14.6z M51.2,20.1c0.1,0.9-0.2,1.5-1.6,2.9c-1.9,1.9-5.1,6.5-6.5,9.3c-1.1,2.2-3.3,4.5-5.1,5.5
	c-1.2,0.6-1.4,1-1.7,2.2c-0.2,0.9-0.5,1.7-0.8,2c-0.3,0.2-0.8,1.6-1.2,2.9c-0.4,1.4-0.9,2.6-1.2,2.8c-0.3,0.1-2.4-0.3-4.8-0.9
	L24,45.7l0.2-1.5c0.1-0.8,0.5-2,0.8-2.7c0.6-1.2,0.6-1.3-0.8-4.1c-0.9-1.9-1.3-3.1-1-3.4c0.6-0.9,14.1-9.1,14.9-9.1
	c0.4,0,1.3-0.4,1.9-1c1.8-1.5,9-5.2,10.1-5.1C50.9,19,51.1,19.2,51.2,20.1L51.2,20.1z M110.8,42.5c-0.2,2-0.4,3.7-0.5,3.9
	c-0.3,0.3-18,6.5-18.8,6.5c-0.6,0-4.3-6.4-4-7.1c0.2-0.5,21.1-6.8,22.7-6.8C111,38.9,111,39,110.8,42.5L110.8,42.5z M29.9,48.1
	c5.5,1.4,10.1,2.7,10.3,2.9c0.3,0.3-0.7,4.8-1.3,5.7c-0.2,0.3-3.1,0-10.5-1c-5.6-0.8-10.4-1.5-10.5-1.6c-0.2-0.2-0.1-2.1,0.2-4.5
	c0.3-3.6,0.5-4.1,1.1-4.1C19.6,45.5,24.4,46.7,29.9,48.1L29.9,48.1L29.9,48.1z M67.3,47.2c3.5,1.7,5.5,3.6,6.2,6.2
	c0.7,2.5,0.8,6.3,0,6.9c-0.3,0.3-0.5,1-0.3,1.9c0.4,3.1-1.7,6.5-5.6,9.2c-4.9,3.3-6.1,3.6-16.6,4.7c-8.1,0.8-9.3,1.2-10.7,3.1
	c-0.5,0.7-1.1,1.2-1.4,1.2c-0.7,0-0.6-1.8,0.1-3.1c1.2-2,3-2.8,9.8-4.3c7.4-1.7,10.1-2.6,13.5-4.5c2.4-1.3,3.6-2.5,3.6-3.6
	c0-0.3-0.7,0-1.8,0.7c-3.2,2.2-7.3,3.4-15.5,4.4c-4.8,0.6-8.5,1.7-10.7,3.1c-1.6,1-2.6,1.2-2.6,0.5c0-0.2,1-2,2.2-3.9
	c3.8-5.9,10.2-11.1,16.1-12.9c4.1-1.3,11.6-1.4,14.2-0.2c0.9,0.4,1.6,0.6,1.4,0.4c-0.4-0.7-4.7-2-7.2-2.2
	c-6.2-0.5-14.6,2.6-18.8,6.9c-1.3,1.3-3.3,2.7-4,2.7c-0.5,0,0.7-2.2,3.3-6.1C47,51.5,51.6,47.8,57,46.4
	C62.2,45.3,63.4,45.3,67.3,47.2z M108.6,49.9c1.4,1.4,1.6,1.9,1.4,2.8c-0.1,0.6,0,1.4,0.2,1.6c0.3,0.3,0.3,1.1,0.2,1.9
	c-0.3,1.5,0,1.5-3.5,0.7c-0.7-0.2-0.4,0.2,1.2,1c2.2,1.2,2.3,1.4,2.4,2.9c0.1,1.6-0.9,4.5-3.6,10.2c-0.5,1.2-1,2.6-1,3.2
	c0,0.5-0.2,1.1-0.4,1.2c-0.6,0.2-1.4,3.7-2.1,8.5c-0.4,2.8-0.9,5-1.7,6.7c-0.8,1.8-1.2,3.6-1.4,5.5c-0.2,2.4-0.3,2.9-1.2,3.6
	c-1.6,1.2-13.8,6.4-14.6,6.2c-0.5-0.1-1.1-1-1.7-2.4c-1.3-3.3-1.4-5.2-0.5-7c0.4-0.8,1-2.3,1.3-3.2c0.3-0.9,0.7-1.7,1-1.9
	c0.3-0.1,0.9-0.8,1.3-1.5s1-1.3,1.3-1.3c0.3,0,0.7,1.2,0.9,3.1c0.3,1.7,0.7,3.6,1,4.3c0.5,1.3,0.5,1.2,0.6-1.6c0.1-4,0.5-6,1.2-6.1
	c0.5-0.1,0.7,0.3,0.8,1.9c0.1,1.1,0.5,2.7,0.8,3.4c0.5,1.3,0.6,1.2,0.4-2.6c-0.1-2.2,0-5.1,0.3-6.7c0.5-3.4,1-3.5,3.6-1.2
	c1,0.9,1.8,1.4,1.8,1.3c0-0.8-2.6-4.2-4.1-5.3c-2.5-1.8-2.2-2.2,1.1-2.2c1.5,0,3.4,0.2,4.2,0.4l1.4,0.3l-1.6-1.4
	c-0.9-0.7-2.3-1.6-3.3-2l-1.7-0.6l-0.9-3.7c-1-4.3-1-4.8-0.2-7.1c0.5-1.7,0.5-1.8-0.2-3.1c-1-1.6-1-2.6-0.1-4
	c0.4-0.6,0.6-1.4,0.5-1.9c-0.2-0.5,0.1-0.9,0.7-1.1c1.9-0.9,11.8-4.6,12.2-4.6C106.8,48.2,107.7,49,108.6,49.9L108.6,49.9z
	 M80.7,52.4c1.7,0.5,2.6,1.1,4.2,2.7c1.1,1.1,2.3,2.7,2.8,3.6l0.8,1.6l-0.9-0.2c-0.5-0.1-1.7-0.7-2.8-1.2c-1.6-0.8-2.6-1-5.8-1.2
	l-3.9-0.2L75,55c-0.1-1.7,0-2.6,0.4-2.8C76.2,51.6,78.3,51.7,80.7,52.4z M29.2,56.8c3.3,0.5,6.2,1,6.4,1.3c0.2,0.2,0.8,2.5,1.3,5
	c0.7,4.1,0.7,4.7,0.2,5.3c-1.2,1.3-5.2,11.2-5.2,12.8c0,0.3,0.7-0.6,1.7-2.1c0.9-1.5,2-2.7,2.4-2.8c0.7-0.2,0.7,0,0.5,1.6
	c-0.4,2.9,0.6,7.3,2,9.1c0.7,0.9,1.3,1.6,1.4,1.6c0,0,0-0.5-0.1-1.2c-0.2-1.3,0.6-1.6,1.5-0.5c0.3,0.3,1.4,1.2,2.6,1.8
	c2.4,1.4,2.6,2.1,2.4,6.9l-0.2,3l1.2-1.4c0.6-0.8,1.4-1.7,1.6-2.2c0.4-0.5,0.8-0.7,1.6-0.5c1.1,0.3,4.8,3.6,4.8,4.3
	c0,0.2-0.3,1.1-0.7,1.8c-0.6,1.1-0.7,1.9-0.5,3.5c0.2,1.9,0.1,2.2-0.8,3.1c-0.5,0.5-1,1.2-1,1.4S52,109,51.6,109
	c-1.2,0-8.6-2.1-8.6-2.4c0-0.2-0.3-0.9-0.6-1.7c-0.3-0.8-0.5-1.9-0.5-2.5c0.2-1.2,0-1.4-4.9-5c-2.8-2-6.1-4.4-7.3-5.2
	c-2.4-1.6-3.9-3.6-3.7-5c0.2-0.7,0-0.9-0.6-0.7c-0.5,0.1-1.3,0-1.9-0.3l-1.1-0.4l0.3-2.8c0.6-6.5,0.6-9,0.2-15.1
	c-0.3-4.3-0.6-6.8-1-7.4c-0.7-1.2-0.1-4.5,0.9-4.5C22.8,56,25.9,56.4,29.2,56.8L29.2,56.8L29.2,56.8L29.2,56.8z M82.2,58.5
	c2.4,0.7,6.8,3.4,7.6,4.7c1.2,1.8,0.7,2.6-1,1.7c-0.5-0.3-0.2,0.3,0.8,1.4c1.7,1.9,3,4.3,3.3,6c0.1,0.8,0,1-1,1.1
	c-0.7,0.1-2.6-0.3-4.4-0.9c-2.8-0.9-5.1-2.2-8.5-4.9c-0.3-0.2-0.5-0.3-0.5-0.2c0,0.2,1.3,1.4,2.9,2.8c2.5,2.1,3.3,2.6,5.5,3.1
	c2,0.5,7.9,1.4,8.8,1.4c0.1,0,0.2,0.2,0.2,0.5c0,0.7-10.4,1.2-12.5,0.7c-3.9-1.1-7.9-3.5-9.3-5.7c-0.5-0.7-0.7-1.8-0.7-3.2
	c0-2.4,0.4-3.3,1.3-3c0.5,0.2,0.5-0.1,0.4-1.5c-0.1-0.9,0-2.3,0.1-3.1l0.3-1.4h2.4C79.1,57.9,81.1,58.2,82.2,58.5L82.2,58.5
	L82.2,58.5z M74.6,71.9c2,2.9,10.2,8.1,12.7,8.1c0.6,0,1.4,0.4,1.7,0.8c0.6,0.7,0.7,1,0.3,2c-0.4,1.2-0.4,1.2,0.2,0.5
	c0.3-0.4,0.7-1.2,0.8-1.9c0.2-0.8,0.4-1,1.1-1c1.1,0,1.2,0.9,0.3,3c-0.9,2.1-2.1,3.2-3.4,3.2c-0.9,0-1.3,0.3-1.8,1.2
	c-1.2,2.2-2.9,4-4.9,4.9c-1.9,0.9-1.9,0.9-0.5,0.7c1.7-0.3,1.7-0.1,0.7,2.6c-2.4,6.3-7.3,9.4-15.2,9.9c-3.1,0.2-3.4,0.2-5.3-1
	c-1.5-0.9-2.3-1.7-3.2-3.2c-1.2-2.1-5.8-6.8-8.5-8.5c-0.9-0.6-1.9-1.7-2.4-2.6c-0.6-1.2-1-1.6-2.1-1.8c-1.6-0.3-2.8-1.6-4-4.4
	c-1.3-2.8-1.1-3.7,1-5c2.6-1.7,5-2.2,10.7-2.7c5.4-0.4,8.7-1.1,11-2.3c0.8-0.4,2-0.9,2.6-1c1-0.3,1.1-0.2,0.6,0.4
	c-0.3,0.4-1,1.1-1.5,1.6l-1,0.9l1.5-0.4c1.9-0.4,4.4-2.2,5.6-4c0.5-0.8,1.2-1.5,1.4-1.5C73.4,70.4,74,71.1,74.6,71.9L74.6,71.9
	L74.6,71.9z M57.6,102c0.6,1,2,2.4,3.2,3.2c2.3,1.6,2.2,1.8-0.9,2.2c-3.5,0.5-2.4,1,1.4,0.7c2.5-0.2,3.5-0.1,3.5,0.2
	c0,0.2-0.2,0.4-0.4,0.4c-0.9,0-6.8,3.1-7.8,4c-1.5,1.4-2.7,1-2.7-1c0-0.8-0.2-1.9-0.4-2.4c-0.4-0.8-0.3-1.2,0.5-2.2
	c0.6-0.9,0.9-1.9,1-3c0-1.8,0.7-3.9,1.2-3.9C56.4,100.2,57,101,57.6,102L57.6,102L57.6,102z M81.9,103.8c0.7,1.8,0.8,2.3,0.4,2.8
	c-0.3,0.4-0.4,1.2-0.2,2.3c0.2,1.5,0.2,1.7-0.7,2.2s-1.2,0.4-2.6-0.3c-0.9-0.4-2.8-1.2-4.2-1.7c-2.7-0.9-3.4-1.6-1.7-1.6
	c0.5,0,2.4,0.4,4.2,0.9c1.8,0.5,3.3,0.9,3.4,0.8c0.8-0.8-2.9-2.5-5.3-2.5c-1.3,0-1.1-0.7,0.5-1.2c0.8-0.3,2.1-1.3,3.2-2.5
	c1-1.1,2-1.9,2.1-1.8C80.9,101.4,81.4,102.6,81.9,103.8L81.9,103.8L81.9,103.8z M72.7,110.1c1.2,0.5,2.2,1,2.2,1.1
	c0,0.1-1.2,1.2-2.7,2.4l-2.8,2.2l-3.4-1.6c-1.9-0.9-3.9-1.7-4.5-1.9c-0.9-0.2-1-0.3-0.5-0.6c1.5-0.8,5.2-2,7.2-2.2
	c1.2-0.2,2.2-0.3,2.2-0.3C70.5,109.2,71.5,109.5,72.7,110.1L72.7,110.1L72.7,110.1z M64.2,79.1L63,80.5L58.9,80
	c-5.8-0.7-7.1-0.6-8,0.3l-0.7,0.9l1.4-0.2c2.3-0.3,10.2,0.8,11,1.6c1,1,1.4,5.6,0.5,6.5c-0.6,0.6-0.5,0.8,1.1,2.1
	c1,0.8,2,1.4,2.3,1.2c0.6-0.2,3.8-4.4,3.4-4.4c-0.2,0-1,0.7-1.8,1.6c-0.8,0.9-1.7,1.6-2,1.6c-1,0-1.5-1.3-1.5-3.8c0-1.7-0.2-3-0.7-4
	c-0.7-1.4-0.7-1.4,0.2-2.7c0.9-1.1,1.7-3,1.4-3C65.5,77.7,64.9,78.4,64.2,79.1L64.2,79.1L64.2,79.1z M66.5,79.4
	c0.2,1.6,1.1,2.6,2.9,3.3c0.6,0.2,1.3,0.9,1.6,1.6c0.3,0.8,0.9,1.2,2.3,1.6c3.6,0.9,4.2,1,5,0.1c0.4-0.5,0.9-0.8,1.2-0.8
	c0.3,0,0.6-0.3,0.7-0.6c0.2-0.5,0.1-0.5-0.8,0.1c-1.6,1-6.6,1-7.3,0c-0.9-1.2-0.7-1.5,1-1.2c1.5,0.2,5.5-0.6,6.2-1.3
	c0.2-0.1-1.2-0.2-2.9-0.1s-4.4,0-5.8-0.3c-2.6-0.5-2.7-0.5-3.4-2.1l-0.7-1.6V79.4L66.5,79.4z M50.4,83.9c1.7-1.3,4-0.6,5.9-0.3
	c1.5-0.3,3-0.6,4.6-0.4c0.2,0.1,0.7,0.4,0.9,0.5c-1,0.1-2.1,0.3-3.1,0.4c-1.1,0.5-2.2,1.3-3.5,1.1c-0.5-0.3-1-0.6-1.4-1
	C52.7,83.8,51.5,84,50.4,83.9L50.4,83.9L50.4,83.9z M68.6,93.2c1.3,0,2.6,0,3.8-0.8c0.1,0.4,0.3,0.8,0.6,1.1
	c-0.4,0.1-0.7,0.2-1.1,0.2c-2-0.8-3.8,1-5.8,1.1c-0.7-0.1-1.2-0.5-1.6-0.9c-0.8,0-1.6-0.1-2.3,0.3c-1.1,0.6-2.3,0.5-3.5,0.4
	c0.4-0.4,0.8-0.8,1.2-1.2c0.7,0,1.3,0,2,0c0.2-0.3,0.5-0.5,0.7-0.8c1.2-0.2,2.4,0.2,3.2,1.2C66.7,94.2,67.6,93.5,68.6,93.2z
	 M65.3,96.3c0.9,0,1.8-0.2,2.6-0.4c1.2,0.1,2.3,0.7,3.2,1.5c-0.8-0.2-1.5-0.3-2.3-0.4c-2-0.9-3.9,0.7-5.7,1.4c-0.6,1-1,2.1-1,3.3
	c-0.2-0.3-0.5-0.5-0.7-0.8c-0.1-1.3,0.2-2.9,1.4-3.7C63.5,96.9,64.4,96.6,65.3,96.3L65.3,96.3L65.3,96.3z"/>
</svg>
