<svg xmlns="http://www.w3.org/2000/svg" viewBox="0 0 128 128" enable-background="new 0 0 128 128">
<path fill="#444444" d="M63.912,0.914c-17.281,0-32.494,6.398-44.244,18.322C7.569,31.509,1,47.408,1,64.005
	c0,16.765,6.395,32.318,18.493,44.419c12.103,12.1,27.83,18.662,44.419,18.662c16.588,0,32.668-6.568,45.115-18.836
	C120.773,96.67,127,81.289,127,64.005c0-17.11-6.215-32.668-18.146-44.597C96.748,7.313,81.191,0.914,63.912,0.914z M64.084,12.322
	c14.168,0,26.791,5.357,36.643,15.209c9.678,9.682,14.861,22.473,14.861,36.474c0,14.173-5.012,26.611-14.688,36.126
	c-10.195,10.021-23.332,15.381-36.816,15.381c-13.656,0-26.447-5.359-36.3-15.207C17.932,90.449,12.4,77.488,12.4,64.005
	c0-13.656,5.531-26.618,15.384-36.644C37.467,17.51,49.912,12.322,64.084,12.322z M63.274,53.523
	c-3.565-6.496-9.644-9.085-16.701-9.085c-10.272,0-18.448,7.271-18.448,19.565c0,12.507,7.686,19.563,18.799,19.563
	c7.131,0,13.209-3.916,16.563-9.85l-7.826-3.98c-1.748,4.191-4.402,5.445-7.758,5.445c-5.798,0-8.457-4.816-8.457-11.179
	c0-6.359,2.236-11.188,8.457-11.188c1.676,0,5.03,0.911,6.984,5.104l8.389-4.403L63.274,53.523L63.274,53.523z M99.666,53.523
	c-3.568-6.496-9.645-9.085-16.699-9.085c-10.277,0-18.449,7.271-18.449,19.565c0,12.507,7.684,19.563,18.803,19.563
	c7.127,0,13.201-3.916,16.557-9.85l-7.824-3.98c-1.748,4.191-4.404,5.445-7.756,5.445c-5.803,0-8.461-4.816-8.461-11.179
	c0-6.359,2.24-11.188,8.461-11.188c1.676,0,5.033,0.911,6.99,5.104l8.385-4.403L99.666,53.523z"/>
</svg>
