<?xml version="1.0" encoding="utf-8"?>
<!-- Generator: Adobe Illustrator 15.0.0, SVG Export Plug-In . SVG Version: 6.00 Build 0)  -->
<!DOCTYPE svg PUBLIC "-//W3C//DTD SVG 1.1//EN" "http://www.w3.org/Graphics/SVG/1.1/DTD/svg11.dtd">
<svg version="1.1" id="Calque_1" xmlns="http://www.w3.org/2000/svg" xmlns:xlink="http://www.w3.org/1999/xlink" x="0px" y="0px"
	 width="595.279px" height="841.89px" viewBox="0 0 595.279 841.89" enable-background="new 0 0 595.279 841.89"
	 xml:space="preserve">
<path fill="#444444" d="M296.259,147.452c-74.726,0-140.504,27.671-191.311,79.228c-52.307,53.068-80.717,121.814-80.717,193.573
	c0,72.486,27.648,139.743,79.966,192.061c52.33,52.318,120.337,80.693,192.061,80.693c71.723,0,141.254-28.398,195.074-81.444
	c50.794-50.066,77.716-116.572,77.716-191.31c0-73.986-26.875-141.254-78.466-192.834
	C438.24,175.124,370.984,147.452,296.259,147.452z M297.009,196.78c61.265,0,115.834,23.169,158.445,65.768
	c41.836,41.859,64.254,97.167,64.254,157.705c0,61.277-21.668,115.073-63.504,156.205c-44.087,43.337-100.885,66.506-159.195,66.506
	c-59.048,0-114.357-23.169-156.955-65.755c-42.598-42.61-66.518-98.657-66.518-156.956c0-59.048,23.92-115.095,66.518-158.444
	C181.913,219.211,235.72,196.78,297.009,196.78z M293.503,374.935c-15.418-28.094-41.695-39.28-72.216-39.28
	c-44.416,0-79.768,31.436-79.768,84.598c0,54.078,33.229,84.586,81.28,84.586c30.838,0,57.114-16.932,71.618-42.586l-33.839-17.213
	c-7.563,18.127-19.042,23.544-33.546,23.544c-25.069,0-36.571-20.823-36.571-48.332c0-27.496,9.673-48.367,36.571-48.367
	c7.247,0,21.75,3.939,30.205,22.067l36.266-19.042V374.935z M450.857,374.935c-15.431-28.094-41.695-39.28-72.204-39.28
	c-44.439,0-79.779,31.436-79.779,84.598c0,54.078,33.229,84.586,81.303,84.586c30.814,0,57.079-16.932,71.595-42.586l-33.839-17.213
	c-7.551,18.127-19.042,23.544-33.534,23.544c-25.093,0-36.583-20.823-36.583-48.332c0-27.496,9.685-48.367,36.583-48.367
	c7.246,0,21.762,3.939,30.228,22.067l36.255-19.042L450.857,374.935z"/>
</svg>
