<svg xmlns="http://www.w3.org/2000/svg" viewBox="0 0 128 128">
<path fill="#444444" d="M52.6,10.9c-3,0.6-8.8,2.7-12.9,4.8c-6.2,3-8.5,4.7-14.1,10.3c-5.6,5.6-7.3,8-10.3,14.1
	c-8,16.3-8,31.9,0,48.3c3,6.2,4.6,8.5,10.3,14.1c5.7,5.7,7.9,7.3,14.1,10.3c9.5,4.5,14.1,5.6,24.2,5.6c10,0,14.7-1.1,24.2-5.6
	c6.2-3,8.3-4.6,14.1-10.3c5.7-5.8,7.3-8,10.3-14.1c3.7-7.9,4.8-11.5,5.7-19.3l0.5-4.8h-15.4l-1,6c-4.9,31.3-43,43.8-65.6,21.6
	C18.4,74,22.4,43.6,44.8,30.4c4.2-2.5,12.7-5.1,16.6-5.1H64V9.6l-2.9,0.1C59.4,9.6,55.6,10.3,52.6,10.9L52.6,10.9z M55.4,32
	c-16.5,4.4-27.3,20.9-24.5,37.4c3.2,18.3,20.3,30.9,38.1,27.8c18.2-3.1,30.9-20.3,27.8-38C93.4,39.4,74.4,26.8,55.4,32L55.4,32z"/>
</svg>
