<?xml version="1.0" encoding="utf-8"?>
<!-- Generator: Adobe Illustrator 15.0.0, SVG Export Plug-In . SVG Version: 6.00 Build 0)  -->
<!DOCTYPE svg PUBLIC "-//W3C//DTD SVG 1.1//EN" "http://www.w3.org/Graphics/SVG/1.1/DTD/svg11.dtd">
<svg version="1.1" id="Calque_1" xmlns="http://www.w3.org/2000/svg" xmlns:xlink="http://www.w3.org/1999/xlink" x="0px" y="0px"
	 width="595.279px" height="841.89px" viewBox="0 0 595.279 841.89" enable-background="new 0 0 595.279 841.89"
	 xml:space="preserve">
<path fill="#444444" d="M281.958,128.959c-21.283,6.926-35.291,23.282-38.844,45.167c-1.24,7.396,0.145,22.957,7.721,91.417
	c5.083,45.335,8.949,83.396,8.78,84.479c-0.301,1.084-32.388-21.583-72.146-50.719c-39.325-28.834-75.097-54.261-79.409-56.585
	c-10.479-5.396-29.136-6.456-41.638-2.469c-18.356,5.697-33.917,21.295-39.614,39.47c-5.083,16.802-2.938,31.75,7.083,46.865
	c9.719,14.514,16.175,18.031,103.281,56.742c44.721,19.729,81.251,36.531,81.071,37.29c0,0.771-35.001,16.501-77.542,34.856
	c-42.553,18.356-80.938,35.459-85.25,38.085c-10.334,6.166-21.439,18.355-26.522,29.123c-3.553,7.42-4.167,10.816-4.167,21.896
	c0,11.419,0.614,14.333,4.938,23.438c6.167,12.937,14.947,22.645,26.221,28.667c18.03,9.538,34.82,9.394,54.405-0.482
	c5.552-2.794,41.325-27.896,79.409-55.982c50.25-36.832,69.532-50.249,69.834-48.419c0.145,1.397-3.698,39.795-8.781,85.106
	c-9.864,89.417-10.021,92.501-2.939,107.629c4.637,9.708,14.947,19.729,25.583,24.667c7.721,3.686,10.804,4.168,24.197,4.168
	c13.731,0,16.357-0.482,24.185-4.313c16.525-8.166,27.293-22.523,30.689-41.313c1.566-8.961,0.771-18.212-7.709-93.754
	c-5.227-46.106-9.25-84.021-8.961-84.311c0.289-0.338,28.835,20.331,63.667,45.938c84.625,62.27,88.334,64.605,103.896,67.545
	c31.316,5.853,65.04-21.126,67.545-53.984c0.94-13.705-1.71-24.04-9.104-35.458c-10.189-15.706-16.044-18.981-103.92-56.897
	c-44.082-18.958-80.794-34.99-81.421-35.604c-0.746-0.626,33.629-16.657,76.339-35.483c93.416-41.313,90.646-40.084,100.98-49.623
	c10.96-10.479,16.187-21.439,17.126-35.772c1.688-27.449-15.705-53.032-41.168-60.427c-12.501-3.698-31.146-2.325-42.083,2.927
	c-4.48,2.324-40.565,27.75-79.687,56.596c-39.336,28.834-71.832,52.261-72.17,51.948c-0.313-0.325,3.71-38.711,8.961-85.251
	c10.19-92.188,10.335-94.211,2.603-109.772c-4.626-9.72-15.128-19.729-25.27-24.523c-10.623-4.782-30.219-6.311-40.24-2.927
	L281.958,128.959z"/>
</svg>
