<?xml version="1.0" encoding="utf-8"?>
<!-- Generator: Adobe Illustrator 15.0.0, SVG Export Plug-In . SVG Version: 6.00 Build 0)  -->
<!DOCTYPE svg PUBLIC "-//W3C//DTD SVG 1.1//EN" "http://www.w3.org/Graphics/SVG/1.1/DTD/svg11.dtd">
<svg version="1.1" id="Calque_1" xmlns="http://www.w3.org/2000/svg" xmlns:xlink="http://www.w3.org/1999/xlink" x="0px" y="0px"
	 width="595.279px" height="595.275px" viewBox="0 123.307 595.279 595.275" enable-background="new 0 123.307 595.279 595.275"
	 xml:space="preserve">
<g>
	<path fill="#019BC6" d="M580.398,365.603c-19.997-11.626-46.506-13.021-68.829-6.511c-2.79-24.184-18.603-45.111-37.205-59.993
		l-7.44-6.046l-6.512,7.441c-12.557,14.417-16.276,38.6-14.416,57.203c1.395,13.487,5.58,27.439,13.951,38.601
		c-6.511,3.72-13.486,8.836-19.997,11.161c-13.022,4.651-27.439,9.301-41.391,9.301H367.4v-65.574h-60.458V234.92h-69.76v55.808
		H120.916v60.458H60.458v65.109H8.371l-0.931,6.977c-2.325,29.764,1.396,58.598,13.952,86.035l5.116,10.232l0.465,0.93
		c36.739,62.318,100.918,88.361,171.143,88.361c135.798,0,247.878-60.922,299.035-188.815c34.415,1.86,69.76-8.371,86.502-41.39
		l4.186-8.372L580.398,365.603L580.398,365.603z M130.218,304.679h46.506v51.157h-46.506V304.679z M191.141,510.238
		c0,7.906-6.511,14.416-14.417,14.416s-14.417-6.51-14.417-14.416s6.511-14.418,14.417-14.418
		C184.63,496.285,191.141,502.332,191.141,510.238z M130.218,365.138h46.506v51.157h-46.506V365.138L130.218,365.138z
		 M69.759,365.138h51.157v51.157H69.759V365.138z M198.581,598.599c-73.479-0.465-113.01-25.113-145.564-57.668
		c9.767,0.465,19.067,0.93,27.439,0.93c7.44,0,14.882,0,21.857-0.465c18.138-0.93,33.949-3.256,46.972-6.977
		c10.696,24.648,30.229,47.438,65.108,64.18H198.581z M237.182,416.294h-51.157v-51.157h51.157V416.294z M237.182,355.836h-51.157
		v-51.157h51.157V355.836z M297.64,416.294h-51.156v-51.157h51.156V416.294z M297.64,355.836h-51.156v-51.157h51.156V355.836z
		 M297.64,295.378h-51.156v-51.157h51.156V295.378z M358.098,416.294h-51.156v-51.157h51.156V416.294z M180.445,500.935
		c-0.931-0.465-2.325-0.93-3.721-0.93c-5.581,0-10.231,4.65-10.231,10.232c0,5.58,4.65,10.23,10.231,10.23s10.231-4.65,10.231-10.23
		c0-1.396-0.465-2.791-0.931-3.721c-0.93,1.395-1.859,2.324-3.72,2.324c-2.325,0-4.186-1.859-4.186-4.186
		C178.584,502.796,179.514,501.402,180.445,500.935L180.445,500.935z"/>
</g>
</svg>
