<?xml version="1.0" encoding="utf-8"?>
<!-- Generator: Adobe Illustrator 15.0.0, SVG Export Plug-In . SVG Version: 6.00 Build 0)  -->
<!DOCTYPE svg PUBLIC "-//W3C//DTD SVG 1.1//EN" "http://www.w3.org/Graphics/SVG/1.1/DTD/svg11.dtd">
<svg version="1.1" id="Calque_1" xmlns="http://www.w3.org/2000/svg" xmlns:xlink="http://www.w3.org/1999/xlink" x="0px" y="0px"
	 width="595.279px" height="537px" viewBox="0 150.445 595.279 537" enable-background="new 0 150.445 595.279 537"
	 xml:space="preserve">
<path fill="#35A4DB" d="M17.935,449.585l163.96,107.023l114.769-95.711L131.333,358.865L17.935,449.585z M181.895,161.145
	L17.935,268.072l113.374,90.769L296.64,256.782L181.895,161.145z M575.345,268.072l-163.96-106.927L296.64,256.806l165.295,102.059
	L575.345,268.072z M296.64,460.9l114.745,95.709l163.96-107.023L461.983,358.84L296.64,460.9z M296.992,481.49l-115.098,95.441
	l-49.251-32.172v36.082l164.323,98.477l164.313-98.477v-36.082l-49.264,32.172L296.992,481.49z"/>
</svg>
