<svg xmlns="http://www.w3.org/2000/svg" viewBox="0 0 128 128">
<path fill="#BA0000" d="M24.355,13.757c0.261,5.821,10.105,5.751,10.402,0c2.094,0,4.188,0,6.28,0c0.322,5.686,10.14,5.881,10.402,0
	c2.16,0,4.318,0,6.477,0c0.842,5.711,11.165,5.852,11.972,0c2.226,0,4.449,0,6.673,0c0.277,5.73,10.171,5.85,10.402,0
	c2.094,0,4.187,0,6.28,0c0.297,5.751,10.141,5.821,10.4,0c3.533,0,7.066,0,10.6,0c0,3.533,0,7.065,0,10.598
	c-5.817,0.24-5.77,10.136,0,10.402c0,2.094,0,4.188,0,6.28c-5.674,0.31-5.898,10.158,0,10.402c0,2.159,0,4.317,0,6.477
	c-5.901,0.911-5.641,11.173,0,12.168c0,2.158,0,4.318,0,6.477c-5.771,0.193-5.873,10.239,0,10.402c0,2.094,0,4.187,0,6.28
	c-5.807,0.219-5.819,10.191,0,10.4c0,3.533,0,7.066,0,10.6c-3.533,0-7.065,0-10.6,0c-0.209-5.819-10.183-5.807-10.4,0
	c-2.094,0-4.188,0-6.28,0c-0.149-5.879-10.221-5.769-10.402,0c-2.158,0-4.316,0-6.477,0c-0.96-5.672-11.271-5.895-12.168,0
	c-2.159,0-4.317,0-6.477,0c-0.189-5.92-10.163-5.711-10.402,0c-2.093,0-4.187,0-6.28,0c-0.219-5.807-10.193-5.819-10.402,0
	c-3.532,0-7.064,0-10.598,0c0-3.533,0-7.065,0-10.6c5.819-0.209,5.806-10.183,0-10.4c0-2.094,0-4.188,0-6.28
	c5.872-0.163,5.771-10.209,0-10.402c0-2.158,0-4.316,0-6.477c5.639-0.995,5.9-11.257,0-12.168c0-2.159,0-4.317,0-6.476
	c5.898-0.245,5.674-10.093,0-10.403c0-2.093,0-4.188,0-6.28c5.768-0.267,5.818-10.162,0-10.402c0-3.533,0-7.065,0-10.598
	C17.29,13.757,20.822,13.757,24.355,13.757z M27.888,92.065c4.514,0,9.028,0,13.542,0c1.806-8.662,3.294-17.642,5.103-26.299
	c10.22,0.146,19.925-0.226,30.028-0.196c-8.424,8.781-17.363,17.048-25.514,26.103c1.622,2.499,3.349,4.895,4.906,7.458
	c5.446-3.944,13.674,0.133,21.196,0c5.775-0.103,10.278-1.308,14.917-3.14c0.155-3.508,0.414-6.912,0.784-10.207
	c-5.354,3.074-14.611,2.658-22.767,2.355c6.127-6.359,13.408-13.407,20.02-20.021c1.631-1.629,6.223-4.92,6.672-6.867
	c0.401-1.738-0.629-4.876-0.393-6.477c-15.712,0.011-31.446,0.045-46.71-0.393c0.702-3.943,1.201-8.089,2.158-11.776
	c9.879,0,19.758,0,29.637,0c0.603-3.978,1.157-8.001,1.569-12.169c-14.075,0.141-27.658-0.211-41.607-0.195
	C36.599,50.534,32.433,71.488,27.888,92.065z"/>
</svg>
