<svg xmlns="http://www.w3.org/2000/svg" viewBox="0 0 128 128">
<path fill="#128379" d="M118.65,36.107c-0.482-1.251-1.925-1.828-3.08-1.347c-0.865,0.385-1.441,1.251-1.441,2.117
	c0,0.289,0,0.577,0.191,0.77c2.213,5.869,3.463,12.218,3.463,18.954c0,27.228-20.301,49.838-46.664,53.206V84.694
	c1.638-0.289,3.176-0.771,4.717-1.25v21.069c21.455-5.194,37.521-24.631,37.521-47.914c0-18.57-10.294-34.83-25.496-43.201
	c-1.154-0.673-2.599-0.192-3.175,1.059c-0.192,0.288-0.192,0.673-0.192,1.058c0,0.866,0.48,1.636,1.154,2.02
	c13.758,7.602,23.092,22.322,23.092,39.16c0,18.954-11.738,35.117-28.384,41.659V79.69c2.888-0.865,5.003-3.56,5.003-6.83
	c0-2.693-1.347-4.906-3.56-6.158c1.636-16.164,9.044-11.833,9.044-17.03V46.69c0-7.698-17.799-32.809-26.17-33.387h-1.54
	c-8.371,0.578-26.17,25.689-26.17,33.387v2.982c0,5.1,7.312,0.866,9.044,17.03c-2.116,1.252-3.464,3.561-3.464,6.158
	c0,3.176,2.116,5.868,5.003,6.83v18.665C30.998,91.813,19.164,75.65,19.164,56.697c0-16.838,9.333-31.558,23.092-39.16
	c1.058-0.577,1.539-1.924,0.962-3.078c-0.289-0.867-1.155-1.348-2.021-1.348c-0.385,0-0.771,0.096-1.154,0.289
	c-15.202,8.37-25.497,24.631-25.497,43.2c0,23.283,16.067,42.719,37.716,48.01V83.54c1.54,0.48,3.078,0.963,4.715,1.252v25.109
	C30.614,106.438,10.313,83.925,10.313,56.6c0-6.639,1.25-12.989,3.464-18.954c0.48-1.155-0.097-2.502-1.251-2.983
	c-0.289-0.096-0.577-0.192-0.866-0.192c-0.962,0-1.828,0.577-2.213,1.54C6.946,42.457,5.598,49.384,5.598,56.6
	c0,31.462,24.823,57.055,55.997,58.305V85.368C62.46,85.464,64,85.464,64,85.464s1.54,0,2.405-0.096v29.537
	c31.174-1.25,55.998-26.843,55.998-58.305C122.306,49.384,121.055,42.457,118.65,36.107L118.65,36.107z M74.777,69.396
	c0.865-0.865,2.02-1.441,3.366-1.441s2.502,0.576,3.368,1.441c0.865,0.866,1.441,2.021,1.441,3.368s-0.576,2.501-1.441,3.367
	c-0.866,0.865-2.021,1.443-3.368,1.443s-2.501-0.578-3.366-1.443c-0.867-0.866-1.443-2.021-1.443-3.367
	C73.332,71.417,73.91,70.262,74.777,69.396L74.777,69.396z M53.224,76.132c-0.866,0.865-2.02,1.443-3.367,1.443
	c-1.347,0-2.502-0.578-3.367-1.443c-0.963-0.866-1.443-2.021-1.443-3.367c0-1.348,0.577-2.502,1.443-3.368
	c0.865-0.865,2.02-1.441,3.367-1.441c1.347,0,2.501,0.576,3.367,1.441c0.866,0.866,1.443,2.021,1.443,3.368
	C54.571,74.11,54.09,75.265,53.224,76.132L53.224,76.132z"/>
</svg>
