<svg xmlns="http://www.w3.org/2000/svg" viewBox="0 0 128 128">
<path fill="#333333" d="M108.6,22.9c-15.2,6.9-30.1,14.2-44.5,21.8c-0.1,0-0.2-0.1-0.2-0.1C49.3,37,34.7,29.8,19.5,22.9
	c-5-2.3-10.1-4.5-15.3-6.7C5.6,38.5,7.1,61,8.4,83.3c19.2,9,37.7,18.5,55.6,28.6c4.4-2.5,9-5,13.5-7.5c9.1-4.9,18.4-9.7,27.8-14.3
	c4.8-2.3,9.4-4.7,14.3-6.8c1.4-22.3,2.9-44.8,4.2-67.1C118.7,18.3,113.6,20.6,108.6,22.9z M106.1,76.6c-9.5,4.7-19,9.4-28.3,14.3
	c0.1-4.5,0.1-9,0.2-13.5c9.4-4.9,19-9.7,28.6-14.3C106.4,67.6,106.2,72,106.1,76.6z M107.3,49.6C97.5,54.1,87.7,59,78.2,64
	c-4.8,2.5-9.5,5-14.2,7.5c-0.1,0-0.2-0.1-0.2-0.1c-4.7-2.5-9.2-4.9-14-7.3c-4.8-2.5-9.5-4.9-14.4-7.3c0.1,4.5,0.2,9,0.5,13.5
	c4.8,2.4,9.5,4.8,14.2,7.3c0.1,4.5,0.1,9,0.2,13.5C41,86.2,31.7,81.3,22,76.8c-0.6-13.4-1.3-26.9-1.9-40.2
	C35,43.1,49.6,50.4,63.8,58c0.1,0,0.1,0.1,0.2,0.1v0.1h0.1c0,0,0.1,0,0.1,0.1v-0.1C78.4,50.6,93,43.4,108,36.5
	C107.7,40.8,107.5,45.1,107.3,49.6z"/>
</svg>
