<?xml version="1.0" encoding="utf-8"?>
<!-- Generator: Adobe Illustrator 15.0.0, SVG Export Plug-In . SVG Version: 6.00 Build 0)  -->
<!DOCTYPE svg PUBLIC "-//W3C//DTD SVG 1.1//EN" "http://www.w3.org/Graphics/SVG/1.1/DTD/svg11.dtd">
<svg version="1.1" id="Calque_1" xmlns="http://www.w3.org/2000/svg" xmlns:xlink="http://www.w3.org/1999/xlink" x="0px" y="0px"
	 width="595.279px" height="584.5px" viewBox="0 107.945 595.279 584.5" enable-background="new 0 107.945 595.279 584.5"
	 xml:space="preserve">
<g>
	<path fill="#FF9900" d="M255.604,310.663L255.604,310.663c-3.596,13.997-7.183,30.867-11.492,45.225l-18.657,59.581h0.001
		l18.657-59.581C248.423,341.53,252.011,324.66,255.604,310.663z"/>
	<path fill="#FF9900" d="M5.033,114.445V686.22h585.246V114.445H5.033z M316.982,517.406l-21.897-68.563h-76.811l-20.815,68.563
		h-45.581l77.521-241.917h56.351l78.604,241.917H316.982z M426.076,517.406h-44.508v-174.8h44.508V517.406z M403.469,317.482
		c-14.722,0-24.412-10.406-24.413-23.688c0-13.641,10.051-24.051,24.766-24.051c15.08,0,24.407,10.41,24.771,24.051
		C428.594,307.076,418.901,317.482,403.469,317.482z"/>
	<path fill="#FF9900" d="M256.318,310.663h-0.714c-3.593,13.997-7.183,30.867-11.491,45.225l-18.657,59.581h62.09l-19.023-59.581
		C263.857,341.174,259.906,324.66,256.318,310.663z"/>
	<path fill="#FF9900" d="M256.319,310.663L256.319,310.663c3.587,13.997,7.538,30.511,12.202,45.225l19.023,59.581h0.002
		l-19.023-59.581C263.858,341.174,259.906,324.66,256.319,310.663z"/>
</g>
</svg>
