<svg xmlns="http://www.w3.org/2000/svg" viewBox="0 0 128 128">
<path fill="#36495E" d="M64,1C29.2,1,1,29.2,1,64c0,34.8,28.2,63,63,63c34.8,0,63-28.2,63-63C127,29.3,98.8,1,64,1z M27.2,42.5h12.3
	v4.7L27.2,60.9V42.5z M27.2,85.6V65.3l12.3-13.7l0.1,34H27.2L27.2,85.6z M98.5,80.8c-3.1,3.2-6.9,4.8-11.7,4.8
	c-0.8,0-1.6-0.1-2.5-0.2l0,0c-0.4-0.1-0.9-0.1-1.3-0.2l0,0c-1.2-0.2-2.3-0.6-3.5-1.1c-2.4-1-4.9-2.6-7.6-4.9c-1.9-1.6-4.5-4.3-8-8
	c-3.4-3.7-5.8-6.1-7-7.3c-1.3-1.2-2.6-2.3-4-3.5v25.1H42.1V42.3c3,0.4,5.8,1.3,8.5,2.6c2.7,1.4,5.2,3.1,7.5,5.1s6,5.8,11.2,11.2
	c3.9,4.1,6.5,6.7,7.6,7.7c2.1,1.9,4,3.3,5.6,4s3,1.1,4.3,1.1c2,0,3.7-0.6,5-1.8c1.3-1.2,1.9-2.7,1.9-4.6s-0.7-3.5-2.1-4.9
	c-1.4-1.4-4-2.5-7.7-3.2l1.7-11.6c5.6,0.9,9.9,3.1,12.9,6.6c3,3.4,4.5,7.7,4.5,12.9C103.1,73.1,101.6,77.6,98.5,80.8z"/>
</svg>
