<?xml version="1.0" encoding="utf-8"?>
<!-- Generator: Adobe Illustrator 15.0.0, SVG Export Plug-In . SVG Version: 6.00 Build 0)  -->
<!DOCTYPE svg PUBLIC "-//W3C//DTD SVG 1.1//EN" "http://www.w3.org/Graphics/SVG/1.1/DTD/svg11.dtd">
<svg version="1.1" id="Calque_1" xmlns="http://www.w3.org/2000/svg" xmlns:xlink="http://www.w3.org/1999/xlink" x="0px" y="0px"
	 width="595.279px" height="595.275px" viewBox="0 123.307 595.279 595.275" enable-background="new 0 123.307 595.279 595.275"
	 xml:space="preserve">
<path fill="#36495E" d="M297.64,137.356c-156.623,0-283.588,126.965-283.588,283.588c0,156.62,126.966,283.589,283.588,283.589
	c156.62,0,283.589-126.969,283.589-283.589C581.229,264.322,454.26,137.356,297.64,137.356z M131.652,323.748h55.376l0.046,21.074
	l-55.422,61.683V323.748z M131.652,518.139v-91.304l55.442-61.707l0.369,153.01H131.652z M452.924,496.379
	c-13.765,14.509-31.253,21.763-52.459,21.763c-3.685,0-7.37-0.355-11.063-0.875l-0.02-0.002c-1.922-0.271-3.839-0.552-5.765-0.96
	l-0.024-0.005c-5.191-1.117-10.388-2.714-15.589-4.854c-10.856-4.466-22.23-11.782-34.137-21.951
	c-8.438-7.325-20.37-19.284-35.811-35.9c-15.438-16.622-25.981-27.627-31.623-33.02c-5.648-5.398-11.626-10.577-17.95-15.533v113.1
	h-48.742V323.748c13.397,1.734,26.139,5.675,38.23,11.811c12.091,6.139,23.343,13.794,33.763,22.974
	c10.417,9.176,27.223,25.977,50.414,50.416c17.607,18.352,29.081,29.948,34.413,34.78c9.674,8.681,18.045,14.637,25.114,17.863
	c7.069,3.226,13.456,4.832,19.16,4.832c9.178,0,16.621-2.697,22.325-8.09c5.702-5.394,8.557-12.249,8.557-20.557
	c0-8.433-3.192-15.811-9.582-22.136c-6.389-6.326-17.95-11.102-34.692-14.323l7.814-52.274
	c25.299,4.215,44.673,14.046,58.132,29.487c13.456,15.436,20.185,34.756,20.183,57.949
	C473.573,461.901,466.691,481.867,452.924,496.379z"/>
</svg>
