<?xml version="1.0" encoding="utf-8"?>
<!-- Generator: Adobe Illustrator 15.0.0, SVG Export Plug-In . SVG Version: 6.00 Build 0)  -->
<!DOCTYPE svg PUBLIC "-//W3C//DTD SVG 1.1//EN" "http://www.w3.org/Graphics/SVG/1.1/DTD/svg11.dtd">
<svg version="1.1" id="Calque_1" xmlns="http://www.w3.org/2000/svg" xmlns:xlink="http://www.w3.org/1999/xlink" x="0px" y="0px"
	 width="595.279px" height="581px" viewBox="0 109.445 595.279 581" enable-background="new 0 109.445 595.279 581"
	 xml:space="preserve">
<g>
	<path fill="#E93594" d="M334.275,372.656c-25.729,0-40.067,24.901-40.067,57.277c0,31.658,14.341,54.777,39.734,54.777
		c16.286,0,30.607-12.094,34.521-30.947c0.974-3.914,1.3-8.182,1.3-12.809v-25.963c0-3.559-0.326-7.829-0.975-11.383
		C365.203,386.531,352.51,372.656,334.275,372.656z"/>
	<path fill="#E93594" d="M5.033,114.445V686.22h585.246V114.445H5.033z M219.268,516.021h-43.757V276.25h43.757V516.021z
		 M375.305,516.021l-1.626-27.398h-0.659c-9.447,19.215-28.647,31.316-51.776,31.316c-37.765,0-67.729-35.229-67.729-88.588
		c-0.326-57.987,32.886-92.487,70.995-92.487c21.82,0,37.441,9.961,44.61,22.764h0.644v-98.183h40.054v203.842
		c0,17.783,0.647,36.988,1.313,48.734H375.305L375.305,516.021z"/>
</g>
</svg>
