<svg xmlns="http://www.w3.org/2000/svg" viewBox="0 0 128 128">
<g>
	<path fill="#E93594" d="M71.883,58.042c-5.539,0-8.625,5.361-8.625,12.332c0,6.814,3.086,11.793,8.555,11.793
		c3.506,0,6.588-2.604,7.432-6.662c0.211-0.844,0.279-1.762,0.279-2.758v-5.59c0-0.768-0.07-1.686-0.209-2.451
		C78.543,61.028,75.809,58.042,71.883,58.042z"/>
	<path fill="#E93594" d="M1,2.45v123.101h126V2.45H1z M47.123,88.906h-9.422V37.286h9.422V88.906z M80.717,88.906l-0.35-5.898
		h-0.143c-2.035,4.137-6.168,6.742-11.146,6.742c-8.131,0-14.582-7.584-14.582-19.072c-0.07-12.484,7.079-19.912,15.285-19.912
		c4.695,0,8.061,2.145,9.604,4.9h0.139V34.53h8.623v43.886c0,3.828,0.141,7.963,0.281,10.492h-7.711V88.906z"/>
</g>
</svg>
