<?xml version="1.0" encoding="utf-8"?>
<!-- Generator: Adobe Illustrator 15.0.0, SVG Export Plug-In . SVG Version: 6.00 Build 0)  -->
<!DOCTYPE svg PUBLIC "-//W3C//DTD SVG 1.1//EN" "http://www.w3.org/Graphics/SVG/1.1/DTD/svg11.dtd">
<svg version="1.1" id="Calque_1" xmlns="http://www.w3.org/2000/svg" xmlns:xlink="http://www.w3.org/1999/xlink" x="0px" y="0px"
	 width="595.275px" height="595.275px" viewBox="-284.138 -281.638 595.275 595.275"
	 enable-background="new -284.138 -281.638 595.275 595.275" xml:space="preserve">
<path fill="#4E8EF7" d="M229.644-146.351c5.771-6.67,9.313-15.354,9.313-24.866c0-20.967-17.024-37.992-37.992-37.992
	c-9.483,0-18.167,3.514-24.852,9.298c-45.305-34.164-101.636-54.431-162.608-54.431c-149.211,0-270.628,121.388-270.628,270.628
	c0,149.253,121.388,270.628,270.628,270.628S284.09,165.539,284.09,16.286c0-60.987-20.253-117.332-54.417-162.608L229.644-146.351z
	 M13.476,277.801c-144.198,0-261.501-117.346-261.501-261.515c0-144.184,117.332-261.501,261.501-261.501
	c58.602,0,112.819,19.382,156.467,52.089c-4.399,6.199-6.998,13.754-6.998,21.91c0,20.967,17.024,37.992,38.02,37.992
	c8.142,0,15.711-2.6,21.882-6.984c32.707,43.676,52.103,97.851,52.103,156.495c0,144.198-117.289,261.515-261.501,261.515H13.476z
	 M123.952,16.257c0,61.016-49.476,110.491-110.477,110.491C-47.54,126.748-97,77.272-97,16.257
	c0-61.015,49.461-110.49,110.476-110.49C74.477-94.233,123.952-44.758,123.952,16.257z"/>
</svg>
