<svg xmlns="http://www.w3.org/2000/svg" viewBox="0 0 128 128">
<path fill="#4E8EF7" d="M114.3,26.1c1.3-1.6,2.2-3.6,2.2-5.8c0-4.9-4-8.8-8.8-8.8c-2.2,0-4.2,0.8-5.8,2.2C91.4,5.7,78.2,1,64,1
	C29.3,1,1,29.3,1,64s28.3,63,63,63c34.7,0,63-28.3,63-63C126.9,49.7,122.2,36.6,114.3,26.1L114.3,26.1z M63.9,124.8
	C30.3,124.8,3,97.5,3,63.9C3,30.3,30.3,3,63.9,3c13.6,0,26.3,4.5,36.4,12.1c-1,1.4-1.6,3.2-1.6,5.1c0,4.9,4,8.8,8.9,8.8
	c1.9,0,3.7-0.6,5.1-1.6c7.6,10.2,12.1,22.8,12.1,36.4C124.8,97.5,97.5,124.8,63.9,124.8L63.9,124.8L63.9,124.8z M89.7,63.9
	c0,14.2-11.5,25.7-25.7,25.7c-14.2,0-25.7-11.5-25.7-25.7c0-14.2,11.5-25.7,25.7-25.7C78.1,38.2,89.7,49.7,89.7,63.9z"/>
</svg>
