<svg xmlns="http://www.w3.org/2000/svg" viewBox="0 0 128 128">
<g>
	<path fill="#1D1D1B" d="M126.408,43.313c-0.539-1.225-2.829-2.768-5.834-3.932c-2.043-0.791-4.045-1.245-5.489-1.245
		c-1.216,0-1.955,0.324-2.198,0.963l-0.027,0.073l-0.033,0.503l0.009,0.056c0.113,0.749,0.21,2.152-0.021,2.735L97.775,81.6
		l-0.002,0.006c-0.568,1.524-0.514,3.179,0.154,4.657c0.668,1.479,1.875,2.614,3.397,3.194c0.707,0.271,1.444,0.407,2.194,0.407l0,0
		c2.521,0,4.762-1.523,5.707-3.877l15.041-39.14c0.17-0.438,1.176-1.458,1.834-2.043l0.026-0.022
		c0.085-0.086,0.183-0.184,0.259-0.298l0.088-0.134v-0.069c0.002-0.004,0.004-0.01,0.004-0.014
		C126.553,44.057,126.592,43.729,126.408,43.313z M125.469,43.954c-0.023,0.022-0.051,0.05-0.072,0.075
		c-0.324,0.287-1.789,1.614-2.108,2.438L108.251,85.6c-0.784,1.95-2.642,3.212-4.729,3.212l0,0c-0.621,0-1.232-0.113-1.819-0.339
		c-2.589-0.986-3.909-3.901-2.942-6.499l15.035-39.127c0.385-0.97,0.146-2.813,0.089-3.217l0.013-0.194
		c0.088-0.091,0.406-0.249,1.189-0.249c1.303,0,3.212,0.438,5.109,1.176c2.979,1.153,4.896,2.569,5.25,3.374
		c0.037,0.082,0.047,0.141,0.045,0.173C125.48,43.924,125.475,43.94,125.469,43.954z"/>
	<path fill="#1D1D1B" d="M119.879,41.154c-2.137-0.825-4.046-1.037-4.262-0.473c-0.217,0.564,1.341,1.69,3.479,2.518
		c2.139,0.825,4.047,1.036,4.262,0.473C123.574,43.105,122.018,41.979,119.879,41.154z"/>
	<path fill="#1D1D1B" d="M114.086,60.305c-1.88,0.83-3.271,0.61-4.979,1.611c-1.709,1-2.564,2.392-2.564,2.392L99.609,82.35
		c-0.756,2.026,0.342,4.396,2.416,5.201c2.076,0.805,4.396-0.245,5.201-2.271l10.862-28.222
		C118.089,57.059,115.99,59.475,114.086,60.305z M104.958,74.657c-0.362,0-0.655-0.295-0.655-0.658s0.293-0.656,0.655-0.656
		c0.36,0,0.655,0.293,0.655,0.656S105.318,74.657,104.958,74.657z M107.555,79.306c-0.242,0-0.438-0.195-0.438-0.438
		c0-0.243,0.194-0.439,0.438-0.439c0.239,0,0.437,0.196,0.437,0.439C107.99,79.11,107.794,79.306,107.555,79.306z M106.945,72.953
		c-0.682,0-1.235-0.56-1.235-1.242c0-0.687,0.554-1.242,1.235-1.242c0.685,0,1.238,0.557,1.238,1.242
		C108.184,72.395,107.63,72.953,106.945,72.953z M108.45,65.26c-0.241,0-0.437-0.196-0.437-0.438s0.194-0.438,0.437-0.438
		c0.241,0,0.437,0.195,0.437,0.438C108.887,65.063,108.691,65.26,108.45,65.26z M111.289,68.618c-0.361,0-0.654-0.295-0.654-0.656
		c0-0.365,0.293-0.658,0.654-0.658s0.654,0.293,0.654,0.658C111.943,68.324,111.65,68.618,111.289,68.618z"/>
	<path fill="#1D1D1B" d="M58.499,75.872L58.499,75.872c1.294-0.314,2.344-1.021,2.344-2.142c0-0.122-0.219-0.122-0.219,0
		c0,0.656-0.758,1.217-1.612,1.339c-2.002,0.316-5.957-2.021-7.813-4.432c2.002,0.755,6.079-0.341,8.008-1.729
		c1.782-1.29,2.49-2.7,2.612-3.844c0.22-1.9-1.854-3.021-4.76-1.9c-1.856,0.755-4.077,2.386-6.396,5.453
		c2.44-4.018,7.25-10.59,11.963-14.776c5.736-5.088,9.056-4.115,3.904,1.29c-2.123,2.215-6.126,5.088-8.885,6.329
		c-0.854,0.365-0.439,0.853,0.171,0.584c2.93-1.29,6.836-3.942,9.204-6.158c6.98-6.694,1.146-11.733-6.568-4.649
		c-5.249,4.796-8.667,9.858-11.644,16.408c-1.025,1.242-1.783,2.265-2.71,3.042c-0.123,0.099-0.196,0.194-0.269,0.294
		c-2.563,2.19-6.591,5.16-9.106,5.185c-1.782,0.049-2.539-1.29-2.221-3.018c0.488-2.703,3.295-5.893,5.688-6.987
		c3.101-1.412,4.932,1.339,0.854,3.53c-1.563,0.802-3.418,1.24-4.175,1.24c-0.879,0-0.806,0.363-0.049,0.391
		c1.245,0.048,3.247-0.487,4.565-1.099c4.175-1.994,4.443-5.72-0.097-5.841c-4.932-0.171-10.839,4.018-10.791,9.301
		c0.049,2.385,1.953,3.677,4.566,3.677c4.37-0.052,8.251-3.361,11.45-6.283c0.463-0.39,0.903-0.802,1.342-1.239
		c-1.123,2.823-1.685,5.451-1.416,7.4c0.171,1.41,0.977,2.067,1.612,2.604c0.122,0.096,0.39,0,0.219-0.27
		c-0.928-1.095-0.659-4.38,0.61-7.57C49.979,74.145,54.153,76.848,58.499,75.872z M53.25,66.622L53.25,66.622
		c5.103-4.553,7.105-0.485,3.858,1.996c-1.685,1.291-5.029,2.264-6.079,1.632l-0.219-0.122c-0.123-0.219-0.269-0.438-0.366-0.656
		C51.297,68.449,52.272,67.499,53.25,66.622z"/>
	<path fill="#1D1D1B" d="M30.473,61.996L30.473,61.996c0.659,0.535,1.855,0.22,2.662-0.657c0.853-0.925,0.976-2.117,0.316-2.653
		c-0.659-0.534-1.854-0.219-2.66,0.706C29.937,60.318,29.813,61.461,30.473,61.996z"/>
	<path fill="#1D1D1B" d="M28.521,63.726L28.521,63.726c-0.171,0-0.489,0.315-0.22,0.438c0.367,0.122,0.537,0.438,0.537,0.878
		c-0.316,1.823-2.587,3.895-3.466,4.601c-0.219,0.22,0.098,0.704,0.317,0.534c0.489-0.39,1.514-1.191,2.344-2.264
		c-1.367,3.044-4.053,6.987-5.078,8.376c-4.003,5.522-10.082,10.612-14.256,10.612c-3.344,0-6.177-2.265-6.787-5.574
		c-0.049-0.365-0.538-0.439-0.439,0.048c0.756,4.554,4.272,6.331,8.52,6.331c4.663,0,10.132-3.361,13.159-6.818
		c4.882-5.574,8.032-11.999,7.202-15.627C29.984,63.896,29.057,63.677,28.521,63.726z"/>
	<path fill="#1D1D1B" d="M81.616,61.461L81.616,61.461c2.051,0.22,1.196-2.264-0.878-1.631c-0.928,0.268-1.831,2.046-2.49,3.579
		c-2.051,3.042-5.469,7.206-7.859,9.396c-2.125,1.825-4.078,2.313-1.687-1.096c0.978-1.365,2.222-2.823,2.93-4.284
		c1.687-3.677-1.903-5.309-4.808-3.093c-1.686,1.291-3.956,3.943-5.738,5.404c-0.489,0.39-0.367,0.973,0.122,0.584
		c1.416-1.145,3.906-3.772,6.053-5.309c1.781-1.361,2.488-0.484,1.465,0.658c-1.416,1.631-3.905,4.48-4.54,6.28
		c-0.879,2.703,0.171,3.896,1.952,3.896c2.439,0,6.08-3.797,8.521-6.813c0.805-1.023,1.685-2.218,2.44-3.361
		c-2.123,4.115-4.346,8.277-7.104,12.05c-3.906,5.309-8.788,9.3-13.426,9.3c-3.345,0-6.226-2.263-6.835-5.573
		c-0.049-0.365-0.489-0.439-0.439,0.049c0.756,4.551,4.271,6.328,8.52,6.328c4.663,0,9.154-2.702,12.304-6.013
		c6.349-6.694,7.104-14.217,9.058-18.43C80.104,61.461,80.958,61.365,81.616,61.461z"/>
	<path fill="#1D1D1B" d="M106.152,52.186c-1.637,0.051-4.614,1.193-6.006,2.265c-0.317,0.316-0.172,0.486,0.22,0.316
		c0.269-0.098,0.586-0.268,0.879-0.39c1.563-0.853,0.928,0.925,0.586,1.582c-1.854,3.238-5.151,7.79-6.886,10.055
		c-0.822,1.108-1.711,2.163-2.66,3.165c-1.66,1.583-4.955,4.382-7.471,5.308c-8.08,3.019,2.223-10.712,3.076-11.831
		c1.903-2.388,6.176-6.55,7.471-8.644c0.929-1.583,0.879-2.824-1.295-2.824c-1.635,0.05-4.613,1.192-6.006,2.266
		c-0.316,0.315-0.17,0.487,0.222,0.315c0.267-0.098,0.585-0.268,0.879-0.39c1.563-0.853,0.927,0.925,0.585,1.582
		c-1.854,3.237-5.15,7.79-6.885,10.054c-1.414,1.9-3.148,3.799-4.49,4.87c-0.538,0.438-0.221,0.852,0.314,0.487
		c0.489-0.316,1.197-1.023,2.004-1.851c-1.465,2.92-2.662,7.035,1.195,7.521c3.295,0.439,7.201-2.897,9.74-5.38l0.902-0.9
		l0.221-0.219c-1.465,2.921-2.661,7.035,1.195,7.522c2.389,0.328,5.104-1.34,7.379-3.23l0.58-1.512
		c-1.596,1.289-3.471,2.601-5.028,3.183c-8.081,3.021,2.222-10.711,3.075-11.83c1.953-2.435,6.201-6.598,7.494-8.667h0.002
		C108.373,53.428,108.324,52.186,106.152,52.186z"/>
</g>
</svg>
