<svg xmlns="http://www.w3.org/2000/svg" viewBox="0 0 128 128">
<g>
	<path fill="#1D1D1B" d="M95.761,18.517c-1.186-2.692-6.221-6.084-12.826-8.644c-4.492-1.738-8.893-2.737-12.069-2.737
		c-2.673,0-4.298,0.713-4.835,2.117l-0.06,0.162l-0.073,1.105l0.019,0.123c0.25,1.646,0.464,4.732-0.044,6.014l-33.063,86.038
		l-0.004,0.014c-1.25,3.351-1.127,6.986,0.339,10.238c1.471,3.25,4.122,5.748,7.472,7.022c1.554,0.597,3.177,0.896,4.824,0.896
		c0,0,0,0,0.002,0c5.542,0,10.467-3.35,12.547-8.523l33.066-86.048c0.375-0.966,2.585-3.206,4.034-4.492l0.059-0.051
		c0.188-0.189,0.4-0.401,0.568-0.655l0.192-0.292v-0.154c0.002-0.009,0.007-0.02,0.01-0.028
		C96.077,20.153,96.164,19.432,95.761,18.517z M93.693,19.928c-0.05,0.052-0.11,0.109-0.159,0.166
		c-0.713,0.631-3.934,3.551-4.635,5.363l-33.06,86.035c-1.724,4.287-5.808,7.062-10.396,7.062h-0.002c-1.363,0-2.709-0.251-4-0.744
		c-5.692-2.172-8.595-8.58-6.469-14.29l33.056-86.022c0.845-2.132,0.322-6.186,0.195-7.072l0.025-0.427
		c0.194-0.2,0.896-0.547,2.616-0.547c2.863,0,7.063,0.964,11.235,2.583c6.552,2.537,10.764,5.651,11.543,7.418
		c0.08,0.18,0.101,0.309,0.097,0.38C93.722,19.862,93.707,19.896,93.693,19.928z"/>
	<path fill="#1D1D1B" d="M81.406,13.77c-4.699-1.814-8.896-2.28-9.37-1.037c-0.478,1.241,2.947,3.716,7.647,5.532
		c4.699,1.814,8.896,2.278,9.37,1.04C89.53,18.062,86.107,15.584,81.406,13.77z"/>
	<path fill="#1D1D1B" d="M68.669,55.876c-4.134,1.825-7.193,1.342-10.948,3.542c-3.758,2.199-5.638,5.258-5.638,5.258
		l-15.242,39.667c-1.664,4.455,0.75,9.662,5.312,11.436c4.565,1.77,9.664-0.539,11.436-4.994L77.471,48.74
		C77.471,48.739,72.856,54.051,68.669,55.876z M48.6,87.428c-0.796,0-1.44-0.647-1.44-1.446c0-0.798,0.644-1.443,1.44-1.443
		c0.795,0,1.441,0.646,1.441,1.443C50.041,86.78,49.395,87.428,48.6,87.428z M54.307,97.651c-0.532,0-0.962-0.433-0.962-0.963
		c0-0.535,0.43-0.966,0.962-0.966c0.528,0,0.96,0.431,0.96,0.966C55.267,97.219,54.836,97.651,54.307,97.651z M52.972,83.684
		c-1.501,0-2.718-1.228-2.718-2.729c0-1.51,1.217-2.731,2.718-2.731c1.503,0,2.72,1.224,2.72,2.731
		C55.692,82.456,54.475,83.684,52.972,83.684z M56.279,66.77c-0.53,0-0.959-0.431-0.959-0.966c0-0.532,0.429-0.962,0.959-0.962
		c0.532,0,0.96,0.43,0.96,0.962C57.239,66.339,56.811,66.77,56.279,66.77z M62.52,74.153c-0.796,0-1.441-0.646-1.441-1.441
		c0-0.805,0.645-1.447,1.441-1.447c0.794,0,1.438,0.645,1.438,1.447C63.958,73.506,63.315,74.153,62.52,74.153z"/>
</g>
</svg>
