<svg xmlns="http://www.w3.org/2000/svg" viewBox="0 0 128 128">
<path fill="#335061" d="M65.747,4.81c-2.791,0.235-4.887,0.622-6.853,1.257c-1.205,0.391-3.827,1.387-4.783,1.809
	c-0.766,0.339-4.131,2.188-6.257,3.431c-3.713,2.169-5.631,4.239-6.526,7.043c-0.179,0.548-0.252,0.683-0.435,0.778
	c-0.878,0.479-1.717,1.226-2.283,2.043c-0.865,1.27-1.491,3.235-1.687,5.335c-0.043,0.491-0.1,1.057-0.118,1.274l-0.039,0.382
	l-0.865,0.761c-2.392,2.104-4.944,4.979-6.835,7.688c-3.914,5.613-6.54,12.318-7.47,19.045c-0.339,2.423-0.413,3.563-0.413,6.337
	s0.074,3.91,0.413,6.335c0.6,4.387,2.017,8.986,3.991,13.092c2.322,4.809,5.736,9.428,9.558,12.949l1.096,1.004l0.087,1.396
	c0.052,0.756,0.122,2.301,0.157,3.422c0.078,2.592,0.182,3.035,0.826,3.584c0.369,0.316,0.965,0.604,2.174,1.061
	c0.487,0.187,2.039,0.896,3.443,1.576c3.575,1.74,4.731,2.209,6.505,2.637c1.248,0.299,1.535,0.338,3.157,0.392l1.556,0.043
	l0.505,1.739c0.913,3.113,1.669,5.64,2.096,6.931c0.521,1.592,1.218,3.463,1.326,3.563c0.108,0.116,1.205,0.446,2.357,0.702
	c4.139,0.937,10.597,1.06,16.766,0.318c2.093-0.252,3.526-1.035,4.04-2.199c0.13-0.297,0.139-0.399,0.078-0.846
	c-0.039-0.277-0.102-0.927-0.123-1.438l-0.051-0.936l0.655-0.121c2.152-0.418,3.229-0.982,3.705-1.943
	c0.152-0.326,0.2-0.539,0.229-1.162c0.053-0.957-0.033-1.574-0.504-3.646c-0.631-2.736-0.758-3.771-0.592-4.754l0.096-0.539
	l0.471-0.152c1-0.334,1.443-0.829,1.443-1.62v-0.384l0.471-0.214c1.111-0.506,2.33-0.736,4.125-0.795l1.297-0.037l0.209,0.367
	c0.115,0.191,0.334,0.504,0.488,0.682c0.275,0.322,0.287,0.326,1.055,0.457c2.326,0.4,4.713,0.408,6.539,0.025
	c1.412-0.301,1.887-0.535,2.607-1.303c1.34-1.449,2.268-4.228,2.264-6.842c0-1.16-0.07-1.562-0.535-3.188
	c-0.648-2.261-1.496-4.558-2.127-5.781c-0.393-0.756-1.004-1.426-1.66-1.817c-0.24-0.136-0.432-0.277-0.432-0.313
	c0-0.029,0.17-0.356,0.379-0.728c0.59-1.049,1.777-3.549,2.285-4.787c1.73-4.317,2.723-8.6,3.123-13.506
	c0.113-1.377,0.113-5.056,0-6.452c-0.393-4.862-1.383-9.171-3.123-13.501c-0.58-1.439-2.025-4.378-2.809-5.722
	c-1.801-3.048-3.98-5.914-6.451-8.449l-1.148-1.182l-0.139-1.466c-0.447-5.144-1.662-9.339-3.479-12.126
	c-1.326-2.031-4.064-4.965-6.531-6.987c-2.922-2.409-6.466-3.761-11.443-4.387c-0.879-0.109-5.031-0.209-5.854-0.14L65.747,4.81z
	 M71.339,7.606c2.839,0.461,5.648,1.339,8.175,2.578c1.773,0.875,2.674,1.531,4.127,3.031c1.013,1.052,3.613,4.288,3.762,4.688
	c0.053,0.126,0.025,0.135-0.297,0.092c-1.355-0.179-2.025-0.126-2.799,0.243c-0.957,0.448-1.498,1.205-1.541,2.144
	c-0.008,0.165,0.01,0.331,0.035,0.356c0.018,0.022,0.16-0.043,0.317-0.148c0.582-0.4,1.039-0.521,2-0.521
	c0.804,0,0.958,0.021,1.597,0.244c1.014,0.343,1.771,0.817,2.553,1.6c1.43,1.417,1.916,3.113,2.188,7.596
	c0.131,2.161,0.178,6.496,0.078,7.853c-0.422,5.979-2.01,11.527-4.488,15.735c-0.547,0.935-2.456,3.792-2.922,4.375
	c-0.611,0.761-1.412,1.479-2.304,2.062c-2.679,1.738-5.488,2.873-8.122,3.286c-1.071,0.166-3.079,0.166-4.027,0
	c-1.018-0.174-2.525-0.713-3.896-1.375c-3.555-1.738-5.956-4.047-9.795-9.448l-0.474-0.665l0.044,0.365
	c0.226,1.662,1.196,3.365,3.148,5.592c2.261,2.565,3.914,4.079,5.344,4.878c0.266,0.148,0.535,0.322,0.597,0.378
	c0.096,0.091,0.053,0.1-0.261,0.052c-0.209-0.022-0.783-0.064-1.297-0.086c-1.504-0.074-2.504,0.235-3,0.926l-0.226,0.313
	l-0.774-0.049c-4.322-0.242-6.935-1.047-8.497-2.608c-1.696-1.696-4.122-7.327-4.661-10.809c-0.174-1.126-0.131-1.24,0.712-2.157
	c0.939-1.005,1.096-1.375,0.874-2.021c-0.082-0.231-0.1-0.235-0.413-0.191c-0.435,0.061-0.674,0.191-1.466,0.791
	c-0.365,0.278-0.76,0.548-0.891,0.587c-0.687,0.265-1.817,0.222-2.622-0.104c-1.996-0.805-3.796-3.414-4.335-6.266
	c-0.153-0.809-0.153-2.257,0-2.883c0.356-1.448,1.304-2.748,2.521-3.461c0.883-0.518,2.096-0.757,3.144-0.63
	c1.674,0.213,2.601,1.334,3.283,3.982l0.244,0.948l0.8-0.009c1.331-0.018,2.4-0.374,2.809-0.93c0.148-0.191,0.148-0.213,0.026-1.035
	c-0.079-0.461-0.27-1.409-0.453-2.096c-0.843-3.348-0.834-3.878,0.144-8.557c0.457-2.166,0.57-3.057,0.579-4.188
	c0.009-1.062-0.122-1.9-0.421-2.778c-0.1-0.3-0.187-0.626-0.187-0.735c0-0.248,0.495-1.152,1.113-2.022
	c0.618-0.882,2.565-2.844,3.705-3.718c1.083-0.839,3.079-2.152,4.375-2.891c3.87-2.192,5.234-2.583,8.849-2.521
	c1.535,0.021,2.058,0.057,3.039,0.213L71.339,7.606z M56.52,9.658c0.396,0.313,0.091,0.861-0.6,1.083
	c-0.265,0.078-0.5,0.235-0.792,0.509c-0.23,0.217-0.756,0.652-1.178,0.965c-1.161,0.87-1.552,1.313-2.422,2.765
	c-0.948,1.57-1.409,2.174-1.839,2.452c-0.439,0.279-0.839,0.331-1.683,0.231c-0.892-0.118-1.348-0.044-2.948,0.482
	c-1.392,0.448-1.914,0.556-1.914,0.391c0-0.061,0.165-0.391,0.374-0.717c1.426-2.409,4.113-4.661,7.666-6.448
	c1.283-0.644,2.052-0.97,3.483-1.47C55.912,9.468,56.216,9.432,56.52,9.658L56.52,9.658z M48.937,19.407
	c0.287,0.766,0.387,1.356,0.422,2.565c0.04,1.409-0.03,2.209-0.391,4.535c-0.4,2.609-0.439,2.97-0.439,4.296
	c0,1.405,0.056,1.752,0.482,3.209c0.335,1.144,0.439,2.022,0.292,2.387c-0.104,0.252-0.344,0.404-0.748,0.479l-0.27,0.056
	l-0.053-0.504c-0.13-1.326-0.8-2.518-1.882-3.378c-1.07-0.843-2.244-1.261-3.605-1.261c-0.948,0-1.618,0.147-2.548,0.583
	c-0.335,0.144-0.618,0.256-0.635,0.235c-0.105-0.1-0.213-2.096-0.218-3.766c0-1.518,0.022-2.035,0.135-2.622
	c0.365-1.979,1-3.109,2.435-4.317c1.504-1.261,3.169-2.065,5.066-2.461c0.939-0.191,1.026-0.209,1.496-0.227
	c0.352-0.008,0.391,0.009,0.465,0.191H48.937z M86.453,59.445c0.244,0.208,1.295,1.209,2.33,2.222
	c1.039,1.017,2.266,2.13,2.705,2.474c1.191,0.939,1.773,1.521,2.043,2.086c0.234,0.472,0.234,0.479,0.191,1.31
	c-0.053,0.856-0.313,2.17-0.904,4.633c-0.762,3.121-2,6.81-3.826,11.388c-1.191,2.979-1.461,3.387-2.379,3.653
	c-0.756,0.212-0.916,0.234-2.904,0.308c-1.831,0.078-2.443,0.166-3,0.449c-0.348,0.178-0.447,0.188-0.447,0.028
	c0-0.155,0.529-1.053,3.34-5.66c2.191-3.592,3.801-6.286,4.096-6.87c0.113-0.199,0.104-0.234-0.025-0.435
	c-0.074-0.123-0.348-0.457-0.609-0.758c-0.486-0.544-0.721-0.927-0.721-1.16c0-0.063,0.117-0.465,0.252-0.875
	c1.043-3.078,0.514-8.097-1.039-9.827c-0.336-0.378-0.936-0.748-1.205-0.748c-0.199,0-0.756-0.387-0.756-0.522
	c0-0.079,0.33-0.383,0.766-0.722c0.412-0.317,0.904-0.757,1.086-0.956c0.191-0.2,0.393-0.375,0.449-0.383
	c0.057,0,0.309,0.166,0.557,0.374L86.453,59.445z M47.868,61.68c0.183,0.174,0.778,0.808,1.304,1.426
	c0.526,0.609,1.148,1.326,1.375,1.583c0.756,0.868,2.461,1.891,6.239,3.743l2.334,1.146l0.096,0.601
	c0.235,1.485,1.588,6.196,2.123,7.309c0.704,1.498,1.548,1.938,2.835,1.473c0.278-0.104,0.556-0.191,0.599-0.191
	c0.262,0-0.057,0.712-0.694,1.556c-0.835,1.112-1.014,1.817-0.614,2.431c0.214,0.327,0.884,0.793,1.8,1.264
	c2.252,1.156,4.979,2.455,6.318,3.012c0.859,0.357,1.573,0.697,1.573,0.74c0,0.068-0.331,0.104-1.165,0.143
	c-6.219,0.256-9.884,0.543-15.688,1.238c-1.635,0.191-2.626,0.279-2.696,0.236c-0.169-0.105-0.37-0.715-0.46-1.375
	c-0.122-1.021-0.087-4.267,0.078-6.355c0.078-1.035,0.147-2.18,0.147-2.523c0-1.869-0.895-1.852-1.239,0.021
	c-0.117,0.688-0.1,1.229,0.126,3.721c0.166,1.679,0.191,3.714,0.074,4.486c-0.044,0.266-0.144,0.705-0.231,0.979
	c-0.135,0.467-0.166,0.506-0.348,0.506c-0.305-0.015-0.77-0.248-1.574-0.814c-0.957-0.674-1.331-0.861-1.409-0.73
	c-0.178,0.279-0.008,0.74,0.479,1.306c0.465,0.538,0.539,1.004,0.2,1.375c-0.165,0.207-0.309,0.256-0.913,0.385
	c-0.965,0.211-1.391,0.519-1.391,1.041c0,0.172,0.013,0.183,0.47,0.183c0.252,0,1.095-0.035,1.882-0.086
	c1.422-0.078,2.126-0.046,2.844,0.163l0.265,0.078l0.057,0.609c0.165,1.936,0.77,6.967,1.386,11.331
	c0.235,1.738,0.435,3.199,0.435,3.234c0,0.178-1.861,0-3.409-0.322c-2.487-0.528-4.517-1.358-8.705-3.561
	c-1.339-0.701-2.7-1.404-3.014-1.561l-0.578-0.279v-0.678c0-1.539-0.295-5.652-0.6-8.41c-0.853-7.748-2.6-14.826-5.044-20.383
	c-0.278-0.641-0.509-1.209-0.509-1.262c0-0.062,0.691-0.625,1.53-1.253c4.909-3.682,8.214-5.748,11.771-7.339
	c0.613-0.278,1.222-0.496,1.357-0.505c0.187,0,0.321,0.073,0.587,0.313h-0.004V61.68z M84.174,63.992
	c0.758,0.388,1.288,2.12,1.52,4.902c0.117,1.519-0.102,3.005-0.518,3.569l-0.132,0.174l-1.217-0.082
	c-1.966-0.127-4.452-0.496-5.627-0.84l-0.321-0.086l0.008-1.148c0.01-0.625,0.014-1.174,0.014-1.203c0-0.076,0.509-0.328,0.777-0.39
	c0.287-0.057,1.127-0.139,1.394-0.131c0.112,0.01,0.2-0.024,0.2-0.055c0-0.074-0.801-0.312-1.223-0.346
	c-0.166-0.025-0.335-0.058-0.392-0.068c-0.044-0.014-0.249,0-0.44,0.031c-0.455,0.09-0.563,0.012-0.687-0.414
	c-0.052-0.191-0.165-0.479-0.234-0.646c-0.12-0.237-0.126-0.299-0.044-0.346c0.053-0.037,0.122-0.07,0.165-0.07
	c0.026,0,0.646-0.383,1.365-0.869c2.175-1.428,3.104-1.939,3.805-2.053c0.136-0.035,0.248-0.057,0.257-0.061
	c0.074-0.078,1.156,0.031,1.34,0.127L84.174,63.992z M78.564,63.997c0,0.058-0.069,0.144-0.146,0.187
	c-0.078,0.036-0.757,0.558-1.496,1.148l-1.355,1.074l-0.413,0.012c-1.589,0.055-2.792-0.143-3.728-0.59
	c-0.718-0.357-1.461-0.869-1.461-1.019c0-0.148,0.336-0.213,0.584-0.12c0.364,0.146,1.227,0.305,1.746,0.305
	c0.713,0,1.883-0.188,3.34-0.531c1.217-0.292,2.522-0.557,2.801-0.574c0.064-0.01,0.121,0.044,0.121,0.104L78.564,63.997z
	 M54.138,64.362c0.539,0.179,1.487,0.317,3.031,0.448c2.109,0.171,2.065,0.166,2.065,0.427c0,0.116-0.07,0.475-0.148,0.782
	c-0.079,0.322-0.166,0.748-0.2,0.955c-0.043,0.367-0.065,0.394-0.243,0.394c-0.34,0-1.661-0.355-2.487-0.662
	c-2.009-0.756-3.209-1.687-3.035-2.363c0.087-0.345,0.165-0.393,0.426-0.235c0.139,0.077,0.404,0.191,0.595,0.256L54.138,64.362
	L54.138,64.362z M63.208,64.619c0.077,0.035,0.164,0.061,0.183,0.043c0.104-0.101,3.018,0.861,4.025,1.332
	c1.557,0.738,1.967,0.947,2.792,1.494c0.466,0.313,1.257,0.612,1.696,0.657c0.101,0.009,0.222,0.021,0.265,0.021
	c0.048,0.008,0.083,0.146,0.093,0.305c0.008,0.277-0.01,0.304-0.326,0.478c-0.317,0.182-1.014,0.428-1.127,0.4
	c-0.053-0.008-0.27,0.049-1.112,0.283c-0.392,0.112-0.483,0.301-0.104,0.223c0.436-0.088,2.592,0.52,2.817,0.789
	c0.044,0.059,0.053,0.383,0.034,0.832L72.4,72.225l-0.305,0.213c-0.166,0.127-0.869,0.69-1.564,1.27
	c-0.688,0.568-1.526,1.238-1.854,1.465c-1.373,0.996-4.309,2.117-5.521,2.117c-0.356,0-0.439-0.025-0.617-0.207
	c-0.122-0.131-0.222-0.301-0.234-0.396c-0.026-0.151-0.479-1.448-0.627-1.797c-0.321-0.721-0.852-2.334-0.93-2.799
	c-0.017-0.141-0.052-0.322-0.074-0.426c-0.17-0.854-0.257-3.053-0.144-4.219c0.018-0.306,0.043-0.607,0.052-0.67
	c0.043-0.55,0.465-1.574,0.766-1.853c0.313-0.293,0.687-0.417,1.226-0.399c0.279,0.008,0.566,0.053,0.648,0.096H63.208z
	 M75.436,67.81c0.408,0.185,0.494,0.279,0.721,0.759c0.273,0.59,0.257,1.379-0.034,1.922c-0.296,0.578-0.724,0.799-1.505,0.803
	c-0.904,0-0.878,0.014-1.117-1.064c-0.117-0.514-0.188-0.975-0.161-1.01c0.019-0.043,0.009-0.078-0.034-0.078
	c-0.053,0-0.078-0.182-0.078-0.465c0-0.43,0.013-0.465,0.209-0.565C74.369,67.644,74.878,67.572,75.436,67.81L75.436,67.81z
	 M77.053,72.473c0.174,0.082,0.582,0.324,0.904,0.557c0.734,0.512,1.295,0.781,1.787,0.838l0.378,0.045v0.447
	c0,0.248-0.035,0.822-0.079,1.27c-0.033,0.451-0.099,1.635-0.146,2.635c-0.108,2.521-0.233,3.763-0.601,6
	c-0.155,0.992-0.391,1.818-0.514,1.84c-0.144,0.021-0.999-1.727-2.252-4.616c-1.578-3.642-2.461-5.312-3.565-6.797
	c-0.265-0.365-0.47-0.703-0.455-0.759c0.012-0.059,0.19-0.303,0.391-0.555l0.369-0.457l0.336,0.053
	c0.543,0.082,0.77,0.047,1.568-0.301c0.875-0.383,1.365-0.432,1.887-0.19L77.053,72.473z M83.939,73.777
	c0.558,0.146,1.205,0.494,1.644,0.887c0.444,0.391,0.909,0.982,0.909,1.156c0,0.146-2.205,3.982-3.518,6.113
	c-1.252,2.043-2.967,4.485-3.191,4.578c-0.148,0.057-0.131-0.043,0.121-1.015c0.529-2.086,0.961-5.151,1.227-8.721
	c0.053-0.841,0.108-1.798,0.108-2.136c0-0.602,0.009-0.614,0.208-0.69c0.787-0.301,1.753-0.365,2.501-0.174L83.939,73.777
	L83.939,73.777z M71.612,75.646c1.596,2.262,2.588,4.162,4.623,9c0.422,1.018,0.769,1.887,0.769,1.949
	c0,0.182-0.212,0.139-1.494-0.302c-2.302-0.791-4.433-1.694-6.963-2.956c-1.77-0.884-3.47-1.806-3.47-1.88
	c0-0.03,0.065-0.272,0.157-0.532c0.398-1.236,1.261-2.437,2.465-3.453c0.713-0.605,3.266-2.394,3.423-2.394
	C71.165,75.08,71.391,75.336,71.612,75.646L71.612,75.646z M99.559,86.256c0.766,0.369,1.533,1.135,1.898,1.887
	c0.465,0.961,0.963,2.636,1.684,5.601c0.295,1.229,0.334,1.488,0.369,2.522c0.031,0.998,0.014,1.226-0.117,1.8
	c-0.391,1.627-1.32,2.879-2.582,3.471c-1.234,0.582-4.355,0.826-5.957,0.461c-0.408-0.092-0.514-0.144-0.514-0.258
	c0-0.233,0.949-0.535,2.727-0.854c1.432-0.263,2.082-0.408,2.125-0.482c0.041-0.057-0.098-0.1-0.887-0.301
	c-0.469-0.117-2.834-0.117-4.184-0.008c-0.547,0.051-1.543,0.112-2.199,0.135l-1.195,0.055l-0.043-0.404
	c-0.021-0.223-0.146-1.438-0.273-2.701c-0.322-3.256-0.652-5.373-1.078-6.848l-0.117-0.404l0.316-0.278
	c0.617-0.525,2.035-1.156,4.574-2.017c1.439-0.488,2.365-0.871,2.943-1.211c0.684-0.397,0.904-0.465,1.482-0.443
	c0.398,0.027,0.635,0.084,1.025,0.271v0.009H99.559z M87.23,90.082c0.283,0.166,0.979,2.061,1.297,3.479
	c0.359,1.632,0.67,4.705,0.613,6.248l-0.018,0.763l-0.965,0.319c-0.523,0.185-1.172,0.351-1.418,0.375l-0.457,0.053l-0.043-0.322
	c-0.021-0.174-0.1-0.844-0.156-1.471c-0.066-0.629-0.318-2.434-0.564-4.004c-0.448-2.883-0.735-4.975-0.735-5.301
	c0-0.17,0.03-0.179,0.578-0.209c0.763-0.043,1.753-0.009,1.864,0.063L87.23,90.082z M72.305,90.117
	c1.695,0.1,4.748,0.451,4.904,0.557c0.034,0.021,0.234,1.678,0.313,2.558c0.104,1.213,0.141,1.895,0.271,5
	c0.108,2.5,0.14,2.918,0.366,5.329c0.145,1.484,0.242,3.427,0.334,6.337c0.136,4.372,0.3,6.518,0.641,8.553
	c0.096,0.601,0.164,1.113,0.164,1.113c-0.078,0.043-1.271,0.348-1.99,0.512c-2.123,0.472-4.205,0.67-6.779,0.67
	c-2.986-0.008-5.258-0.233-7.965-0.772c-1.222-0.242-3.222-0.748-3.292-0.826c-0.018-0.014-0.239-0.725-0.504-1.582
	c-1.904-6.148-3.235-12.188-4.27-19.332c-0.418-2.836-0.84-6.496-0.775-6.559c0.083-0.076,3.922-0.695,5.657-0.927
	c2.392-0.299,5.084-0.537,7.444-0.646C67.99,90.037,71.248,90.051,72.305,90.117L72.305,90.117z M82.355,90.594
	c0.402,1.488,0.67,3.65,1.027,8.304c0.121,1.586,0.252,3.155,0.286,3.481c0.043,0.387,0.043,0.604-0.009,0.635
	c-0.078,0.043-2.13,0.427-3.518,0.644c-0.558,0.092-0.84,0.104-0.84,0.062s-0.053-0.734-0.108-1.529
	c-0.247-3.248-0.339-5.375-0.386-8.357c-0.027-1.713-0.027-3.123,0-3.123c0.021,0,0.25-0.051,0.504-0.121
	c0.557-0.139,1.57-0.234,2.392-0.223c0.591,0.01,0.591,0.01,0.647,0.23h0.004V90.594z M82.165,105.422
	c0.131,0.035,0.171,0.121,0.21,0.496c0.029,0.248,0.234,1.326,0.46,2.383c0.558,2.656,0.705,3.604,0.748,4.892l0.044,1.112
	l-0.849,0.273c-0.466,0.148-1.005,0.305-1.214,0.35c-0.407,0.082-1.668,0.191-1.668,0.146c0-0.012-0.063-1.111-0.152-2.434
	c-0.082-1.326-0.171-3.4-0.191-4.619l-0.048-2.199h0.239c0.135,0,0.564-0.078,0.956-0.174c0.392-0.105,0.821-0.205,0.938-0.219
	c0.127-0.013,0.258-0.033,0.291-0.033c0.049-0.01,0.148,0.008,0.234,0.029L82.165,105.422L82.165,105.422z M63.6,18.894
	c-0.627,0.1-1.497,0.496-2.331,1.052c-0.704,0.457-1.844,1.614-2.322,2.34c-0.635,0.969-1.052,2.265-0.939,2.935
	c0.053,0.3,0.391,0.734,0.57,0.734c0.052,0,0.23-0.278,0.391-0.617c0.63-1.288,1.596-2.531,2.474-3.188
	c0.513-0.378,1.313-0.739,1.988-0.9c0.42-0.104,0.743-0.122,1.594-0.091c0.574,0.022,1.131,0.056,1.227,0.091
	c0.145,0.043,0.18,0.008,0.278-0.217c0.175-0.413,0.14-0.722-0.126-1.126c-0.521-0.77-1.695-1.205-2.8-1.013H63.6z M87.531,26.894
	c0,1.004,0.244,2,0.904,3.644c0.199,0.504,0.355,0.987,0.338,1.074c-0.033,0.239-0.703,0.405-2.008,0.491
	c-1.147,0.079-1.262,0.096-1.81,0.235c-0.287,0.079-0.321,0.104-0.321,0.305c0,0.713,0.514,1.361,1.23,1.574
	c1.16,0.335,3.156-0.273,4.205-1.27c0.646-0.626,0.639-0.583,0.111-1.452c-0.426-0.705-1.287-2.426-2.182-4.374
	c-0.201-0.443-0.393-0.8-0.418-0.8c-0.035,0-0.057,0.257-0.057,0.569L87.531,26.894z M68.6,26.76
	c-0.179,1.048,0.479,3.065,1.666,5.101c0.266,0.448,0.442,0.835,0.431,0.931c-0.052,0.383-1.191,0.704-2.165,0.608
	c-0.287-0.03-0.979-0.134-1.526-0.235c-1.335-0.234-1.514-0.234-1.622,0.026c-0.209,0.505-0.218,0.695-0.1,0.992
	c0.326,0.826,1.645,1.326,3.518,1.326c1.549,0,2.147-0.2,3.022-1.004c0.364-0.343,0.465-0.491,0.562-0.826
	c0.135-0.46,0.104-0.921-0.089-1.296c-0.069-0.13-0.5-0.622-0.946-1.096c-0.939-0.978-1.141-1.304-1.871-3.021
	c-0.273-0.644-0.563-1.313-0.656-1.496l-0.169-0.326l-0.052,0.322V26.76H68.6z M78.184,28.112c-0.113,0.053-0.14,0.174-0.14,0.609
	c0,2.035,1.183,4.701,3.248,7.383c0.534,0.679,2.33,2.835,3.058,3.666c0.738,0.847,0.994,1.561,0.808,2.348
	c-0.121,0.5-0.412,1.091-0.577,1.148c-0.064,0.022-0.822,0.37-1.684,0.77c-1.986,0.917-2.652,1.191-3.482,1.431
	c-0.982,0.273-1.727,0.369-2.525,0.317c-1.287-0.073-1.553-0.321-1.949-1.86c-0.12-0.479-0.233-0.892-0.233-0.9
	c0-0.013-0.024-0.031-0.069-0.031c-0.131,0-0.438,0.713-0.521,1.214c-0.157,0.874,0.155,1.974,0.757,2.674l0.26,0.3l1.117,0.022
	c3.021,0.078,5.813-0.826,9.229-2.97l1.1-0.691l0.131-0.513c0.061-0.283,0.209-0.748,0.309-1.03c0.102-0.292,0.23-0.709,0.275-0.939
	c0.146-0.708,0.09-0.822-1.156-2.052c-3.229-3.157-6.74-8.035-7.158-9.953c-0.078-0.365-0.191-0.652-0.321-0.796
	c-0.19-0.234-0.278-0.256-0.479-0.144h0.006V28.112z M41.615,36.168c-0.713,0.244-1.244,0.822-1.526,1.665
	c-0.178,0.522-0.165,0.548,0.157,0.257c0.448-0.431,0.604-0.509,1.03-0.509c0.208,0,0.409,0.026,0.43,0.074
	c0.022,0.034-0.048,0.343-0.156,0.683c-0.166,0.508-0.204,0.782-0.239,1.617c-0.035,1.166,0.083,1.913,0.426,2.626
	c0.435,0.913,0.426,0.922,0.469-1.009c0.035-1.509,0.057-1.796,0.201-2.23c0.256-0.805,0.756-1.148,1.374-0.948
	c0.37,0.126,0.661,0.5,1.165,1.526c0.253,0.513,0.557,1.043,0.692,1.2l0.239,0.278l0.052-0.513c0.231-2.126-0.983-4.14-2.835-4.709
	C42.506,35.999,42.12,35.991,41.615,36.168z M87.123,46.444c-2.826,1.496-3.811,1.887-5.4,2.144c-0.365,0.056-0.691,0.144-0.73,0.2
	c-0.061,0.109-0.078,1.896-0.01,2.296c0.045,0.274,0.058,0.282,0.357,0.282c0.5,0,1.612-0.269,2.297-0.539
	c1.707-0.696,3.393-2.378,4.6-4.596c0.148-0.274,0.258-0.492,0.244-0.492c-0.01,0-0.627,0.318-1.355,0.709v-0.004H87.123z
	 M68.756,47.892c0.514,0.948,1.861,1.987,3.4,2.579c1.844,0.726,4.738,1.174,7,1.104l0.704-0.021l-0.017-1.005
	c-0.01-0.547-0.043-1.148-0.074-1.335l-0.064-0.335l-2.549-0.043c-4.191-0.078-6.348-0.404-8.479-1.292
	c-0.123-0.052-0.113-0.008,0.077,0.344L68.756,47.892L68.756,47.892z M67.178,50.114c-0.377,0.113-0.426,0.295-0.179,0.626
	c0.122,0.166,0.392,0.457,0.601,0.661c0.209,0.2,0.684,0.792,1.053,1.309c0.369,0.519,0.875,1.188,1.126,1.483
	c1.309,1.53,2.757,2.061,5.64,2.061c2.366,0,4.53-0.435,5.275-1.069c0.23-0.191,0.76-0.935,0.76-1.062
	c0-0.034-1.209-0.051-2.688-0.034c-4.436,0.052-6.274-0.199-8.092-1.087c-1.23-0.607-2.092-1.43-2.578-2.469
	c-0.213-0.457-0.261-0.504-0.461-0.496C67.516,50.035,67.305,50.075,67.178,50.114z M76.669,75.063
	c-0.446,0.27-0.504,0.922-0.13,1.297c0.548,0.547,1.436,0.148,1.436-0.648c0-0.221-0.057-0.334-0.256-0.535
	C77.417,74.881,77.035,74.838,76.669,75.063z M77.791,78.986c-0.404,0.139-0.63,0.447-0.63,0.852c0,0.234,0.053,0.34,0.256,0.543
	c0.209,0.213,0.302,0.258,0.593,0.258c0.266,0,0.383-0.049,0.573-0.219c0.218-0.191,0.247-0.256,0.247-0.59
	c0-0.322-0.025-0.41-0.221-0.592c-0.235-0.223-0.565-0.328-0.818-0.244V78.986z M96.201,89.525c-1.82,0.32-3.305,1.066-4.15,2.07
	l-0.311,0.373h0.348c0.773,0,1.592-0.341,3.365-1.408c1.08-0.646,1.715-0.979,2.152-1.113
	C97.975,89.324,96.992,89.377,96.201,89.525z M94.662,92.629c-0.514,0.096-1.125,0.34-1.391,0.557
	c-0.188,0.158-0.209,0.201-0.113,0.271c0.164,0.109,2.617,0.022,4.33-0.155c0.783-0.078,1.479-0.146,1.559-0.156
	c0.242-0.014-0.627-0.271-1.375-0.392C96.828,92.604,95.188,92.533,94.662,92.629L94.662,92.629z M93.992,95.707
	c-0.408,0.115-0.947,0.357-1.014,0.467c-0.064,0.107,1.047,0.164,4.066,0.213c2.52,0.027,2.791,0.019,2.578-0.078
	c-0.348-0.166-1.652-0.469-2.508-0.602C96.184,95.564,94.506,95.564,93.992,95.707L93.992,95.707z M64.099,48.401
	c0.18-0.24,1.202-0.631,2.645,0.061c0,0-1.714,0.271-1.563,3.126l-0.722-0.151C64.488,51.468,63.738,48.882,64.099,48.401"/>
</svg>
