<?xml version="1.0" encoding="utf-8"?>
<!-- Generator: Adobe Illustrator 15.0.0, SVG Export Plug-In . SVG Version: 6.00 Build 0)  -->
<!DOCTYPE svg PUBLIC "-//W3C//DTD SVG 1.1//EN" "http://www.w3.org/Graphics/SVG/1.1/DTD/svg11.dtd">
<svg version="1.1" id="Calque_1" xmlns="http://www.w3.org/2000/svg" xmlns:xlink="http://www.w3.org/1999/xlink" x="0px" y="0px"
	 width="595.279px" height="595.275px" viewBox="0 123.307 595.279 595.275" enable-background="new 0 123.307 595.279 595.275"
	 xml:space="preserve">
<path fill="#2A4D80" d="M568.776,395.995c-2.79-6.042-4.139-13.189-4.427-19.919c-0.717-16.561-0.107-33.182-0.855-49.743
	c-0.67-14.831-5.963-28.197-20.203-35.842c-12.538-6.729-27.071-7.399-41.022-7.557V309.4c4.65,0.158,3.506,0.302,4.641,0.363
	c18.737,0.921,25.016,6.864,25.253,25.453c0.177,13.822,0.056,27.653,0.279,41.47c0.274,16.766,2.776,32.768,18.109,43.353
	c0.261,0.182,0.237,0.847,0.386,1.619c-7.804,5.544-13.979,12.683-15.774,22.425c-1.446,7.883-2.265,15.951-2.512,23.965
	c-0.446,14.5,0.015,29.033-0.399,43.535c-0.326,11.355-5.706,16.686-16.761,19.217c-4.162,0.957-8.571,1.297-13.222,1.887v26.402
	c9.301-0.559,14.03-0.926,20.402-1.613c23.979-2.596,37.479-15.072,40.246-38.336c0.865-7.291,0.768-14.725,0.93-22.09
	c0.308-13.809,0.149-27.682,1.387-41.404c1.26-14.004,11.445-21.742,25.396-20.971v-27.675
	C581.328,408.663,572.757,404.64,568.776,395.995L568.776,395.995z M131.678,452.421c-0.005-53.711-1.46-107.421-1.46-161.126v-8.45
	c-13.952,0-28.955-0.135-43.675,0.065c-5.976,0.079-11.245,0.591-17.17,1.4c-22.681,3.088-33.614,13.733-37.633,36.331
	c-1.163,6.521-0.93,13.296-1.027,19.965c-0.182,12.678,0.181,25.36-0.023,38.033c-0.256,15.961-7.776,28.332-24.054,29.271
	c-0.576,0.033,2.665,0.698-1.985,1.098v24.672c18.603,2.92,24.522,10.43,25.76,27.713c0.195,2.752,0.246,5.529,0.274,8.297
	c0.158,15.439-0.019,30.902,0.679,46.314c0.656,14.385,3.851,27.238,17.444,34.787c12.696,7.051,30.253,7.623,39.554,7.99v-26.342
	c0-0.223-0.977-0.428-1.883-0.484c-20.18-1.232-24.728-6.709-24.849-26.902c-0.079-13.371,0.493-26.742,0.279-40.111
	c-0.27-16.799-2.726-32.732-17.933-43.363c-0.233-0.163-0.005-0.851-0.079-1.781c10.227-6.464,15.663-16.352,17.142-28.341
	c0.818-6.613,1.093-13.319,1.209-19.993c0.232-13.826-0.014-27.667,0.363-41.483c0.265-9.711,6.464-16.789,14.375-18.379
	c7.497-1.512,11.375-1.465,25.327-2.167v9.562c0,47.948-1.707,95.891-1.456,143.839c0.089,16.422,1.907,32.609,19.51,39.703
	c9.571,3.854,19.826,5.041,30.819,7.635c1.838-10.752,2.438-19.672,3.939-28.498C134.864,475.859,131.678,472.845,131.678,452.421z
	 M255.729,359.906c-34.136-16.324-75.563-2.051-91.459,32.187c-11.971,25.783-11.543,52.319-1.005,78.465
	c5.716,14.176,16.045,24.787,30.104,31.029c27.457,12.189,55.245,9.227,82.93,0.67c1.493-0.465,3.399-3.34,3.219-4.865
	c-0.944-7.725-2.512-15.375-3.911-23.352c-6.59,1.66-12.097,3.359-17.724,4.414c-14.868,2.795-29.769,2.791-44.237-2.963
	c-14.286-5.674-23.881-21.996-21.495-35.949h97.068c1.186-13.951,0.716-33.135-5.223-48.999
	C278.694,376.364,269.541,366.514,255.729,359.906L255.729,359.906z M255.524,416.294h-63.788
	c0.033-18.603,15.18-35.298,35.052-34.917C244.241,381.712,256.315,397.692,255.524,416.294z M516.461,473.4
	c2.288-23.504-4.809-36.73-25.736-46.943c-7.423-3.623-15.301-6.307-22.862-9.665c-5.66-2.511-11.357-5.055-16.649-8.236
	c-5.153-3.093-7.311-8.227-6.548-14.24c0.748-5.938,4.566-9.854,10.082-10.971c6.683-1.358,13.687-2.521,20.407-1.972
	c9.496,0.776,18.862,3.209,28.662,4.999l6.194-27.057c-13.259-2.019-25.62-4.627-38.112-5.613
	c-13.892-1.093-27.42,1.214-40.135,7.767c-26.866,13.845-27.359,56.347-2.669,70.299c7.376,4.166,15.268,7.422,22.941,11.068
	c8.078,3.846,16.449,7.189,24.179,11.645c5.869,3.381,7.966,9.283,6.395,16.162c-1.456,6.395-6.297,9.244-11.985,9.789
	c-8.649,0.822-17.523,1.613-26.085,0.596c-10.311-1.229-20.402-4.357-30.964-6.748l-5.386,26.928
	c24.802,9.311,49.344,10.836,74.122,5.342C503.049,501.955,514.862,489.826,516.461,473.4L516.461,473.4z M384.314,429.441
	c-9.11-4.832-18.909-8.356-28.313-12.663c-5.836-2.674-12.017-4.995-17.16-8.702c-9.893-7.129-8.051-20.797,3.469-24.453
	c6.609-2.103,14.082-2.753,21.025-2.232c9.46,0.711,18.794,3.158,28.657,4.943l5.851-25.792c-5.009-1.363-9.543-2.846-14.188-3.823
	c-18.468-3.888-37.033-5.395-55.222,1c-15.626,5.497-26.467,15.775-28.61,33.066c-2.4,19.31,4.004,34.554,21.839,43.726
	c7.139,3.674,14.789,6.338,22.076,9.742c7.274,3.396,14.701,6.637,21.458,10.896c5.167,3.256,7.204,8.768,5.749,15.139
	c-1.447,6.314-6.051,9.496-11.78,10.086c-8.65,0.889-17.528,1.713-26.095,0.713c-10.353-1.209-20.477-4.35-31.225-6.768
	c-1.586,7.502-3.446,15.059-4.604,22.719c-0.251,1.664,1.604,4.865,3.167,5.408c25.039,8.678,50.524,9.926,75.991,2.424
	c15.207-4.475,25.843-14.189,27.987-30.801C406.818,455.21,402.321,438.986,384.314,429.441L384.314,429.441z"/>
</svg>
