<svg xmlns="http://www.w3.org/2000/svg" viewBox="0 0 128 128">
<g>
	<path fill="#333333" d="M112.3,100.5L112.3,100.5c-0.9-1-1.3-2.9-1.8-4.9s-1-4.1-2.6-5.5l0,0c-0.6-0.6-1.3-1-2-1.2
		c2.3-6.7,1.4-13.4-0.9-19.5c-2.8-7.4-7.7-13.9-11.4-18.3c-4.2-5.3-8.3-10.3-8.2-17.7c0.1-11.3,1.2-32.3-18.7-32.3l0,0
		c-0.8,0-1.6,0-2.5,0.1C42,3,47.9,26.5,47.5,34.4c-0.4,5.8-1.6,10.3-5.5,15.9c-4.6,5.5-11.2,14.5-14.3,23.8
		c-1.5,4.4-2.2,8.9-1.5,13.1c-0.2,0.2-0.4,0.4-0.6,0.6c-1.4,1.5-2.4,3.2-3.5,4.4c-1.1,1-2.5,1.5-4.2,2s-3.5,1.5-4.6,3.6l0,0
		c-1,1.9-0.7,4-0.4,6s0.6,3.8,0.2,5.1c-1.3,3.6-1.5,6-0.6,7.8c0.9,1.8,2.8,2.6,4.9,3c4.3,0.9,10,0.7,14.6,3.1l0,0
		c4.9,2.5,9.8,3.4,13.8,2.5c2.9-0.7,5.2-2.3,6.4-5c3.1,0,6.5-1.3,11.9-1.6c3.7-0.3,8.3,1.3,13.6,1c0.1,0.6,0.4,1.1,0.6,1.6l0,0
		c2,4.1,5.9,6,9.9,5.6c4.1-0.3,8.4-2.7,11.9-6.9l-0.6-0.5l0.6,0.5c3.3-4,8.9-5.7,12.5-7.9c1.8-1.1,3.3-2.5,3.4-4.5
		C116.2,105.7,115,103.5,112.3,100.5z M63.2,26.6c0-1.5,0.2-2.7,0.8-4c0.6-1.3,1.3-2.2,2.3-3s2-1.1,3.1-1.1l0,0l0,0h0.1
		c1.1,0,2.1,0.3,3.1,1.1c1,0.7,1.7,1.6,2.3,2.9c0.6,1.2,0.8,2.5,0.9,3.9v0.1c0,1.5-0.2,2.7-0.8,4c-0.3,0.7-0.7,1.4-1.1,1.9
		c-0.2-0.1-0.3-0.1-0.5-0.2c-1.1-0.5-2-0.8-2.7-1c0.3-0.3,0.5-0.7,0.7-1.1c0.3-0.7,0.4-1.4,0.5-2.2v-0.1c0-0.8-0.1-1.4-0.3-2.1
		c-0.2-0.7-0.5-1.2-1-1.7s-0.9-0.6-1.4-0.6h-0.1c-0.5,0-0.9,0.2-1.4,0.5c-0.5,0.4-0.8,0.9-1.1,1.6c-0.3,0.7-0.4,1.4-0.4,2.2v0.1
		c0,0.4,0,0.9,0.1,1.3c-1-0.5-2-0.9-2.8-1.1c-0.1-0.4-0.1-0.8-0.1-1.2v-0.2H63.2z M50,23.4c0.4-1.1,0.8-2,1.5-2.6
		c0.7-0.7,1.4-1,2.2-1.1c0.1,0,0.1,0,0.2,0c0.7,0,1.4,0.3,2.1,0.8c0.8,0.6,1.3,1.4,1.8,2.5c0.5,1.1,0.7,2.2,0.8,3.4
		c0,0.5,0,1.1,0,1.5c-0.1,0-0.3,0.1-0.4,0.1c-0.8,0.3-1.5,0.6-2.1,1.1c0.1-0.4,0.1-0.9,0-1.3c0,0,0,0,0-0.1
		c-0.1-0.6-0.2-1.2-0.4-1.7c-0.2-0.6-0.5-1-0.9-1.3c-0.3-0.3-0.6-0.4-1-0.4h-0.1c-0.4,0-0.7,0.2-1,0.6c-0.3,0.4-0.5,0.8-0.6,1.4
		c-0.1,0.6-0.2,1.2-0.1,1.8v0.1c0.1,0.6,0.2,1.2,0.4,1.7c0.2,0.6,0.5,1,0.9,1.3c0.1,0.1,0.1,0.1,0.2,0.1c-0.4,0.3-0.5,0.4-0.8,0.6
		c-0.2,0.1-0.4,0.3-0.7,0.5c-0.6-0.6-1.1-1.2-1.5-2.2c-0.5-1.1-0.7-2.2-0.8-3.4l0,0C49.5,25.6,49.7,24.5,50,23.4z M50.6,34.7
		c1.2-0.9,2-1.5,2.5-1.9c0.5-0.4,0.8-0.6,0.9-0.7c0.9-0.8,2.3-2.4,4.4-3.1c0.7-0.3,1.5-0.4,2.5-0.4l0,0c1.7,0,3.8,0.6,6.4,2.2
		c1.6,1,2.8,1.1,5.6,2.3c1.3,0.6,2.1,1.3,2.5,2c0.4,0.8,0.4,1.6,0.1,2.4c-0.6,1.7-2.7,3.5-5.6,4.4l0,0c-1.4,0.5-2.6,1.5-4.1,2.3
		c-1.4,0.8-3.1,1.5-5.3,1.4c-1.9-0.1-3-0.8-4.1-1.6c-1-0.8-1.9-1.8-3.2-2.6l0,0c-2.1-1.2-3.3-2.6-3.6-3.8
		C49.2,36.5,49.6,35.4,50.6,34.7z M51.4,116.8L51.4,116.8L51.4,116.8c-0.3,4-2.5,6.1-5.9,6.9c-3.4,0.8-8,0-12.6-2.4
		c-5.1-2.7-11.2-2.4-15-3.2c-1.9-0.4-3.2-1-3.8-2.1c-0.6-1.1-0.6-3.1,0.7-6.5l0,0l0,0c0.6-1.9,0.2-4-0.1-5.9s-0.5-3.7,0.2-4.9l0,0
		c0.8-1.6,2.1-2.2,3.6-2.8c1.5-0.6,3.4-1,4.8-2.4l0,0l0,0c1.3-1.4,2.3-3.2,3.5-4.4c1-1.1,2-1.8,3.5-1.8l0,0l0,0h0.1
		c0.3,0,0.5,0,0.8,0.1c2,0.3,3.7,1.7,5.4,3.9c1.7,2.3,3.2,5.3,4.8,8.8l0,0c1.3,2.7,4,5.6,6.3,8.6C49.9,111.5,51.7,114.5,51.4,116.8z
		 M51,110.4c-0.6-1-1.3-2-2.1-3c-0.5-0.6-1-1.2-1.5-1.8c1,0,1.8-0.2,2.4-0.5c0.8-0.4,1.4-1,1.7-1.7c0.6-1.5,0-3.7-1.8-6.1
		c-1.8-2.5-4.9-5.2-9.4-8c-3.3-2.1-5.2-4.6-6.1-7.4c-0.9-2.8-0.7-5.7-0.1-8.7c1.3-5.6,4.6-11.1,6.7-14.6c0.6-0.4,0.2,0.8-2.1,5.1
		c-2.1,4-6,13.1-0.7,20.3c0.1-5.1,1.4-10.3,3.4-15.1c3-6.7,9.2-18.4,9.7-27.7c0.3,0.2,1.1,0.8,1.5,1c1.1,0.7,2,1.6,3.1,2.5
		c1.1,0.9,2.5,1.7,4.6,1.8c2.4,0.1,4.3-0.6,5.9-1.5c1.5-0.9,2.7-1.8,3.9-2.2c2.4-0.8,4.4-2.1,5.5-3.7c1.9,7.5,6.3,18.3,9.1,23.5
		c1.5,2.8,4.5,8.7,5.8,15.9c0.8,0,1.7,0.1,2.7,0.3c3.4-8.8-2.9-18.2-5.7-20.9c-1.2-1.1-1.2-1.6-0.6-1.6c3.1,2.7,7.2,8.3,8.7,14.5
		c0.7,2.8,0.8,5.8,0.1,8.8c0.4,0.1,0.7,0.3,1.1,0.5c5.4,2.6,7.4,5,6.5,8.1c-0.3,0-0.6,0-0.9,0h-0.1c0.8-2.5-1-4.3-5.6-6.4
		c-4.8-2.1-8.7-1.9-9.3,2.4c0,0.2-0.1,0.5-0.1,0.7c-0.4,0.1-0.7,0.3-1.1,0.5c-2.3,1.2-3.5,3.5-4.2,6.2c-0.7,2.8-0.9,6.1-1.1,9.8
		c-0.1,1.9-0.9,4.4-1.7,7.1C71.3,114.3,60.3,116.8,51,110.4z M98.3,88c-0.8,1.5-4.3,4-6.7,3.4c-2.4-0.6-3.6-4.1-3.2-6.8
		c0.2-1.8,1.2-2.6,2.7-2.6c1,0,2.2,0.3,3.5,0.9C98.2,84.5,99.3,85.9,98.3,88z M114.4,107.6c-0.1,1.2-1,2.2-2.6,3.2
		c-3.3,2-9.2,3.7-12.9,8.3c-3.3,3.9-7.2,6-10.7,6.3s-6.5-1.2-8.3-4.7l0,0l0,0c-1.1-2.1-0.6-5.4,0.3-8.9c0.9-3.5,2.3-7.1,2.4-10l0,0
		c0.2-3.7,0.4-7,1-9.5c0.6-2.5,1.6-4.2,3.4-5.2c0.1,0,0.2-0.1,0.2-0.1l0,0c0.2,3.2,1.8,6.5,4.6,7.3c3.1,0.8,7.6-1.8,9.4-4
		c0.4,0,0.7,0,1.1,0c1.7,0,3,0.1,4.5,1.3l0,0c1.1,0.9,1.6,2.7,2.1,4.6c0.4,2,0.8,4.1,2.2,5.6l0,0
		C113.6,104.4,114.5,106.4,114.4,107.6z"/>
	<path fill="#333333" d="M50.9,37.1c0.2,0.1,0.4,0.3,0.6,0.5c0.5,0.5,1.2,1.1,2,1.7c1.6,1.3,3.9,2.6,6.7,2.6c2.9,0,5.6-1.3,7.8-2.6
		c1.1-0.7,2.2-1.3,3.1-1.8c0.9-0.5,1.6-0.8,2.1-0.8l-0.1-0.9c-0.8,0-1.5,0.4-2.5,0.9c-0.9,0.5-2,1.2-3.1,1.8
		c-2.2,1.3-4.8,2.5-7.4,2.5c-2.6,0-4.6-1.2-6.1-2.4c-0.8-0.6-1.4-1.2-1.9-1.7c-0.3-0.2-0.5-0.4-0.7-0.6S51,36,50.7,36v0.7
		c0,0.2,0,0.2,0,0.2C50.8,37,50.9,37,50.9,37.1z"/>
</g>
</svg>
