<?xml version="1.0" encoding="utf-8"?>
<!-- Generator: Adobe Illustrator 15.0.0, SVG Export Plug-In . SVG Version: 6.00 Build 0)  -->
<!DOCTYPE svg PUBLIC "-//W3C//DTD SVG 1.1//EN" "http://www.w3.org/Graphics/SVG/1.1/DTD/svg11.dtd">
<svg version="1.1" id="Calque_1" xmlns="http://www.w3.org/2000/svg" xmlns:xlink="http://www.w3.org/1999/xlink" x="0px" y="0px"
	 width="595.279px" height="595.275px" viewBox="0 123.307 595.279 595.275" enable-background="new 0 123.307 595.279 595.275"
	 xml:space="preserve">
<path fill="#83CD29" d="M524.023,264.377L318.731,145.298c-12.934-7.367-29.876-7.367-42.911,0L68.922,264.377
	c-13.343,7.678-22.416,22.109-22.416,37.544v237.842c0,15.436,9.265,29.871,22.611,37.592l54.548,31.104
	c26.169,12.891,33.419,12.891,45.324,12.891c38.759,0,58.887-23.434,58.887-64.309v-234.81c0.005-3.316,2.074-8.25-1.187-8.25
	h-26.146c-3.312,0-9.868,4.935-9.868,8.246v234.811c0,18.119-16.817,36.148-47.446,20.834l-56.375-32.613
	c-1.962-1.07-3.144-3.225-3.144-5.494V301.921c0-2.241,2.153-4.492,4.144-5.641L294.24,177.406c1.93-1.093,4.66-1.093,6.58,0
	l204.456,118.847c1.958,1.177,1.646,3.358,1.646,5.669v237.842c0,2.27,0.428,4.479-1.503,5.572L300.174,664.281
	c-1.758,1.055-4.045,1.055-5.976,0l-52.631-31.389c-1.586-0.92-3.497-1.25-5.022-0.398c-14.627,8.291-17.343,9.393-31.062,14.15
	c-3.382,1.178-8.367,3.219,1.897,8.971l68.819,40.713c6.586,3.813,14.078,5.795,21.611,5.795c7.637,0,15.11-1.982,21.7-5.795
	l204.516-118.973c13.353-7.775,20.101-22.156,20.101-37.592V301.921C544.123,286.486,537.375,272.092,524.023,264.377
	L524.023,264.377z M361.479,502.076c-54.537,0-66.545-15.045-70.55-42.162c-0.474-2.922-2.948-6.414-5.925-6.414h-26.647
	c-3.298,0-5.953,4-5.953,7.283c0,34.721,18.882,76.791,109.075,76.791c65.286,0,102.724-25.369,102.724-70.266
	c0-44.518-30.076-56.199-93.395-64.58c-64.002-8.459-70.503-12.733-70.503-27.727c0-12.361,5.506-28.848,52.896-28.848
	c42.339,0,57.946,9.087,64.369,37.628c0.553,2.684,3.004,4.609,5.771,4.609h26.76c1.646,0,3.213-0.665,4.366-1.842
	c1.121-1.265,1.707-2.851,1.563-4.553c-4.152-49.152-36.8-72.057-102.834-72.057c-58.747,0-93.784,24.806-93.784,66.388
	c0,45.102,34.865,57.565,91.254,63.141c67.457,6.613,72.703,16.473,72.703,29.74C423.369,492.257,404.869,502.076,361.479,502.076z"
	/>
</svg>
