<svg xmlns="http://www.w3.org/2000/svg" viewBox="0 0 128 128">
<path fill="#3A3C5B" d="M64,6.75C32.383,6.75,6.75,32.383,6.75,64S32.383,121.25,64,121.25S121.25,95.617,121.25,64
	S95.617,6.75,64,6.75z M54.309,105.521c-0.585,1.192-3.075,0.357-5.799-0.586c-2.724-0.944-11.962-4.74-17.289-10.778
	c-5.328-6.038-8.051-14.101-7.822-21.792c0.238-7.693,2.365-10.894,5.923-15.874c3.554-4.97,13.389-12.315,16.464-14.213
	c3.076-1.898,7.227-5.089,9.239-7.698c2.013-2.604,3.076-4.735,2.961-8.289c-0.119-3.553,0.238-6.753,0.114-7.934
	c-0.114-1.185-0.114-3.55,0.95-3.079c1.063,0.475,1.182,1.777,1.182,3.079c0,1.304-0.358,6.632-0.71,11.845
	c-0.357,5.208-4.497,9.591-7.579,12.668c-3.081,3.08-11.966,12.672-15.276,17.407c-3.32,4.741-4.97,10.979-4.622,16.226
	c0.358,5.328,1.66,10.541,6.629,16.106c4.975,5.565,8.409,8.171,11.012,9.473C52.296,103.385,54.901,104.334,54.309,105.521
	L54.309,105.521z M58.672,111.217c-0.849,1.033-2.311,1.659-2.49,1.242c-0.173-0.418,1.054-0.656,1.963-1.67
	c0.825-0.925,0.606-2.654,1.198-2.68C59.825,108.09,59.522,110.173,58.672,111.217z M60.825,102.564
	c-1.66,2.131-8.404-5.215-11.962-9.479c-3.558-4.264-7.106-12.911-7.226-19.659c-0.12-6.749,3.667-13.026,6.391-16.818
	c2.732-3.792,8.061-10.307,9.482-13.269c1.417-2.962,2.961-6.152,3.429-10.302c0.477-4.15,0-18.952,0-18.952
	s-0.114-6.513,0.949-5.802c1.069,0.713,1.302,4.855,1.302,8.647s0.358,20.132-0.831,24.511c-1.182,4.383-3.906,9.238-6.867,13.502
	c-2.962,4.264-6.401,13.269-6.271,18.83c0.114,5.566,3.314,14.686,5.794,18.478c2.504,3.802,6.739,9.104,5.805,10.308
	L60.825,102.564z M64.368,113.621c-0.487,0-0.308-1.477-0.308-3.299c0-1.819-0.169-3.301,0.308-3.301
	c0.433,0,0.303,1.477,0.303,3.301C64.671,112.15,64.766,113.621,64.368,113.621z M72.09,112.398
	c-0.178,0.418-1.639-0.203-2.484-1.242c-0.854-1.033-1.158-3.121-0.676-3.102c0.592,0.025,0.373,1.754,1.203,2.68
	C71.037,111.743,72.27,111.982,72.09,112.398z M96.333,94.314c-4.583,5.332-10.188,8.592-16.659,11.178
	c-2.137,0.854-3.488,1.777-5.297,0.094c-2.912-2.708-5.666-2.986-9.304-3.961c-1.013-0.27-1.714-2.516-2.082-3.329
	c-1.217-2.664-2.142-5.467-2.848-8.31c-3.429-13.706-0.695-27.438,2.774-40.836c1.48-5.719,2.437-11.405,2.485-17.343
	c0.021-3.106-0.407-6.178-0.775-9.256c-0.158-1.309-0.765-4.55,0.824-2.063c0.643,1.004,1.82-0.417,1.919,0.738
	c0.08,0.892,0.09,1.792,0.118,2.688c0.08,2.281,0.066,4.607,0.429,6.868c0.865,5.466,7.604,8.851,11.758,11.445
	c9.513,5.944,22.279,13.835,24.208,26.005C105.438,78.05,102.777,86.826,96.333,94.314z"/>
</svg>
