<svg xmlns="http://www.w3.org/2000/svg" viewBox="0 0 128 128">
<g>
	<path fill="#73B4F4" d="M1,2.5v123.1h126V2.5H1z M63.7,64.8c-3.6,3.6-9.2,5.3-15.6,5.3c-1.7,0-3.2-0.1-4.4-0.3v18.6h-8.9V39.6
		c3.2-0.6,7.7-1,13.8-1c6.6,0,11.4,1.4,14.6,4C66.1,45,68,49,68,53.5C67.9,58.3,66.4,62.1,63.7,64.8z M79.8,89.1
		c-4.3,0-8.2-1.1-10.8-2.6l1.8-6.5c2.1,1.2,5.9,2.6,9.2,2.6c4,0,5.7-1.6,5.7-4c0-2.4-1.5-3.7-5.9-5.2c-7-2.4-9.9-6.2-9.8-10.4
		c0-6.3,5.2-11.2,13.5-11.2c4,0,7.4,1,9.5,2.1l-1.8,6.4c-1.5-0.9-4.4-2.1-7.5-2.1c-3.2,0-5,1.5-5,3.7c0,2.3,1.7,3.4,6.2,5
		c6.4,2.3,9.5,5.6,9.5,10.9C94.3,84.5,89.2,89.1,79.8,89.1z"/>
	<path fill="#73B4F4" d="M48.8,45.5c-2.5,0-4.2,0.2-5.2,0.4v16.7l0,0C44.7,63,46.2,63,48,63c6.7,0,10.8-3.3,10.8-9.1
		C58.9,48.5,55.1,45.5,48.8,45.5z"/>
</g>
</svg>
