<?xml version="1.0" encoding="utf-8"?>
<!-- Generator: Adobe Illustrator 15.0.0, SVG Export Plug-In . SVG Version: 6.00 Build 0)  -->
<!DOCTYPE svg PUBLIC "-//W3C//DTD SVG 1.1//EN" "http://www.w3.org/Graphics/SVG/1.1/DTD/svg11.dtd">
<svg version="1.1" id="Calque_1" xmlns="http://www.w3.org/2000/svg" xmlns:xlink="http://www.w3.org/1999/xlink" x="0px" y="0px"
	 width="595.279px" height="578px" viewBox="0 111.445 595.279 578" enable-background="new 0 111.445 595.279 578"
	 xml:space="preserve">
<g>
	<path fill="#73B4F4" d="M5.033,114.445V686.22h585.246V114.445H5.033z M295.853,403.992c-16.675,16.68-42.883,24.503-72.496,24.503
		c-7.827,0-14.976-0.34-20.422-1.363v86.453H161.41V287.252c14.979-2.725,35.739-4.769,63.986-4.769
		c30.636,0,53.097,6.466,67.729,18.719c13.613,11.232,22.471,29.273,22.471,50.713C315.595,373.698,308.792,391.739,295.853,403.992
		z M370.719,517.333c-20.082,0-38.123-5.107-50.364-11.914l8.159-30.289c9.528,5.787,27.569,11.908,42.545,11.908
		c18.382,0,26.546-7.486,26.546-18.375c0-11.234-6.804-17.023-27.226-24.174c-32.337-11.229-45.948-28.928-45.613-48.327
		c0-29.267,24.176-52.077,62.634-52.077c18.375,0,34.375,4.766,43.9,9.871l-8.164,29.61c-7.149-4.088-20.423-9.528-35.059-9.528
		c-14.979,0-23.144,7.147-23.144,17.358c0,10.551,7.824,15.654,28.933,23.144c29.947,10.89,43.9,26.208,44.247,50.708
		C438.113,495.205,414.623,517.333,370.719,517.333z"/>
	<path fill="#73B4F4" d="M227.099,314.478c-11.569,0-19.736,1.021-24.165,2.043v77.603h0.001c5.106,1.36,11.915,1.701,20.422,1.701
		c31.311,0,50.375-15.317,50.375-42.206C273.732,328.091,256.031,314.478,227.099,314.478z"/>
</g>
</svg>
