<?xml version="1.0" encoding="utf-8"?>
<!-- Generator: Adobe Illustrator 15.0.0, SVG Export Plug-In . SVG Version: 6.00 Build 0)  -->
<!DOCTYPE svg PUBLIC "-//W3C//DTD SVG 1.1//EN" "http://www.w3.org/Graphics/SVG/1.1/DTD/svg11.dtd">
<svg version="1.1" id="Calque_1" xmlns="http://www.w3.org/2000/svg" xmlns:xlink="http://www.w3.org/1999/xlink" x="0px" y="0px"
	 width="595.279px" height="595.276px" viewBox="0 107.898 595.279 595.276" enable-background="new 0 107.898 595.279 595.276"
	 xml:space="preserve">
<path fill="#6181B6" d="M297.64,276.957c-156.912,0-284.125,64.467-284.125,143.988c0,79.521,127.213,143.988,284.125,143.988
	s284.125-64.467,284.125-143.988C581.765,341.424,454.552,276.957,297.64,276.957z M223.709,448.998
	c-6.78,6.344-14.311,8.961-22.603,11.66c-8.292,2.701-18.844,2.143-31.675,2.143h-29.081l-8.06,46.506H98.337l30.299-158.121h65.295
	c19.645,0,33.973,5.65,42.981,15.961c9.008,10.311,11.715,24.946,8.125,43.423c-1.484,7.613-3.981,14.692-7.507,20.999
	C234.001,437.878,229.392,443.771,223.709,448.998z M322.819,462.8l13.398-67.062c1.525-7.85,0.967-13.682-1.679-16.533
	c-2.651-2.855-8.288-4.767-16.905-4.767h-26.927L273.355,462.8h-33.689l30.299-153.47h33.689l-8.055,41.855h30.01
	c18.887,0,31.908,3.791,39.075,10.375c7.166,6.585,9.314,15.608,6.45,30.359l-14.097,70.88H322.819z M510.048,410.816
	c-1.479,7.613-3.981,14.57-7.502,20.873c-3.524,6.311-8.129,12.082-13.816,17.309c-6.781,6.344-14.314,8.961-22.603,11.66
	c-8.287,2.701-18.849,2.143-31.68,2.143h-29.08l-8.056,46.506h-33.954l30.295-158.121h65.299c19.645,0,33.973,5.65,42.977,15.961
	C510.927,377.457,513.638,392.344,510.048,410.816z M446.083,374.439h-23.258l-12.683,65.109h20.658
	c13.683,0,23.886-1.35,30.583-6.512c6.706-5.152,11.222-13.152,13.57-25.211c2.251-11.585,1.228-20.621-3.069-25.383
	C467.583,377.68,458.984,374.439,446.083,374.439z M181.068,374.439h-23.263l-12.682,65.109h20.653
	c13.687,0,23.886-1.35,30.587-6.512c6.701-5.152,11.222-13.152,13.565-25.211c2.251-11.585,1.229-20.621-3.069-25.383
	C202.563,377.68,193.968,374.439,181.068,374.439z"/>
</svg>
