<?xml version="1.0" encoding="utf-8"?>
<!-- Generator: Adobe Illustrator 15.0.0, SVG Export Plug-In . SVG Version: 6.00 Build 0)  -->
<!DOCTYPE svg PUBLIC "-//W3C//DTD SVG 1.1//EN" "http://www.w3.org/Graphics/SVG/1.1/DTD/svg11.dtd">
<svg version="1.1" id="Calque_1" xmlns="http://www.w3.org/2000/svg" xmlns:xlink="http://www.w3.org/1999/xlink" x="0px" y="0px"
	 width="595.279px" height="595.275px" viewBox="0 123.307 595.279 595.275" enable-background="new 0 123.307 595.279 595.275"
	 xml:space="preserve">
<g>
	<path fill="#5058A6" d="M334.845,506.669v-52.412c0-11.613-3.534-17.813-11.612-17.813c-8.125,0-11.641,6.199-11.641,17.813v52.412
		c0,11.627,3.516,17.031,11.641,17.031C331.315,523.701,334.845,518.296,334.845,506.669z"/>
	<path fill="#5058A6" d="M391.341,588.228c4.896-5.66,8.989-10.059,12.91-14.301c7.813-8.408,14.565-15.672,26.871-32.461
		c12.092-16.463,19.919-28.834,18.658-50.125c-0.642-10.928-1.088-18.449-8.208-27.252c-4.298-5.293-12.245-12.984-20.705-21.096
		c-9.134-8.813-17.067-17.193-27.82-28.369c-10.789-11.217-24.704-39.772-24.704-39.772c-4.846-11.068-14.649-36.01-14.649-56.347
		l-0.465-13.087c0-0.567,0.047-0.735,0.074-0.735H195.326v112.034c9.301-10.246,20.635-13.748,31.452-13.748
		c17.57,0,33.656,10.25,33.656,32.941v115.252h-41.855V449.951c0-9.189-4.307-13.5-11.348-13.5c-7.873,0-11.905,5.115-11.905,13.5
		v101.213h-41.855V304.679H9.301v325.545h27.904V406.993H74.41v17.262c9.301-14.565,21.783-21.29,33.67-21.29
		c21.096,0,36.089,16.184,36.089,45.624v66.438c0,24.881-16.603,41.344-35.796,41.344c-11.068,0-20.012-5.102-29.313-17.012v90.865
		h190.676V406.993h37.205v17.262c9.301-14.565,21.792-21.29,33.661-21.29c21.095,0,36.098,16.184,36.098,45.624v66.438
		c0,24.881-16.612,41.344-35.81,41.344c-11.06,0-19.998-5.102-29.299-17.012v90.865h43.027l12.612-13.566
		c5.637-7.068,12.292-14.789,20.17-23.857l3.943-4.568L391.341,588.228z"/>
	<path fill="#5058A6" d="M102.314,506.669v-52.412c0-11.613-3.516-17.813-11.604-17.813c-8.11,0-11.649,6.199-11.649,17.813v52.412
		c0,11.627,3.534,17.031,11.649,17.031C98.803,523.701,102.314,518.296,102.314,506.669z M587.304,476.912
		c0-21.58-15.431-53.893-15.431-53.893c-2.418-5.627-10.585-16.026-15.84-25.327h0.116c-1.684,0-2.846-3.186-2.846-3.186
		c-15.38-17.659-38.754-37.112-49.019-49.794c-12.045-14.863-12.384-28.648-13.021-39.512c-1.748-29.308,10.11-46.916,22.798-64.225
		c19.188-26.127,26.104-30.973,40.855-48.05c9.44-10.92,17.207-19.719,23.593-27.764H435.438
		c-8.511,10.873-25.797,31.819-35.67,50.403c-13.021,24.602-23.765,43.056-24.812,88.334l0.456,14.603
		c0,21.579,15.468,53.854,15.468,53.854c2.409,5.636,10.571,16.035,15.789,25.336h-0.121c1.721,0,2.851,3.186,2.851,3.186
		c15.417,17.659,38.749,37.112,49.051,49.794c12.045,14.883,12.352,28.666,12.984,39.498c1.768,29.299-10.115,46.916-22.802,64.225
		c-19.17,26.156-26.091,30.982-40.847,48.088c-9.422,10.902-17.161,19.705-23.556,27.742h147.802
		c8.683-11.162,20.998-31.705,30.927-50.4c13.031-24.592,23.778-43.064,24.815-88.314l-0.465-14.604L587.304,476.912z"/>
</g>
</svg>
