<svg xmlns="http://www.w3.org/2000/svg" viewBox="0 0 128 128">
<g>
	<path fill="#D13FFA" d="M1,2.5v123.1h126V2.5H1z M64.9,64.5c-3.7,3.7-9.6,5.5-16.2,5.5c-1.8,0-3.4-0.1-4.6-0.3V89h-9.3V38.3
		c3.4-0.6,8-1.1,14.3-1.1c6.9,0,11.9,1.4,15.2,4.2c3,2.5,5,6.6,5,11.4S67.8,61.6,64.9,64.5z M96.9,60c-0.8-0.2-1.6-0.3-2.7-0.3
		c-4.5,0-7.5,2.9-8.4,7.1c-0.2,0.8-0.3,1.8-0.3,2.9V89h-9.4V63.8c0-5-0.1-8.6-0.3-12H84l0.3,7.1h0.3c1.8-5.3,6.2-7.9,10.1-7.9
		c0.9,0,1.4,0.1,2.2,0.2V60L96.9,60z"/>
	<path fill="#D13FFA" d="M49.5,44.3c-2.6,0-4.4,0.2-5.4,0.5v17.4l0,0c1.1,0.3,2.7,0.4,4.6,0.4c7,0,11.3-3.4,11.3-9.4
		C59.9,47.5,56,44.3,49.5,44.3z"/>
</g>
</svg>
