<?xml version="1.0" encoding="utf-8"?>
<!-- Generator: Adobe Illustrator 15.0.0, SVG Export Plug-In . SVG Version: 6.00 Build 0)  -->
<!DOCTYPE svg PUBLIC "-//W3C//DTD SVG 1.1//EN" "http://www.w3.org/Graphics/SVG/1.1/DTD/svg11.dtd">
<svg version="1.1" id="Calque_1" xmlns="http://www.w3.org/2000/svg" xmlns:xlink="http://www.w3.org/1999/xlink" x="0px" y="0px"
	 width="595.279px" height="585px" viewBox="0 0 595.279 585" enable-background="new 0 0 595.279 585" xml:space="preserve">
<g>
	<path fill="#D13FFA" d="M5.033,6.613v571.775h585.246V6.613H5.033z M301.574,294.498c-17.338,17.35-44.593,25.484-75.39,25.484
		c-8.146,0-15.577-0.351-21.237-1.414v89.907h-43.196V173.085c15.583-2.83,37.186-4.953,66.563-4.953
		c31.848,0,55.208,6.724,70.428,19.466c14.164,11.684,23.366,30.442,23.366,52.742C322.107,262.994,315.028,281.756,301.574,294.498
		z M450.255,274.322c-3.55-0.713-7.438-1.414-12.744-1.414c-20.888,0-35.038,13.445-38.938,32.918
		c-0.71,3.896-1.414,8.494-1.414,13.455v89.194H353.62V291.662c0-23.361-0.361-39.994-1.413-55.566h37.876l1.408,32.918h1.419
		c8.493-24.425,28.669-36.814,47.073-36.814c4.252,0,6.722,0.352,10.271,1.059V274.322z"/>
	<path fill="#D13FFA" d="M230.072,201.404c-12.035,0-20.522,1.062-25.126,2.123v80.703h0.001c5.308,1.422,12.381,1.771,21.237,1.771
		c32.563,0,52.387-15.926,52.387-43.891C278.571,215.563,260.16,201.404,230.072,201.404z"/>
</g>
</svg>
