<svg xmlns="http://www.w3.org/2000/svg" viewBox="0 0 128 128">
<path fill="#DB4900" d="M44.34,46.353c0,0.937-0.76,1.692-1.692,1.692s-1.692-0.76-1.692-1.692c0-0.937,0.76-1.692,1.692-1.692
	S44.34,45.42,44.34,46.353z M45.133,38.281c-5.498,0-9.961,4.459-9.961,9.967c0,5.507,4.463,9.97,9.961,9.97
	c5.508,0,9.972-4.462,9.972-9.97S50.641,38.281,45.133,38.281z M45.383,54.522c-3.328,0-6.029-2.698-6.029-6.024
	c0-3.332,2.701-6.029,6.029-6.029s6.027,2.697,6.027,6.029C51.41,51.826,48.711,54.522,45.383,54.522z M88.287,48.049
	c0.938,0,1.691-0.756,1.691-1.692s-0.762-1.692-1.691-1.692c-0.939,0-1.691,0.761-1.691,1.692
	C86.596,47.289,87.354,48.049,88.287,48.049z M91.377,58.615c5.5,0,9.967-4.463,9.967-9.971c0-5.499-4.459-9.962-9.967-9.962
	c-5.502,0-9.969,4.455-9.969,9.962C81.408,54.152,85.875,58.615,91.377,58.615z M91.027,42.566c3.326,0,6.027,2.702,6.027,6.03
	s-2.701,6.03-6.027,6.03s-6.029-2.702-6.029-6.03S87.701,42.566,91.027,42.566z M114.072,61.74c0-13.666-5.48-26.049-14.354-35.082
	c-1.646-5.028-1.459-11.981,0.635-15.146c0.727-1.104,1.502-2.175,2.342-3.379c-7.422-1.26-13.734,0.863-17.967,6.158
	c-0.508,0.645-0.986,1.023-1.482,1.214c-5.932-2.474-12.432-3.841-19.25-3.841c-6.846,0-13.371,1.375-19.314,3.867
	c-0.521-0.182-1.023-0.563-1.567-1.24C38.894,9,32.582,6.873,25.155,8.133c0.833,1.204,1.614,2.273,2.345,3.379
	c2.123,3.211,2.282,10.325,0.561,15.366C19.315,35.895,13.92,48.183,13.92,61.74c0,6.375,1.201,12.473,3.375,18.085
	c0.545,1.535,1.041,3.091,1.551,4.644c0.462,1.416,0.91,2.822,1.32,4.234c1.213,4.155,1.957,8.446,2.072,12.771
	c0.039,1.188,0.014,2.371-0.017,3.549c-0.013,0.41-0.026,0.816-0.039,1.222l10.144-9.279c1.838,1.695,4.342,3.223,7.354,4.527
	c-3.057,2.137-5.059,5.676-5.059,9.686c0,3.42,1.467,6.492,3.791,8.648c-0.226-0.75-0.351-1.543-0.351-2.373
	c0-4.539,3.683-8.22,8.222-8.22c4.541,0,8.219,3.681,8.219,8.22c0,0.977-0.174,1.897-0.483,2.768
	c2.581-2.162,4.226-5.418,4.226-9.047c0-1.99-0.496-3.859-1.359-5.504c2.709,0.285,5.533,0.432,8.441,0.432
	c1.982,0,3.92-0.067,5.82-0.199c-0.795,1.587-1.244,3.378-1.244,5.271c0,3.424,1.463,6.49,3.791,8.647
	c-0.227-0.75-0.355-1.549-0.355-2.372c0-4.546,3.688-8.224,8.227-8.224c4.537,0,8.221,3.688,8.221,8.224
	c0,0.971-0.18,1.901-0.484,2.768c2.582-2.168,4.221-5.414,4.221-9.047c0-3.619-1.621-6.851-4.186-9.019
	c3.117-1.194,5.775-2.614,7.826-4.207l8.766,8.021c-0.018-0.406-0.025-0.813-0.035-1.219c-0.035-1.183-0.057-2.365-0.018-3.547
	c0.121-4.326,0.863-8.619,2.072-12.777c0.408-1.406,0.854-2.818,1.318-4.236c0.535-1.633,1.055-3.272,1.633-4.891l0,0
	c2.051-5.469,3.182-11.387,3.182-17.572L114.072,61.74z M19.737,76.674l-1.874-5.623l2.491,2.291l3.866-1.363L19.737,76.674z
	 M20.703,80.696l2.495,2.291l3.868-1.366l-4.484,4.694L20.703,80.696z M26.828,72.321l2.317,2.479l3.954-1.078l-4.821,4.346
	L26.828,72.321z M24.973,96.104l-1.877-5.619l2.494,2.293l3.867-1.368L24.973,96.104z M31.18,88.11l-1.879-5.623l2.49,2.291
	l3.867-1.362L31.18,88.11z M35.426,74.041l2.318,2.479l3.953-1.076l-4.824,4.349L35.426,74.041z M64.146,82.267
	c-0.996-1.479-1.825-3.146-2.603-4.647c-0.885-1.724-1.777-3.439-2.676-5.152c-1.713-3.281-4.26-6.617-5.109-10.321
	c-3.416,2.774-7.766,4.437-12.51,4.437c-10.949,0-19.828-8.881-19.828-19.832s8.877-19.834,19.828-19.834
	c2.918,0,5.68,0.635,8.17,1.762c1.127,0.475,2.207,1.057,3.226,1.727c5.146,3.564,8.511,9.504,8.511,16.229
	c0,0.971-0.072,1.916-0.207,2.844c1.012-0.318,2.085-0.488,3.197-0.488c1.287,0,2.516,0.233,3.656,0.656
	c-0.172-1.048-0.268-2.115-0.268-3.211c0-1.713,0.232-3.375,0.639-4.964c0.025-0.078,0.047-0.155,0.068-0.233
	c0.113-0.396,0.234-0.793,0.363-1.183c0.094-0.276,0.189-0.544,0.293-0.812c0.043-0.108,0.084-0.221,0.129-0.328
	C71.979,31.67,79.088,26.57,87.389,26.57c10.953,0,19.828,8.877,19.828,19.828c0,10.955-8.875,19.832-19.828,19.832
	c-4.119,0-7.947-1.256-11.119-3.404c-0.57-0.389-1.113-0.808-1.641-1.244c-0.414,1.978-1.42,3.652-2.418,5.535
	c-1.363,2.563-2.709,5.146-4.057,7.718l-4.011,7.428v0.004H64.146z M101.416,72.996l-1.449,5.745l-4.82-4.348l3.957,1.072
	l2.313-2.479V72.996L101.416,72.996z M86.553,76.112l3.953,1.08l2.314-2.479l-1.451,5.744L86.553,76.112z M97.074,88.785
	l-4.48-4.695l3.867,1.363l2.49-2.291L97.074,88.785z M103.271,96.778l-4.479-4.694l3.867,1.366l2.494-2.293L103.271,96.778z
	 M105.664,86.989l-4.48-4.696l3.867,1.364l2.496-2.293L105.664,86.989z M108.504,77.347l-4.48-4.691l3.869,1.363l2.494-2.291
	L108.504,77.347z M64.116,50.971c-5.128,0-9.288,4.157-9.288,9.292c0,4.101,2.891,7.645,4.704,11.115
	c0.776,1.492,1.554,2.985,2.331,4.479c0.669,1.308,1.395,2.752,2.262,4.039l3.488-6.457c1.17-2.24,2.34-4.479,3.521-6.711
	c1.131-2.133,2.279-3.966,2.279-6.467c0-5.137-4.16-9.297-9.298-9.297V50.971L64.116,50.971z"/>
</svg>
