<svg xmlns="http://www.w3.org/2000/svg" viewBox="0 0 128 128">
<g>
	<polygon fill="#14161A" points="39.8,80.8 48.8,89.2 88.3,89.2 79.3,80.8 	"/>
	<polygon fill="#14161A" points="39.8,68.1 79.3,68.1 88.3,59.7 48.8,59.7 	"/>
	<polygon fill="#14161A" points="88.3,47.1 79.3,38.7 39.8,38.7 48.8,47.1 	"/>
	<path fill="#14161A" d="M29.7,49.5l-22,22c-0.8,0.8-1.2,1.8-1.2,3c0,1.1,0.4,2.2,1.2,3l22,22l5.9-5.9L16.5,74.5l19.1-19.1
		L29.7,49.5z"/>
	<path fill="#14161A" d="M120.4,50.5l-22-22l-5.9,5.9l19.1,19.1L92.5,72.6l5.9,5.9l22-22c0.8-0.8,1.2-1.9,1.2-3
		C121.5,52.3,121.2,51.2,120.4,50.5z"/>
</g>
</svg>
