<svg xmlns="http://www.w3.org/2000/svg" viewBox="0 0 128 128">
<path fill="#BC1142" d="M103.813,58.352l-0.869-1.55c0.033-11.137-5.053-15.675-10.987-19.119c1.801-0.482,3.646-0.872,4.158-3.165
	c3.086-0.803,3.73-2.255,4.036-3.786c0.808-0.548,3.509-2.08,3.226-4.715c1.509-1.058,2.354-2.417,1.927-4.343
	c1.623-1.8,2.051-3.286,1.364-4.659c1.947-2.459,1.08-3.731,0.25-5.026c1.457-2.687,0.166-5.572-3.912-5.09
	c-1.623-2.423-5.166-1.87-5.713-1.861c-0.611-0.779-1.42-1.443-3.905-1.118c-1.616-1.461-3.416-1.216-5.277-0.497
	c-2.204-1.74-3.67-0.348-5.337,0.181c-2.667-0.873-3.284,0.325-4.599,0.807c-2.91-0.617-3.795,0.724-5.196,2.135l-1.625-0.028
	c-4.395,2.59-6.579,7.861-7.354,10.576c-0.776-2.715-2.953-7.986-7.352-10.576l-1.626,0.028c-1.397-1.411-2.285-2.751-5.198-2.135
	c-1.311-0.492-1.925-1.68-4.596-0.807c-1.093-0.348-2.1-1.067-3.288-1.03l0,0c-0.622,0.018-1.288,0.246-2.048,0.844
	c-1.856-0.72-3.659-0.965-5.274,0.492c-2.49-0.321-3.297,0.343-3.91,1.123c-0.548-0.009-4.088-0.561-5.712,1.866
	c-4.081-0.487-5.374,2.395-3.913,5.086c-0.831,1.29-1.696,2.566,0.253,5.03c-0.689,1.364-0.262,2.854,1.364,4.654
	c-0.429,1.926,0.414,3.281,1.924,4.343c-0.286,2.64,2.42,4.167,3.222,4.715c0.309,1.536,0.954,2.983,4.04,3.786
	c0.508,2.288,2.359,2.688,4.158,3.165c-5.931,3.449-11.021,7.987-10.986,19.124l-0.87,1.55c-6.801,4.134-12.926,17.429-3.355,28.239
	c0.622,3.381,1.673,5.813,2.608,8.5c1.396,10.836,10.506,15.906,12.912,16.516c3.52,2.678,7.269,5.226,12.348,7.008
	c4.787,4.927,9.97,6.813,15.184,6.813c0.076,0,0.149,0,0.231,0c5.214,0.004,10.396-1.875,15.181-6.813
	c5.076-1.782,8.83-4.33,12.354-7.008c2.403-0.604,11.514-5.68,12.91-16.516c0.928-2.688,1.98-5.119,2.607-8.5
	C116.735,75.781,110.62,62.483,103.813,58.352z M97.659,56.441c-0.356,4.492-23.368-15.611-19.397-16.28
	C89.051,38.342,98.021,44.746,97.659,56.441z M72.392,9.595c0.195,1.007,0.417,1.647,0.684,1.833
	c1.274-1.392,2.323-2.821,3.971-4.158c0.005,0.789-0.389,1.633,0.59,2.264c0.882-1.206,2.08-2.288,3.667-3.202
	c-0.771,1.336-0.14,1.745,0.278,2.297c1.211-1.053,2.355-2.12,4.594-2.946c-0.607,0.756-1.467,1.494-0.557,2.357
	c1.242-0.789,2.5-1.577,5.461-2.144c-0.664,0.756-2.047,1.513-1.211,2.269c1.559-0.608,3.295-1.053,5.211-1.304
	c-0.914,0.767-1.686,1.519-0.934,2.112c1.671-0.524,3.98-1.225,6.242-0.622l-1.426,1.458c-0.157,0.194,3.342,0.153,5.647,0.186
	c-0.84,1.188-1.702,2.339-2.204,4.376c0.227,0.241,1.375,0.106,2.45,0c-1.104,2.367-3.026,2.96-3.476,3.972
	c0.672,0.52,1.609,0.386,2.636,0.028c-0.795,1.67-2.465,2.812-3.787,4.157c0.329,0.242,0.914,0.391,2.297,0.223
	c-1.226,1.313-2.696,2.515-4.44,3.591c0.313,0.362,1.373,0.353,2.357,0.371c-1.582,1.578-3.615,2.386-5.527,3.416
	c0.953,0.659,1.635,0.501,2.358,0.501c-1.353,1.123-3.647,1.708-5.772,2.385c0.402,0.641,0.808,0.816,1.68,0.993
	c-2.256,1.271-5.485,0.691-6.395,1.336c0.217,0.641,0.844,1.049,1.582,1.396c-3.635,0.214-13.556-0.134-15.452-7.758
	c3.718-4.144,10.491-9.007,22.152-15.016c-9.071,3.085-17.258,7.188-24.106,12.844c-8.054-3.805-2.496-13.406,1.43-17.225V9.595
	L72.392,9.595z M63.956,37.094L63.956,37.094c5.707-0.061,12.779,4.265,12.757,8.339c-0.023,3.596-4.965,6.511-12.71,6.45
	c-7.585-0.088-12.692-3.657-12.673-7.138c0.014-2.872,6.193-7.814,12.631-7.647L63.956,37.094z M35.083,34.017
	c0.865-0.176,1.269-0.353,1.677-0.993c-2.129-0.677-4.424-1.262-5.775-2.385c0.729,0.009,1.408,0.158,2.357-0.501
	c-1.904-1.03-3.944-1.847-5.52-3.416c0.981-0.019,2.047-0.01,2.355-0.366c-1.743-1.086-3.216-2.289-4.437-3.597
	c1.375,0.167,1.961,0.019,2.294-0.223c-1.322-1.346-2.991-2.492-3.789-4.158c1.028,0.353,1.963,0.492,2.638-0.027
	c-0.445-1.012-2.371-1.606-3.473-3.973c1.079,0.107,2.223,0.241,2.453,0c-0.497-2.036-1.358-3.186-2.205-4.375
	c2.312-0.032,5.808,0.01,5.652-0.186L27.883,8.36c2.257-0.608,4.562,0.097,6.239,0.622c0.752-0.594-0.014-1.346-0.93-2.112
	c1.914,0.26,3.65,0.696,5.211,1.304c0.838-0.756-0.541-1.513-1.211-2.27c2.961,0.566,4.216,1.351,5.459,2.145
	c0.902-0.863,0.054-1.602-0.555-2.357c2.232,0.826,3.383,1.897,4.594,2.947c0.409-0.553,1.047-0.96,0.281-2.297
	c1.587,0.915,2.78,1.995,3.664,3.202c0.979-0.631,0.585-1.476,0.589-2.265c1.65,1.336,2.694,2.766,3.973,4.158
	c0.258-0.195,0.485-0.826,0.685-1.833c3.931,3.81,9.484,13.416,1.424,17.225c-6.852-5.647-15.035-9.759-24.1-12.84
	c11.657,6.014,18.432,10.872,22.145,15.012c-1.902,7.624-11.828,7.976-15.455,7.763c0.743-0.352,1.364-0.761,1.583-1.401
	c-0.912-0.646-4.137-0.065-6.39-1.336L35.083,34.017z M48.463,39.819c3.973,0.664-19.044,20.761-19.397,16.283
	C28.705,44.408,37.677,38,48.463,39.819z M24.296,84.604c-5.594-4.501-7.395-17.675,2.975-23.597
	C33.519,59.326,29.38,86.864,24.296,84.604z M46.102,108.187c-3.156,1.897-10.815,1.117-16.26-6.705
	c-3.673-6.563-3.197-13.245-0.622-15.203c3.854-2.348,9.812,0.816,14.397,6.145c3.996,4.813,5.817,13.272,2.48,15.765
	L46.102,108.187L46.102,108.187z M39.902,79.476c-5.789-3.791-6.833-12.391-2.329-19.201c4.505-6.813,12.844-9.262,18.631-5.466
	c5.789,3.787,6.833,12.385,2.333,19.203c-4.501,6.813-12.844,9.258-18.631,5.467h-0.004V79.476z M63.974,121.597
	c-6.938,0.297-13.743-5.686-13.657-7.764c-0.104-3.039,8.448-5.416,14.026-5.271c5.612-0.25,13.143,1.811,13.158,4.532
	C77.599,115.736,70.675,121.712,63.974,121.597z M78.257,91.605c0.042,7.114-6.181,12.919-13.897,12.946
	c-7.718,0.037-14.005-5.692-14.042-12.812c0-0.043,0-0.089,0-0.14c-0.044-7.113,6.181-12.91,13.899-12.947
	c7.717-0.041,14.005,5.703,14.041,12.813C78.257,91.517,78.257,91.56,78.257,91.605z M69.497,73.323
	c-4.502-6.812-3.459-15.412,2.329-19.203c5.796-3.792,14.134-1.346,18.636,5.466c4.502,6.813,3.457,15.406-2.334,19.202
	C82.331,82.574,73.998,80.136,69.497,73.323z M97.792,101.861c-5.977,8.297-14.078,8.622-17.086,6.312
	c-3.154-2.975-0.751-12.215,3.574-17.281l0,0c4.945-5.586,10.235-9.229,13.926-6.375C100.689,86.984,102.137,96.292,97.792,101.861
	L97.792,101.861z M102.472,84.259c-5.087,2.262-9.227-25.267-2.971-23.597C109.868,66.584,108.067,79.763,102.472,84.259z"/>
</svg>
