<?xml version="1.0" encoding="utf-8"?>
<!-- Generator: Adobe Illustrator 15.0.0, SVG Export Plug-In . SVG Version: 6.00 Build 0)  -->
<!DOCTYPE svg PUBLIC "-//W3C//DTD SVG 1.1//EN" "http://www.w3.org/Graphics/SVG/1.1/DTD/svg11.dtd">
<svg version="1.1" id="Calque_1" xmlns="http://www.w3.org/2000/svg" xmlns:xlink="http://www.w3.org/1999/xlink" x="0px" y="0px"
	 width="595.279px" height="595.275px" viewBox="0 123.307 595.279 595.275" enable-background="new 0 123.307 595.279 595.275"
	 xml:space="preserve">
<g>
	<circle fill="#61DAFB" cx="297.64" cy="420.945" r="53.017"/>
	<path fill="#61DAFB" d="M499.012,333.513c-10.231-3.72-20.928-7.441-32.089-10.696c2.79-11.162,5.115-22.323,6.976-33.02
		c9.767-61.388-0.93-104.639-30.694-121.381c-8.836-5.116-18.603-7.441-29.764-7.441c-32.555,0-73.945,24.183-115.801,64.644
		c-41.855-40.46-83.246-64.644-115.801-64.644c-11.161,0-20.928,2.325-29.764,7.441c-29.764,17.208-40.46,60.458-30.694,121.381
		c1.86,10.696,4.186,21.858,6.977,33.02c-11.162,3.255-21.858,6.511-32.09,10.696C38.135,355.836,6.511,386.53,6.511,420.945
		c0,34.414,32.089,65.109,89.757,87.431c10.231,3.721,20.928,7.441,32.09,10.697c-2.791,11.16-5.116,22.322-6.977,33.02
		c-9.766,61.389,0.931,104.639,30.694,121.381c8.836,5.115,18.603,7.441,29.764,7.441c33.02,0,74.41-24.184,115.801-64.645
		c41.855,40.461,83.246,64.645,115.801,64.645c11.161,0,20.928-2.326,29.764-7.441c29.765-17.207,40.461-60.459,30.694-121.381
		c-1.86-10.697-4.186-21.859-6.976-33.02c11.161-3.256,21.857-6.512,32.089-10.697c58.133-22.322,89.757-53.018,89.757-87.431
		C588.769,386.53,557.145,355.836,499.012,333.513z M430.183,191.669c19.067,11.162,25.578,45.576,17.672,94.408
		c-1.395,9.766-3.72,19.998-6.511,30.694c-24.183-5.581-49.762-9.301-76.735-11.626c-15.812-22.323-32.089-42.321-48.366-60.458
		c34.415-33.95,69.294-57.203,97.663-57.203C419.951,187.483,425.532,188.879,430.183,191.669z M378.096,467.451
		c-8.371,14.883-18.138,29.766-28.369,44.646c-17.207,1.395-34.414,1.861-52.087,1.861c-18.137,0-35.345-0.467-52.087-1.861
		c-10.231-14.881-19.532-29.764-27.903-44.646c-8.837-15.346-17.208-31.158-24.648-46.505c7.44-15.347,15.812-31.16,24.648-46.506
		c8.371-14.882,18.137-29.764,28.368-44.646c17.208-1.396,34.415-1.86,52.087-1.86c18.138,0,35.345,0.465,52.087,1.86
		c10.231,14.882,19.533,29.764,27.904,44.646c8.836,15.347,17.207,31.159,24.648,46.506
		C394.838,436.292,386.932,451.64,378.096,467.451z M416.696,452.105c6.977,16.277,12.557,32.088,17.673,47.9
		c-15.813,3.721-32.555,6.512-50.227,8.836c5.58-8.836,11.626-18.137,16.742-27.902C406.464,471.171,411.58,461.406,416.696,452.105
		L416.696,452.105z M297.64,578.136c-11.161-12.092-21.857-25.113-32.089-38.6c10.696,0.465,21.393,0.93,32.089,0.93
		s21.393-0.465,32.089-0.93C319.498,553.023,308.801,566.044,297.64,578.136z M211.139,508.376
		c-17.673-2.324-34.415-5.115-50.228-8.836c5.116-15.348,10.697-31.625,17.673-47.9c5.115,9.301,10.231,19.066,15.813,28.367
		C199.977,490.24,205.558,499.076,211.139,508.376L211.139,508.376z M178.584,389.786c-6.976-16.277-12.557-32.089-17.673-47.901
		c15.813-3.72,32.555-6.511,50.228-8.836c-5.581,8.836-11.627,18.137-16.742,27.904
		C188.816,370.718,183.699,380.484,178.584,389.786z M297.64,263.754c11.161,12.092,21.858,25.113,32.089,38.6
		c-10.696-0.465-21.393-0.93-32.089-0.93s-21.393,0.465-32.089,0.93C275.782,288.867,286.479,275.846,297.64,263.754z
		 M400.884,361.417l-16.742-27.904c17.672,2.325,34.414,5.116,50.227,8.836c-5.115,15.347-10.696,31.624-17.673,47.901
		C411.58,380.484,406.465,370.718,400.884,361.417z M147.425,286.077c-7.906-48.832-1.396-83.246,17.672-94.408
		c4.651-2.79,10.231-4.186,16.277-4.186c27.904,0,62.784,22.788,97.663,57.203c-16.277,17.672-32.554,38.135-48.366,60.458
		c-26.974,2.325-52.552,6.511-76.735,11.626C151.146,306.075,149.285,295.843,147.425,286.077L147.425,286.077z M32.554,420.945
		c0-21.858,26.509-45.111,73.016-62.318c9.301-3.72,19.532-6.976,29.764-9.766c7.441,23.253,16.742,47.901,27.904,72.55
		c-11.162,24.648-20.929,48.832-27.904,72.085C71.155,474.892,32.555,446.988,32.554,420.945L32.554,420.945z M165.097,650.22
		c-19.067-11.16-25.578-45.576-17.672-94.406c1.396-9.768,3.721-19.998,6.511-30.695c24.184,5.582,49.762,9.301,76.735,11.627
		c15.813,22.322,32.089,42.32,48.366,60.459c-34.414,33.949-69.294,57.201-97.663,57.201
		C175.328,654.406,169.748,653.011,165.097,650.22L165.097,650.22z M447.855,555.814c7.906,48.83,1.396,83.246-17.672,94.406
		c-4.65,2.791-10.231,4.186-16.277,4.186c-27.903,0-62.783-22.787-97.663-57.201c16.277-17.674,32.555-38.137,48.366-60.459
		c26.974-2.326,52.553-6.512,76.735-11.627C444.135,535.816,445.995,546.046,447.855,555.814z M489.711,483.263
		c-9.302,3.721-19.533,6.977-29.765,9.768c-7.44-23.254-16.742-47.902-27.903-72.551c11.161-24.648,20.928-48.832,27.903-72.084
		c64.179,18.603,102.779,46.506,102.779,72.55C562.726,442.802,535.752,466.056,489.711,483.263z"/>
</g>
</svg>
