<?xml version="1.0" encoding="utf-8"?>
<!-- Generator: Adobe Illustrator 15.0.0, SVG Export Plug-In . SVG Version: 6.00 Build 0)  -->
<!DOCTYPE svg PUBLIC "-//W3C//DTD SVG 1.1//EN" "http://www.w3.org/Graphics/SVG/1.1/DTD/svg11.dtd">
<svg version="1.1" id="Calque_1" xmlns="http://www.w3.org/2000/svg" xmlns:xlink="http://www.w3.org/1999/xlink" x="0px" y="0px"
	 width="595.279px" height="595.275px" viewBox="0 123.307 595.279 595.275" enable-background="new 0 123.307 595.279 595.275"
	 xml:space="preserve">
<g>
	<path fill="#E93442" d="M360.889,585.116c-0.466,0-0.466,0-0.466,0.465c-3.721,4.186-5.58,6.047-7.906,7.906
		c-6.511,5.115-13.951-0.465-18.603-3.256c-10.696-6.045-19.067-2.324-21.393,2.326c-1.86,4.65,0.465,10.695,6.046,9.766
		c7.906-0.93,8.371,0,14.417,3.721c11.161,6.977,19.067,3.256,22.788,0c3.256-2.791,5.116-5.115,6.976-8.371
		c3.256-6.045,0.466-11.162-0.93-12.557H360.889L360.889,585.116z M348.331,234.458h-1.859c-3.256,0-6.512,1.395-9.767,1.86
		c-11.162,0.93-20.928,4.651-27.438,7.906c-0.466,0-0.466-0.465-0.466-0.465l0.931-0.465l5.581,0.93
		c18.137-1.86,33.019,1.86,33.949,7.441c0.465,4.186-7.441,8.836-19.067,11.626c-0.466,0-0.931,0.931-0.931,1.396
		s0.465,1.395,0.931,1.395c4.65,1.395,10.696,2.326,16.742,2.326c18.603,0.465,33.949-7.441,33.949-16.277
		C381.817,243.76,366.934,234.458,348.331,234.458z M297.64,163.769c-160.446,0-290.199,129.752-290.199,289.734
		c0,32.554,5.116,64.644,15.348,92.548h19.997c17.673,0,34.415-4.186,48.367-11.162c3.72-1.861,7.44-2.791,11.626-2.791
		c8.837,0,16.742,3.721,21.394,11.627c4.186,7.441,7.905,11.627,13.021,14.416c4.186,2.791,9.767,4.652,17.672,4.652
		c3.721,0,9.767-0.932,11.162-5.117c1.86-4.65-0.465-7.906-6.046-10.23c-7.906-3.256-9.767-7.906-13.952-15.348
		s-13.021-11.162-14.417-25.113c-1.395-13.951,9.302-31.158,30.694-25.578c15.347,4.186,25.113,22.787,28.834,29.299
		c1.86,3.256,8.836,7.441,14.417,2.326c5.581-5.117,10.696-5.117,14.882,1.395c3.721,5.58,29.764,40.461,58.133,41.391
		c28.834,0.93,44.181-6.512,56.737-6.047c8.836,0.467,13.021,4.652,18.138,5.582c8.836,1.395,14.882-6.512,24.648-6.047
		c7.906,0.465,16.277,5.582,25.113,5.582s27.438-10.697,26.974-6.047c-0.465,7.906-6.511,21.393-7.906,27.904
		c-0.93,4.186,0,14.883-2.79,23.719c-2.325,8.836-10.231,19.531-12.557,22.787c-6.977,10.697-12.092,13.953-18.138,25.113
		c-6.511,12.557-17.207,24.184-19.998,27.904c-3.72,4.65,19.998,0,28.369-7.906c6.976-6.512,19.532-26.973,39.53-31.625
		c13.487-2.789,15.813-7.906,14.417-13.021c-0.465-0.465-0.465-1.395-0.465-1.859c0-1.861,0.93-3.256,2.79-4.186
		c13.952-5.582,32.555-9.301,53.018-9.301c12.092,0,23.718,1.395,34.88,4.186c29.299-45.576,46.506-99.523,46.506-157.656
		C587.839,293.986,458.086,163.769,297.64,163.769L297.64,163.769z M533.892,448.387c-13.952,76.27-139.054,101.85-260.435,65.109
		C157.192,478.616,55.808,408.857,67.434,367.931c6.977-23.718,44.646-33.949,94.873-28.369
		c-7.441,15.347-6.976,33.95,26.044,54.413c40.925,23.253,109.754,42.786,128.356,40.925c6.977-0.465,13.021-4.186,6.977-8.371
		c-6.046-4.186-11.627-12.556-15.348-26.973c-1.86-7.906-4.186-19.533-47.901-27.904c-93.942-18.137-90.222-44.646-87.432-59.528
		c0,0,8.371-37.67,11.627-50.692c3.255-13.022,12.557-43.251,73.015-29.764c34.88,7.906,53.947-1.86,63.248-4.186
		c26.044-6.511,55.343-1.86,71.155,14.417c16.742,17.208,39.53,69.294,50.227,108.825c5.58,19.998,4.186,29.299,1.395,36.275
		c-1.859,4.65-3.255,7.441-10.23,19.067c-1.396,1.86,0,4.186,2.325,2.791c18.137-9.301,22.322-21.858,25.113-31.159
		C510.639,387.929,539.938,413.507,533.892,448.387L533.892,448.387z M267.876,283.29c-13.952,0-24.184,1.86-33.02,1.86
		s-15.813-6.046-18.603-10.231c-2.79-3.255-11.161-6.511-15.347,4.186c-4.651,10.696,3.72,21.858,10.696,23.253
		c0,0,11.626,21.858,20.463,12.092c6.046-6.511,9.766-10.231,43.25-12.557c15.813-1.396,17.673-4.651,17.208-8.836
		C291.594,288.406,281.828,283.29,267.876,283.29L267.876,283.29z"/>
</g>
</svg>
