<?xml version="1.0" encoding="utf-8"?>
<!-- Generator: Adobe Illustrator 15.0.0, SVG Export Plug-In . SVG Version: 6.00 Build 0)  -->
<!DOCTYPE svg PUBLIC "-//W3C//DTD SVG 1.1//EN" "http://www.w3.org/Graphics/SVG/1.1/DTD/svg11.dtd">
<svg version="1.1" id="Calque_1" xmlns="http://www.w3.org/2000/svg" xmlns:xlink="http://www.w3.org/1999/xlink" x="0px" y="0px"
	 width="595.279px" height="595.275px" viewBox="0 123.307 595.279 595.275" enable-background="new 0 123.307 595.279 595.275"
	 xml:space="preserve">
<path fill="#CB6699" d="M5.669,384.465c0,3.27,0.963,5.427,1.502,7.525c3.516,13.64,11.073,25.346,20.04,36.023
	C39.982,443.23,55.621,455.48,71.643,467c13.896,9.99,28.076,19.756,42.027,29.672c2.396,1.701,4.66,3.66,7.26,5.748
	c-2.236,1.209-4.097,2.273-6.031,3.256c-18.412,9.338-36.126,19.807-52.455,32.488c-9.841,7.646-19.355,15.771-26.076,26.389
	c-10.813,17.076-14.64,35.27-6.58,54.695c2.354,5.674,5.943,10.576,11.008,14.199c1.642,1.172,3.483,2.334,5.404,2.789
	c4.92,1.158,9.934,1.916,14.914,2.832l14.105-0.008c15.599-1.391,29.797-6.734,42.628-15.59
	c20.054-13.84,33.563-32.396,39.372-56.211c4.223-17.311,4.395-34.639-0.581-51.869c-0.461-1.6-1.042-3.168-1.646-4.717
	c-0.604-1.547-1.316-3.055-2.153-4.984l31.978-18.389l0.479,0.41c-0.582,1.9-1.2,3.799-1.726,5.719
	c-3.8,13.879-6.325,27.998-5.418,42.4c0.967,15.348,5.251,29.713,14.235,42.535c7.265,10.371,24.574,10.756,32.294,0.348
	c2.739-3.697,5.395-7.561,7.39-11.686c5.214-10.768,10.041-21.725,15.021-32.607l0.87-1.99c-0.358,5.154-0.776,9.678-0.968,14.209
	c-0.297,7.072,0.116,14.105,2.535,20.834c2.069,5.758,5.59,10.059,12.185,10.818c4.511,0.516,8.105-1.549,11.422-4.168
	c5.181-4.088,9.39-9.139,12.515-14.877c8.841-16.236,17.919-32.373,25.932-49.018c8.669-18.002,16.25-36.531,24.3-54.84l1.33-3.246
	c1.902,7.473,3.228,14.793,5.669,21.723c2.837,8.041,6.349,15.891,10.171,23.523c1.81,3.604,1.6,5.943-0.907,8.965
	c-10.491,12.65-20.802,25.453-31.121,38.242c-2.284,2.824-4.558,5.697-6.46,8.781c-1.148,1.875-1.911,4.158-2.232,6.344
	c-0.618,4.176,1.963,8.203,6.432,9.166c4.083,0.879,8.432,1.205,12.594,0.898c14.403-1.061,27.48-6.117,39.042-14.684
	c14.98-11.096,19.789-26.238,16.161-44.186c-0.981-4.869-2.716-9.604-4.404-14.295c-0.758-2.117-0.809-3.6,0.572-5.572
	c11.976-17.1,22.207-35.242,31.722-53.803c0.377-0.73,0.763-1.461,1.424-2.242c3.083,16.045,7.725,31.508,16.039,45.539
	c-4.241,4.088-8.44,7.795-12.24,11.879c-8.366,8.994-15.621,18.76-19.407,30.67c-1.627,5.135-2.878,10.352-2.152,15.836
	c1.125,8.516,8.101,14.049,16.477,12.109c17.924-4.148,33.396-12.594,44.702-27.555c7.608-10.072,8.301-21.309,5.115-33.08
	c-0.874-3.199-1.911-6.348-3.027-10.018c4.423-1.371,8.734-3.018,13.194-4.037c23.155-5.283,46.06-4.361,68.373,4
	c13.026,4.883,23.551,13.055,29.792,25.908c7.622,15.715,3.409,30.625-11.403,40.559c-1.381,0.926-2.963,1.656-4.106,2.814
	c-0.702,0.711-1.126,2.135-0.953,3.115c0.098,0.572,1.608,1.289,2.479,1.279c4.869-0.037,8.817-2.59,12.607-5.213
	c9.497-6.572,16.426-15.412,17.919-27.053l0.293-0.875l-0.358-7.58c-0.144-0.438,0.107-0.869,0.075-1.201
	c-2.019-16.951-11.073-30.098-24.244-40.404c-15.254-11.928-33.266-16.84-52.314-17.615c-15.524-0.633-30.783,1.674-45.414,6.988
	c-4.171,1.512-8.306,3.303-12.501,4.99c-0.563-1.018-1.167-1.994-1.664-3.004c-4.307-8.816-9.525-17.244-10.679-27.355
	c-0.818-7.18-1.822-14.351-0.116-21.453c1.642-6.832,3.781-13.547,5.795-20.286c1.037-3.469,0.307-5.413-3.004-6.976
	c-1.153-0.544-2.409-1.019-3.655-1.2c-8.139-1.181-16.166-0.507-24.049,1.786c-2.79,0.813-4.818,2.376-5.437,5.464
	c-0.354,1.772-1.074,3.469-1.576,5.218c-2.061,7.269-3.521,14.678-6.851,21.603c-8.344,17.369-17.868,34.084-27.615,50.678
	c-1.056,1.791-2.168,3.549-3.498,5.721c-3.423-7.162-7.073-13.59-8.18-21.123c-1.251-8.52-2.237-17.027-0.116-25.48
	c1.576-6.307,3.637-12.497,5.534-18.72c0.897-2.958,0.483-4.511-2.195-6.069c-1.354-0.786-2.884-1.484-4.409-1.711
	c-8.44-1.251-16.756-0.595-24.899,2.037c-2.525,0.819-3.851,2.451-4.622,5.056c-2.27,7.683-4.205,15.552-7.391,22.857
	c-12.9,29.578-26.174,59.004-39.432,88.424c-2.768,6.143-6.009,12.072-9.13,18.053c-0.79,1.516-1.943,2.852-2.93,4.273
	c-0.791-0.934-1.098-1.576-1.093-2.217c0.023-3.781-0.428-7.674,0.293-11.33c2.181-11.059,4.692-22.057,7.339-33.014
	c2.186-9.051,4.729-18.018,7.152-27.008c0.813-3.008,0.828-5.822-1.335-8.352c-3.632-4.236-11.222-5.166-15.724-1.902l-1.99,1.125
	l0.386-3.209c0.949-6.877,1.14-13.732-0.749-20.508c-2.353-8.447-8.38-13.307-17.142-13.037c-4.083,0.127-8.371,0.824-12.152,2.313
	c-15.9,6.23-28.127,17.268-38.535,30.545c-0.944,1.205-2.19,2.303-3.521,3.041c-13.454,7.459-26.95,14.826-40.441,22.221
	l-15.018,8.227c-4.027-3.84-7.688-7.826-11.84-11.207c-12.683-10.344-25.569-20.43-38.34-30.658
	c-11.319-9.063-22.286-18.504-30.676-30.507c-6.241-8.929-10.264-18.7-10.649-29.741c-0.489-14.068,3.501-26.922,10.663-38.889
	c9.162-15.31,21.658-27.597,35.396-38.726c14.533-11.766,30.252-21.755,46.543-30.875c22.793-12.757,46.237-24.048,71.373-31.503
	c25.774-7.646,51.925-12.022,78.898-8.971c10.604,1.2,20.899,3.628,30.354,8.813c7.241,3.967,13.18,9.162,15.942,17.282
	c2.725,7.99,2.642,16.087,0.753,24.202c-3.837,16.435-12.836,29.982-24.16,42.088c-18.574,19.844-41.231,33.354-66.74,42.279
	c-14.72,5.148-29.862,8.38-45.414,9.688c-12.691,1.065-25.117-0.061-37.135-4.474c-7.957-2.925-14.887-7.399-20.458-13.891
	c-0.995-1.163-2.27-2.423-4.125-1.335c-1.818,1.07-2.14,2.8-1.53,4.553c1.019,2.911,1.958,5.943,3.544,8.548
	c3.985,6.534,9.799,11.273,16.198,15.337c12.291,7.818,26.029,10.445,40.274,11.055c21.616,0.935,42.706-2.292,63.499-8.092
	c29.686-8.278,55.496-22.899,76.196-45.967c17.235-19.207,29.545-40.883,32.182-67.057c1.288-12.775-0.083-25.29-6.064-36.945
	c-6.487-12.626-16.803-22.016-29.136-28.485c-17.961-9.417-37.345-14.901-57.352-14.901h-20.044
	c-24.229,0-47.655,6.944-70.425,15.227c-17.235,6.273-34.136,13.677-50.543,21.872c-35.73,17.854-69.006,39.382-96.338,68.983
	c-13.616,14.747-25.146,31.02-31.777,50.18c-1.939,5.609-3.781,11.622-5.167,17.421 M135.542,543.531
	c-1.549,20.736-10.947,37.549-26.309,51.166c-8.641,7.654-18.551,13.105-30.094,15.021c-4.186,0.693-8.469,0.861-12.529-0.873
	c-5.79-2.475-7.087-7.613-7.199-13.088c-0.172-8.725,2.884-16.611,7.074-24.117c5.469-9.785,13.486-17.246,22.048-24.213
	c13.487-10.979,28.118-20.271,43.103-29.043l1.13-0.465C135.082,526.476,136.184,534.927,135.542,543.531L135.542,543.531z
	 M252.543,453.406c-1.093,6.623-2.461,13.25-4.396,19.668c-6.688,22.217-15.277,43.744-24.564,64.982
	c-1.716,3.932-4.213,7.516-6.385,11.242c-0.335,0.576-0.833,1.074-1.316,1.553c-2.688,2.656-5.236,2.516-6.595-0.959
	c-1.581-4.035-2.553-8.355-3.391-12.631c-0.563-2.869-0.428-5.883-0.604-8.822c0.182-20.898,6.558-39.893,17.375-57.574
	c4.46-7.293,9.315-14.24,16.733-18.854c2.278-1.418,4.836-2.559,7.417-3.283C250.771,447.617,253.198,449.445,252.543,453.406
	L252.543,453.406z M332.366,555.107l28.689-33.5C362.251,534.048,341.105,558.882,332.366,555.107z M423.997,532.564
	c-2.027,1.164-4.236,2-6.315,3.074c-1.902,0.986-2.53-0.008-2.586-1.646c-0.037-1.111,0.126-2.273,0.433-3.352
	c3.874-13.664,11.003-25.328,21.611-34.814l0.744-0.383C442.93,509.558,437.098,525.058,423.997,532.564L423.997,532.564z"/>
</svg>
