<svg xmlns="http://www.w3.org/2000/svg" viewBox="0 0 128 128">
<g>
	<path fill="#93C01F" d="M110.2,90.8c0.5-1.6,1.7-3.5,1.2-5.2C107.4,84.1,109.3,89.3,110.2,90.8z"/>
	<path fill="#93C01F" d="M121.9,45.9L121.9,45.9c0-2-0.1-4-0.1-5.9c0-1.7,0-3.3,0-4.9c0.1-5.6,0.2-10.8-0.9-15.1
		c-1.2-4.9-3.8-7.9-8.1-9.5c-2.6-1-5.9-1-8.7-1h-0.6c-1.3,0-2.6,0.1-3.9,0.2l0,0c-1.2,0.1-2.2,0.2-3.1,0.2c-0.5,0-0.9,0-1.2-0.1
		c-0.2,0-0.8-0.6-1.2-1c-0.4-0.4-0.8-0.8-1.4-1.3c-5.5-4.3-13-6.6-21.1-6.6c-1.3,0-2.6,0.1-4,0.2c-10.5,0.9-17.7,6.4-22,10.8
		c-2.7,2.8-4.8,5.9-6.3,9.2s-2.5,7-3.2,11.4c-5.8,0.1-11.2,1-13.5,8.8c-0.9,2.9-0.9,6.9-0.8,11c-0.1-0.2-0.3-0.4-0.4-0.6
		c-1.3-1.6-3.9-2.6-6.8-2.6c-4.3,0-7.7,2.1-8.6,5.2l-0.1,0.2v0.1v0.1v13.2v0.1v0.1L6,68.3c1.4,5.4,4,8.8,8,10.3
		c2,0.7,5.1,1.2,8.4,1.2c2.7,0,5.3-0.3,7.3-0.8c2.4-0.6,4.7-2.1,6.3-4c0,3.1,0,6.1,0,8.9c0,5.4-0.1,11.1-0.1,16.6c0,1.5,0,3-0.1,4.4
		c-0.1,4.6-0.2,9,0.8,12.7c1.1,4.2,3.5,7,7.4,8.3c2,0.7,4.9,1.1,7.9,1.1c2.4,0,4.7-0.3,6.5-0.8c2.9-0.8,6.7-3.5,8.1-7.7
		c0.8-2.2,0.7-5,0.7-7.8c0-2.6-0.1-5.9,0.7-7c0.6-0.8,1.8-1.3,3.1-1.3c1.1,0,2.1,0.4,2.7,1.1c0.9,1,0.8,4.5,0.8,7
		c0,2.7-0.1,5.3,0.6,7.3c1,3,3.6,6.7,7.4,8c1.9,0.7,4.9,1.1,8.1,1.1c2.6,0,5-0.3,6.7-0.7c4.3-1.2,7-4.3,8.2-9.6
		c1-4.5,0.9-10.1,0.7-15.4c-0.1-2-0.1-4.1-0.1-6.1v-4.7c0.8,2.3,2.3,4.4,3.5,5.4l0.4,0.3l0.1,0.1h0.2l0.5,0.1c0.1,0,0.3,0,0.4,0
		c2.7,0,3.6-2.7,4-4l0,0c0.1-0.2,0.1-0.3,0.2-0.5c0.1-0.2,0.2-0.4,0.3-0.7v-0.1c0.7-1.7,1.1-3,1-4c-0.1-1.3-0.8-2.4-1.4-3.3
		c-0.3-0.5-0.7-1-0.8-1.3c-0.2-1-0.2-2.2-0.2-3.2c0-1.4,0-2.7-0.5-3.9c-0.8-2.1-2-3.7-3.9-5.1c5.6-1.1,9.4-4.3,11.1-9.3
		C122.2,57.6,122.1,51.9,121.9,45.9z M106.1,76.2c1.5,1.3,2.1,3.2,1.8,5.7c-0.1,0.4-0.1,0.7,0,1.1c-0.5,0.3-1.2,0.9-1.7,1.8
		L106.1,76.2L106.1,76.2z M103.2,67.9c-0.5,0-0.1,1.9,0.1,2.2c0.4,0.6,1.2,0.7,1.7,0.8c0.2,0,0.4,0.1,0.5,0.1
		c2.7,1.3,4.6,2.7,5.6,5.3c0.3,0.7,0.3,1.7,0.3,2.9s0,2.5,0.3,3.9c0.2,0.9,0.7,1.7,1.2,2.4c0.4,0.6,0.8,1.2,0.9,1.7
		c0,0.5-0.5,1.9-0.8,2.8c-0.1,0.3-0.2,0.6-0.3,0.8c-0.1,0.2-0.1,0.4-0.2,0.6c-0.3,0.8-0.6,1.8-1.1,1.9c-1.3-1.2-3.1-4.5-2.9-6.4
		c0.1-0.9,0.7-1.1,1.2-1.7c0.3-0.4,0.4-0.9,0.4-1.5c-0.1-0.6,0.2-2,0.2-2c0.2-2.7-0.3-5-1.5-6.8c-1.2-1.8-2.3-2.6-4.8-3.2l-0.8-0.2
		v0.8v22.8c0,2,0.1,4.1,0.1,6.2c0.3,10.3,0.6,20-6.8,22c-1.4,0.4-3.6,0.6-5.9,0.6c-2.9,0-5.5-0.3-7.1-0.9c-2.8-1-4.8-3.9-5.6-6.1
		c-0.5-1.6-0.5-4-0.4-6.3c0.1-3.5,0.1-7.1-1.5-9c-1.2-1.4-3-2.2-5-2.2c-2.2,0-4.2,0.9-5.4,2.5c-1.5,1.9-1.4,5.4-1.4,8.8
		c0,2.5,0.1,5.1-0.5,6.8c-1.1,3-3.9,5.3-6.1,5.8c-1.6,0.4-3.6,0.7-5.7,0.7c-2.6,0-5.3-0.4-6.9-1c-3-1.1-4.7-3.1-5.6-6.6
		c-0.8-3.2-0.7-7.3-0.6-11.6c0-1.4,0.1-2.9,0.1-4.4c0-5.5,0-11.1,0.1-16.6c0.1-10.8,0.1-21.9-0.1-32.4c0-0.3,0-0.6,0.1-0.9
		c0.1-1.1,0.2-2.5-0.9-3.4l-0.3-0.2l-0.3,0.1c-2,0.6-1.8,2.7-1.7,4.1c0,0.4,0.1,0.7,0.1,0.9c0,1.9,0,3.9,0.1,6.1
		c0.2,4.1,0.4,8.4-0.4,11.3c-0.9,3.2-3.5,5.8-6.7,6.7c-1.7,0.5-4,0.7-6.5,0.7c-3,0-5.7-0.4-7.4-1c-3.1-1.1-5-3.7-6.1-8.1V55.1
		c0.6-2.1,3.3-3,5.7-3c2,0,3.7,0.6,4.4,1.5c0.8,1,0.7,3.4,0.7,5.6c-0.1,2.6-0.1,5,1,6.1c0.4,0.4,1,0.6,1.6,0.6c0.1,0,0.1,0,0.2,0
		c2.3-0.1,2.3-2,2.3-4c0-0.3,0-0.7,0-1c0.1-2.1,0-4.4-0.1-6.7c-0.1-4.5-0.3-9.2,0.6-12.2c1.7-5.7,4.7-6.7,12.1-6.7
		c0.2,0,0.4,0,0.7,0h0.5l0.1-0.5c1.1-9.3,3.8-15.6,9-21c3.9-4.1,10.5-9.1,20.1-9.9c1.3-0.1,2.5-0.2,3.7-0.2c7.5,0,14.4,2.1,19.3,6
		c0.4,0.3,0.8,0.7,1.1,1c0.8,0.8,1.6,1.5,2.7,1.7c0.5,0.1,1.1,0.1,1.8,0.1c1,0,2.2-0.1,3.4-0.2c1.2-0.1,2.5-0.2,3.7-0.2
		c0.1,0,0.1,0,0.2,0h0.4c2.7,0,5.6,0.1,7.7,0.8c7.4,2.7,7.2,11.1,7.1,21.8c0,1.6,0,3.2,0,4.9c0,1.9,0.1,4,0.1,5.9
		c0.1,5.5,0.3,11.1-0.7,14c-1.5,4.5-5.1,7.1-10.7,7.6c0,0-0.1,0-0.2,0C107.4,67.6,104.2,67.9,103.2,67.9z"/>
	<path fill="#93C01F" d="M114.9,20.6c-1.3-2.9-5-4.9-8.1-5.2c-16.1-1.7-25.2,3.5-27.6,15.4c-0.3,1.5,0.5,2.8-1.5,2.6
		c-1.5-0.2-1-0.6-1.2-2c-0.1-0.9,0.1-2.2,0.3-3.2c1.7-8.5,7.6-11.7,13.4-14.8c-7.1-6.8-22.3-7.8-31.7-3.5
		c-10,4.6-16.9,15.3-17.2,28.2c-3.4,0.4-6-0.6-8.7,0.3c-5.5,1.8-4.9,9.1-4.9,16.9c0,7.2,1.1,14.6-6.1,12.8
		c-4.2-1.1-2.3-8.4-3.2-12.8c-1.3-0.7-4.6-1-5.8,0c-1.2,6.1-0.9,14,1.5,16.6c2.2,2.4,12.1,3.4,16,1.7c5.1-2.2,4.4-8.7,4.4-16.3
		c0-7.8-1.4-13.7,7-11.9c0,16,0,35.7,0,52.4c0,9.6-1.6,20.3,4.9,22.4c3,1,8.4,0.8,11.1,0c1.9-0.6,4.1-2.9,4.7-4.7
		c1.2-3.7-0.5-10.7,0.9-14c2.5-6,13.2-7.2,16,0.6c1.2,3.4-0.1,11.3,1.2,14.3c0.7,1.6,2.9,3.4,4.1,3.8c2.4,0.8,8.6,0.9,11.3,0
		c5.7-1.9,4.7-8.2,4.7-16c0-11.6,0-26.1,0-36.1c-10.4,0.9-17-3-20.7-8.7c-0.9-1.4-3-5.9-2.9-8.7c0-2.2-0.4-2.8,1.5-2.6
		c1.9,0.1,0.8,1.1,1.2,2.9c1.6,7.3,7,13.7,14.5,14.5c2.4,0.3,5.5,0,8.1,0c2.4,0,5.7,0.4,7.9-0.3c8.2-2.6,6.1-15.7,6.1-26.8
		C115.8,32.6,116.4,23.9,114.9,20.6z M59.6,35.2c-2.3,2.7-6.6,1.2-6.7-2C52.8,28.1,62,28.2,59.6,35.2z M112,28.9
		c-3.1-0.5-1.6-4.1-3.2-5.8c-1.7-1.8-4.1-1.2-7-2c-0.4-0.4-0.3-1.3-0.3-2c3.6-0.7,8.1,0.3,9.9,2.9C112.5,23.4,113.4,26.9,112,28.9z"
		/>
</g>
</svg>
