<?xml version="1.0" encoding="utf-8"?>
<!-- Generator: Adobe Illustrator 15.0.0, SVG Export Plug-In . SVG Version: 6.00 Build 0)  -->
<!DOCTYPE svg PUBLIC "-//W3C//DTD SVG 1.1//EN" "http://www.w3.org/Graphics/SVG/1.1/DTD/svg11.dtd">
<svg version="1.1" id="Calque_1" xmlns="http://www.w3.org/2000/svg" xmlns:xlink="http://www.w3.org/1999/xlink" x="0px" y="0px"
	 width="595.279px" height="691px" viewBox="0 72.445 595.279 691" enable-background="new 0 72.445 595.279 691"
	 xml:space="preserve">
<g>
	<path fill="#93C01F" d="M530.368,554.505c2.534-7.979,8.743-17.586,5.863-26.383C515.857,520.394,525.424,546.949,530.368,554.505z
		"/>
	<path fill="#93C01F" d="M589.213,328.7l-0.008-0.325c-0.243-9.776-0.494-19.886-0.494-29.208c0-8.356,0.127-16.614,0.249-24.602
		c0.432-28.104,0.839-54.652-4.601-76.258c-6.222-24.709-19.21-39.92-40.877-47.867c-13.343-4.896-29.65-5.057-44.037-5.2
		l-2.846-0.023c-6.484,0-13.188,0.592-19.671,1.165l-0.082,0.007c-5.8,0.514-11.248,0.997-15.814,0.997
		c-2.503,0-4.523-0.148-6.005-0.441c-1.138-0.224-3.855-2.873-5.84-4.808c-2.011-1.963-4.284-4.182-7.021-6.319
		c-27.47-21.451-65.263-33.264-106.419-33.264c-6.563,0-13.306,0.298-20.045,0.883c-52.687,4.596-89.284,32.142-110.708,54.441
		c-13.675,14.236-24.112,29.473-31.905,46.581c-7.501,16.466-12.816,35.246-16.221,57.333c-29.32,0.517-56.297,5.068-68.242,44.331
		c-4.419,14.52-4.564,34.827-4.096,55.466c-0.603-0.993-1.275-1.945-2.023-2.853c-6.774-8.208-19.494-13.107-34.024-13.107
		c-21.914,0-39.019,10.378-43.581,26.439l-0.34,1.205l-0.115,0.408v0.424V440.7v0.376l0.091,0.364l0.268,1.071
		c6.812,27.211,20.005,44.113,40.337,51.672c10.08,3.75,25.541,5.9,42.419,5.9c13.682,0,26.663-1.439,36.548-4.051
		c12.252-3.235,23.439-10.472,31.771-20.359c-0.062,15.46-0.149,30.866-0.23,44.74c-0.156,27.374-0.317,55.683-0.317,83.512
		c0,7.459-0.155,14.904-0.306,22.104c-0.481,23.216-0.936,45.146,3.952,63.766c5.595,21.309,17.764,35.041,37.199,41.979
		c9.946,3.548,24.911,5.664,40.035,5.664c12.185,0,23.555-1.346,32.901-3.894c14.544-3.964,33.592-17.852,41.042-38.974
		c3.895-11.042,3.638-25.403,3.392-39.293c-0.232-13.144-0.521-29.497,3.758-35.05c3.227-4.188,9.145-6.788,15.447-6.788
		c5.653,0,10.607,2.059,13.596,5.647c4.377,5.258,4.105,22.691,3.908,35.422c-0.215,13.629-0.417,26.48,2.838,36.722
		c4.815,15.138,18.184,33.532,37.194,40.508c9.618,3.525,24.506,5.548,40.849,5.548c13.116-0.002,25.105-1.338,33.762-3.765
		c21.819-6.113,35.394-21.902,41.498-48.266c5.264-22.732,4.477-50.65,3.714-77.653c-0.284-10.065-0.579-20.471-0.579-30.563v-23.65
		c4.173,11.415,11.639,22.091,17.791,27.038l2.019,1.627l0.69,0.555l0.878,0.102l2.573,0.297c0.727,0.08,1.426,0.119,2.092,0.119
		c13.832,0,18.146-13.748,20.218-20.355l0.062-0.192c0.277-0.887,0.54-1.723,0.809-2.491c0.351-0.997,0.82-2.245,1.318-3.569
		l0.106-0.286c3.298-8.76,5.441-14.887,5.212-20.063c-0.299-6.681-3.987-12.065-6.949-16.394c-1.61-2.354-3.43-5.013-3.783-6.598
		c-1.168-5.245-1.164-10.841-1.159-16.254c0.005-6.96,0.011-13.529-2.307-19.717c-3.911-10.425-10.285-18.729-19.81-25.685
		c28.342-5.411,47.567-21.558,55.841-47.056C590.684,387.373,589.969,358.873,589.213,328.7z M509.534,480.905
		c7.641,6.531,10.724,16.334,8.946,28.687c-0.273,1.894-0.356,3.751-0.248,5.626c-2.53,1.7-6.118,4.405-8.698,8.927V480.905z
		 M495.048,439.65c-2.593,0.136-0.703,9.576,0.514,11.302c2.043,2.896,5.807,3.437,8.554,3.83c0.899,0.128,2.13,0.305,2.538,0.5
		c13.396,6.396,23.341,13.386,28.335,26.698c1.355,3.617,1.352,8.617,1.347,14.406c-0.004,5.945-0.01,12.68,1.52,19.546
		c0.984,4.427,3.68,8.365,6.058,11.841c2.172,3.169,4.223,6.167,4.328,8.546c0.11,2.475-2.622,9.729-4.254,14.065
		c-0.583,1.547-1.133,3.008-1.553,4.212c-0.351,1.002-0.676,2.043-1.023,3.144c-1.298,4.139-2.899,9.237-5.417,9.747
		c-6.636-6.036-15.581-22.466-14.522-32.476c0.501-4.748,3.744-5.651,6.028-8.361c1.635-1.94,2.071-4.608,1.779-7.58
		c-0.319-3.251,0.828-9.938,0.828-9.938c1.146-13.505-1.364-25.143-7.708-34.4c-6.181-9.02-11.779-13.175-24.154-16.212l-3.786-0.93
		v3.899v115.029c0,10.284,0.298,20.81,0.585,30.99c1.461,51.729,2.84,100.591-34.208,110.977
		c-7.271,2.037-18.094,3.205-29.692,3.205c-14.431,0-27.761-1.729-35.659-4.626c-14.141-5.188-24.436-19.665-28.017-30.921
		c-2.509-7.892-2.317-20.093-2.133-31.894c0.276-17.586,0.563-35.771-7.395-45.327c-5.859-7.042-15.038-11.081-25.184-11.083
		c-11.042-0.002-21.284,4.734-27.395,12.667c-7.503,9.737-7.189,27.417-6.887,44.514c0.223,12.558,0.453,25.541-2.538,34.02
		c-5.331,15.124-19.841,26.455-30.787,29.439c-8.073,2.2-18.069,3.364-28.908,3.364c-13.308,0-26.716-1.835-34.992-4.787
		c-14.916-5.326-23.833-15.813-28.064-33.007c-3.953-16.065-3.528-36.543-3.08-58.222c0.151-7.278,0.306-14.804,0.306-22.416
		c0-27.733,0.164-56.046,0.321-83.429c0.312-54.262,0.634-110.374-0.321-163.126c-0.023-1.395,0.122-2.984,0.276-4.667
		c0.508-5.532,1.139-12.417-4.351-17.038l-1.284-1.081l-1.601,0.502c-10.122,3.174-9.104,13.593-8.429,20.488
		c0.174,1.782,0.338,3.463,0.311,4.774c-0.194,9.414,0.242,19.668,0.704,30.525c0.887,20.83,1.805,42.367-2.094,56.891
		c-4.35,16.21-17.57,29.437-33.681,33.689c-8.664,2.289-20.275,3.547-32.691,3.547c-14.934,0-28.829-1.852-37.171-4.951
		c-15.448-5.745-25.265-18.727-30.875-40.836v-63.415c3.256-10.419,16.824-15.089,28.957-15.089c9.931,0,18.513,2.922,22.397,7.626
		c4.085,4.949,3.758,17.348,3.471,28.287c-0.339,12.893-0.66,25.071,4.969,30.85c2.101,2.155,4.824,3.249,8.096,3.249
		c0.312,0,0.625-0.011,0.952-0.028c11.57-0.723,11.654-10.136,11.742-20.103c0.015-1.685,0.031-3.427,0.086-5.266
		c0.322-10.451-0.002-22.214-0.315-33.589c-0.631-22.902-1.282-46.583,3.172-61.225c8.707-28.607,23.531-33.699,60.923-33.699
		c1.103,0,2.219,0.004,3.356,0.012l2.726,0.02l0.332-2.706c5.738-46.959,19.34-78.604,45.48-105.814
		c19.635-20.437,53.121-45.677,101.144-49.864c6.298-0.549,12.601-0.828,18.735-0.828c37.809,0,72.306,10.679,97.139,30.069
		c2.075,1.62,3.952,3.451,5.768,5.223c4.071,3.97,7.915,7.72,13.449,8.813c2.476,0.489,5.397,0.728,8.929,0.728
		c5.24,0,11.02-0.512,17.14-1.054c6.183-0.547,12.574-1.113,18.397-1.114c0.306,0,0.608,0.001,0.913,0.005l1.814,0.019
		c13.812,0.136,28.093,0.277,38.993,4.277c37.068,13.598,36.417,56.025,35.594,109.74c-0.123,8.046-0.25,16.366-0.25,24.83
		c0,9.617,0.258,19.939,0.506,29.923c0.69,27.572,1.401,56.083-3.346,70.718c-7.44,22.921-25.65,35.784-54.123,38.232
		c-0.239,0.022-0.513,0.03-0.813,0.03C515.861,437.554,499.974,439.395,495.048,439.65z"/>
	<path fill="#93C01F" d="M553.819,201.275c-6.747-14.798-25.028-24.736-41.039-26.382c-80.965-8.325-127.07,17.4-139.243,77.681
		c-1.532,7.598,2.327,14.21-7.326,13.191c-7.794-0.822-5.221-2.932-5.862-10.26c-0.407-4.649,0.475-11.257,1.465-16.123
		c8.76-43.035,38.094-58.892,67.422-74.75c-35.829-34.012-112.543-39.385-159.76-17.588
		c-50.425,23.279-85.119,77.094-86.478,142.172c-17.259,1.969-29.984-3.072-43.97,1.465c-27.646,8.971-24.917,46.08-24.917,85.01
		c0,36.41,5.416,73.781-30.78,64.49c-21.359-5.482-11.834-42.509-16.123-64.49c-6.482-3.552-23.122-4.919-29.313,0
		c-6.281,30.97-4.655,70.383,7.329,83.545c11.004,12.084,61.181,17.088,80.61,8.795c25.775-11.002,21.985-43.85,21.985-82.081
		c0-39.126-7.063-68.791,35.176-60.093c0,80.763,0,179.846,0,263.824c0,48.455-8.105,102.143,24.917,112.857
		c15.106,4.9,42.531,4.242,55.696,0c9.745-3.141,20.6-14.598,23.451-23.451c5.977-18.553-2.419-54.02,4.396-70.354
		c12.588-30.158,66.521-36.355,80.612,2.932c6.129,17.084-0.724,56.957,5.863,71.818c3.639,8.207,14.671,17.088,20.52,19.055
		c11.897,4,43.479,4.512,57.164,0c28.936-9.541,23.451-41.486,23.451-80.613c0-58.662,0-131.465,0-181.744
		c-52.347,4.537-85.557-15.189-104.065-43.971c-4.576-7.122-14.927-29.785-14.655-43.97c0.214-11.235-2.073-13.921,7.328-13.191
		c9.45,0.733,3.912,5.635,5.86,14.657c7.907,36.573,35.191,68.801,73.287,73.286c12.143,1.428,27.677,0,41.039,0
		c12.33,0,28.587,1.969,39.574-1.465c41.096-12.86,30.779-79.082,30.779-134.845C558.219,261.458,561.388,217.875,553.819,201.275z
		 M275.336,274.559c-11.771,13.379-33.43,5.876-33.711-10.26C241.182,238.537,287.302,239.169,275.336,274.559z M539.163,242.314
		c-15.657-2.333-7.994-20.693-16.123-29.313c-8.437-8.947-20.465-5.819-35.177-10.26c-2.021-1.89-1.451-6.367-1.465-10.26
		c18.215-3.426,40.575,1.34,49.833,14.657C541.859,215.236,546.54,232.378,539.163,242.314z"/>
</g>
</svg>
