<svg xmlns="http://www.w3.org/2000/svg" viewBox="0 0 128 128">
<path fill="#E85C33" d="M94.9,11.9c1.8,0.8,3.7,2.4,4.6,4c0.5,1,3.3,12.9,14.5,61.5c1.5,6.5,2.7,12.7,2.7,13.9c0,2.6-0.9,4.5-3,6.4
	c-1.7,1.5-2.6,1.9-11,3.9l-5,1.2l1.3-2.5c1.8-3.4,2.7-7.5,2.7-12.3c0-9.2-3.4-16.9-10.3-23c-4-3.6-9.9-6.9-19-10.6
	c-12.6-5.1-16.3-8.3-16.3-14c0-6.3,5-9.6,13.8-9c4.3,0.3,8.9,1.5,13.7,3.4c2,0.8,3.9,1.6,4.3,1.7c0.5,0.2,1.3-1.6,3.5-7.6
	c1.6-4.3,3-8.1,3-8.3c0.3-0.7-6.7-3.7-11.3-5c-5.5-1.5-5.6-1.5-4.8-1.7C88.8,11.2,92.3,10.8,94.9,11.9L94.9,11.9z M36.1,26
	c-1.3,1.8-2.5,4.4-3.2,6.4c-1,2.9-1.1,4-1.1,8.6c0,4.6,0.1,5.6,1.1,8.3C36.5,59.4,45,66.7,60.4,72.8c6.8,2.7,11.4,5.3,13.8,7.8
	c2.4,2.5,3.1,4.6,2.8,8.3c-0.2,3.5-1.6,5.6-4.8,7.1c-2.3,1.1-2.6,1.2-8.7,1.2c-5.8,0-6.6-0.1-10.8-1.3c-2.5-0.7-6-1.9-7.7-2.6
	c-1.7-0.8-3.5-1.4-3.9-1.4c-0.5,0-1.6,1.8-4.5,7.8c-2.1,4.3-3.8,8.1-3.8,8.2c0,0.5,6.6,3.3,10.8,4.7c2.2,0.7,4.3,1.4,4.6,1.5
	c0.3,0.1-1.6,0.8-4.4,1.4c-8.7,2.1-12.8,1.2-15.1-3.4c-0.6-1.2-4.2-16.1-9.3-38.3c-9.2-39.8-9-38.3-6.7-41.9
	c1.6-2.6,4.1-3.7,12.4-5.5c5.8-1.3,12.8-2.9,13-3.1C38.1,23,37.3,24.3,36.1,26L36.1,26z"/>
</svg>
