<?xml version="1.0" encoding="utf-8"?>
<!-- Generator: Adobe Illustrator 15.0.0, SVG Export Plug-In . SVG Version: 6.00 Build 0)  -->
<!DOCTYPE svg PUBLIC "-//W3C//DTD SVG 1.1//EN" "http://www.w3.org/Graphics/SVG/1.1/DTD/svg11.dtd">
<svg version="1.1" id="Calque_1" xmlns="http://www.w3.org/2000/svg" xmlns:xlink="http://www.w3.org/1999/xlink" x="0px" y="0px"
	 width="595.279px" height="595.275px" viewBox="0 123.307 595.279 595.275" enable-background="new 0 123.307 595.279 595.275"
	 xml:space="preserve">
<path fill="#205081" d="M297.64,138.839c-155.548,0-282.105,126.553-282.105,282.106c0,155.552,126.558,282.106,282.105,282.106
	c155.557,0,282.105-126.558,282.105-282.106C579.745,265.397,453.193,138.839,297.64,138.839z M312.51,674.649v-48.994
	l122.348-61.976c2.938-1.484,4.788-4.497,4.785-7.789v-28.046c11.683-4.052,19.047-15.602,17.79-27.904
	c-1.312-14.662-14.262-25.483-28.924-24.173c-14.663,1.313-25.485,14.262-24.174,28.926c0.021,0.235,0.046,0.474,0.074,0.709
	c1.063,10.301,8.003,19.05,17.79,22.428v22.695l-109.685,55.557v-45.568l48.346-22.369c3.081-1.427,5.055-4.512,5.061-7.906
	l0.089-75.915l89.487-50.276c2.752-1.543,4.459-4.459,4.459-7.606v-21.152c13.911-4.787,21.308-19.944,16.521-33.854
	c-4.038-11.732-15.64-19.123-27.979-17.823c-14.637,1.504-25.282,14.587-23.779,29.224c1.059,10.306,7.996,19.063,17.787,22.453
	v16.078l-89.487,50.25c-2.751,1.56-4.459,4.459-4.459,7.606l-0.089,75.443l-35.974,16.63V377.25l75.281-36.816
	c2.995-1.457,4.894-4.495,4.892-7.825v-28.045c11.688-4.048,19.056-15.607,17.791-27.912c-1.513-14.638-14.605-25.278-29.243-23.766
	c-0.003,0-0.005,0-0.007,0.001c-14.637,1.504-25.281,14.59-23.776,29.226c0.001,0.008,0.002,0.016,0.002,0.023
	c1.063,10.298,8.003,19.042,17.791,22.415v22.606l-62.726,30.663v-94.722c13.906-4.819,21.274-20,16.455-33.907
	c-4.819-13.907-20-21.274-33.907-16.455c-11.694,4.052-19.06,15.624-17.781,27.935c1.065,10.294,8,19.038,17.781,22.418v154.469
	l-44.333-23.293v-70.163c0.003-2.714-1.262-5.273-3.419-6.92l-30.329-23.23c5.648-13.594-0.793-29.193-14.388-34.841
	c-13.594-5.649-29.193,0.793-34.842,14.388c-5.647,13.594,0.794,29.193,14.388,34.841c7.531,3.129,16.081,2.638,23.205-1.332
	l27.934,21.41v71.126c0,3.246,1.802,6.22,4.673,7.727l57.116,30.007v56.734l-95.284-44.07l1.302-34.52
	c0.128-3.39-1.721-6.546-4.74-8.093l-43.682-22.405c0.655-2.809,0.891-5.761,0.58-8.784c-1.687-14.624-14.91-25.111-29.534-23.424
	c-14.375,1.659-24.802,14.484-23.49,28.895c1.515,14.639,14.61,25.279,29.249,23.765c5.057-0.512,9.857-2.476,13.822-5.654
	l40.147,20.582l-1.315,34.778c-0.134,3.522,1.859,6.776,5.051,8.248l107.893,49.911v40.503c-0.1,0.765-0.1,1.537,0,2.302v119.017
	c-9.08-0.094-18.149-0.668-27.167-1.725v-102.31c0-3.416-1.984-6.511-5.083-7.929l-67.693-31.153
	c1.441-14.64-9.26-27.677-23.899-29.116c-1.784-0.176-3.58-0.171-5.363,0.015c-14.64,1.5-25.29,14.585-23.788,29.225
	c1.502,14.64,14.586,25.289,29.225,23.787c6.289-0.644,12.143-3.505,16.518-8.068l62.632,28.816v94.045
	c-117.671-22.183-206.98-125.684-206.98-249.704c0-140.157,114.029-254.194,254.194-254.194
	c140.152,0,254.175,114.037,254.175,254.194c0,135.167-106.061,245.99-239.319,253.712L312.51,674.649z"/>
</svg>
