<?xml version="1.0" encoding="utf-8"?>
<!-- Generator: Adobe Illustrator 15.0.0, SVG Export Plug-In . SVG Version: 6.00 Build 0)  -->
<!DOCTYPE svg PUBLIC "-//W3C//DTD SVG 1.1//EN" "http://www.w3.org/Graphics/SVG/1.1/DTD/svg11.dtd">
<svg version="1.1" id="Calque_1" xmlns="http://www.w3.org/2000/svg" xmlns:xlink="http://www.w3.org/1999/xlink" x="0px" y="0px"
	 width="595.279px" height="595.275px" viewBox="0 123.307 595.279 595.275" enable-background="new 0 123.307 595.279 595.275"
	 xml:space="preserve">
<g>
	<path fill="#231F20" d="M163.676,624.537c-16.096,0-38.527,16.786-38.527,35.526c0,9.26,5.767,13.697,14.126,13.697
		c15.474,0,39.807-16.222,39.807-35.957c-0.009-9.716-6.813-13.267-15.411-13.267H163.676z M217.171,262.859
		c0-16.501-11.688-29.109-29.109-29.109c-16.334,0-29.528,12.608-29.528,29.109c0,15.47,12.554,29.533,29.101,29.533
		c15.636,0,29.532-12.315,29.532-29.528L217.171,262.859z M297.212,193.949c0-12.572-8.223-28.677-25.685-28.677
		c-15.879,0-23.963,13.96-23.963,26.541c0,12.157,8.598,29.956,25.685,29.956C289.128,221.769,297.212,206.115,297.212,193.949z
		 M227.256,660.063c-14.554,0-34.575,19.034-34.575,33.39c0,7.29,3.02,11.129,10.959,11.129c10.378,0,25.37-8.799,31.832-21.83
		c1.279-2.561,3.582-6.881,3.582-7.706v-7.272c-4.507-6.071-7.539-7.706-11.807-7.706L227.256,660.063z M137.563,570.604
		c0-12.571-9.31-17.547-19.691-17.547c-15.177,0-41.514,14.583-41.514,35.522c0,11.823,8.052,17.122,19.259,17.122
		c14.352,0,41.951-13.014,41.951-35.102L137.563,570.604z M119.156,394.688c15.23,0,36.381-10.508,36.381-32.101
		c0-16.303-13.441-26.541-28.252-26.541c-16.086,0-36.805,11.174-36.805,32.101C90.48,384.244,103.479,394.688,119.156,394.688z
		 M127.29,473.016c0-14.982-12.225-21.827-25.252-21.827c-0.82,0-1.442-0.252-4.705,0c-18.822,1.578-36.381,17.781-36.381,34.247
		c0,15.384,13.987,21.823,26.107,21.823c15.682,0,40.239-12.032,40.239-34.247L127.29,473.016z M487.678,175.118
		c-11.459,0-15.411,17.79-15.411,23.54c0,5.705,1.975,18.398,11.987,18.398c11.747,0,15.409-17.79,15.409-23.54
		c0-4.84-2.596-18.407-11.985-18.407V175.118z M431.604,143.012c-13.314,0-17.541,16.672-17.541,24.4
		c0,5.092,3.137,23.233,15.838,23.116c12.708-0.135,17.547-16.641,17.547-24.828c0-6.367-3.063-22.683-15.839-22.683
		L431.604,143.012z M524.915,222.197c-10.589,0-14.554,17.394-14.554,22.684c0,4.425,1.694,14.982,9.845,14.982
		c10.297,0,14.127-16.965,14.127-22.26c0-3.515-1.555-15.41-9.418-15.41V222.197z M413.635,612.978
		c-12.076,0-20.548,18.449-20.548,25.686c0,3.767,0.964,7.704,6.426,7.704c11.949,0,20.548-18.157,20.548-25.684
		C420.051,617.161,418.762,612.978,413.635,612.978z M293.788,665.624c-13.653,0-29.533,18.24-29.533,30.821
		c0,1.847,0.036,5.465,3.424,7.706c3.551,2.319,9.896,2.535,17.551-2.57c10.273-6.858,17.122-18.982,17.122-26.969
		c0-4.383-2.808-8.985-8.561-8.988H293.788z M357.133,136.163c-14.554,0-20.115,17.276-20.115,26.541
		c0,9.72,7.165,26.541,21.395,26.541c14.442,0,19.962-17.258,19.691-26.112c-0.338-11.333-5.091-26.969-20.976-26.969H357.133z
		 M357.133,647.643c-13.234,0-24.396,18.972-24.396,28.682c0,4.89,2.227,7.706,7.272,7.706c11.955,0,24.396-18.313,24.396-27.82
		c0-4.177-0.855-8.562-7.277-8.562L357.133,647.643z"/>
</g>
</svg>
