<svg xmlns="http://www.w3.org/2000/svg" viewBox="0 0 128 128">
<path fill="#444444" d="M24.335,93.771v20.919h65.93V72.727l-3.426,0.38l-3.552,0.379l-0.38,17.368l-0.384,17.498H30.671V72.856
	h-6.34v20.915H24.335L24.335,93.771z M35.747,96.939v3.802h40.565v-7.605H35.747V96.939L35.747,96.939z M36.353,81.965l-0.411,3.78
	l40.33,4.396l0.826-7.561l-40.33-4.396l-0.415,3.782V81.965z M39.387,64.076l-0.986,3.67l39.18,10.524l1.974-7.349L40.374,60.4
	L39.387,64.076z M47.704,43.222l-2.023,3.217l34.342,21.603l4.052-6.443L49.731,40L47.704,43.222z M67.133,23.795L64,25.955
	l23.016,33.413l6.259-4.312L70.268,21.642l-3.139,2.159L67.133,23.795z M92.487,14.009l-3.74,0.698l7.445,39.88l7.477-1.398
	L96.231,13.31l-3.741,0.695L92.487,14.009z"/>
</svg>
