<?xml version="1.0" encoding="utf-8"?>
<!-- Generator: Adobe Illustrator 15.0.0, SVG Export Plug-In . SVG Version: 6.00 Build 0)  -->
<!DOCTYPE svg PUBLIC "-//W3C//DTD SVG 1.1//EN" "http://www.w3.org/Graphics/SVG/1.1/DTD/svg11.dtd">
<svg version="1.1" id="Calque_1" xmlns="http://www.w3.org/2000/svg" xmlns:xlink="http://www.w3.org/1999/xlink" x="0px" y="0px"
	 width="595.275px" height="595.275px" viewBox="-284.138 -281.638 595.275 595.275"
	 enable-background="new -284.138 -281.638 595.275 595.275" xml:space="preserve">
<path fill="#444444" d="M-255.033,16.298v268.498H282v-537.021h-537.033V16.273V16.298z M49.428-116.383
	c5.822,1.418,11.42,3.16,16.694,5.175c11.52,4.404,27.144,9.628,37.593,20.09c4.229,4.229,3.731,5.486-5.946,19.393
	c-5.697,7.949-11.171,15.662-12.166,16.918c-1.244,1.244-4.379-0.995-14.43-5.709C50.945-70.021,32.41-78.654,11.984-78.654
	c-28.574,0-43.252,10.922-43.252,32.555c0,19.903,13.684,28.835,62.161,41.275c63.891,16.408,86.506,38.04,85.511,82.301
	c-0.622,28.113-21.969,56.874-46.873,67.771c-28.288,12.39-61.489,10.648-90.461,1.691c-15.873-4.926-32.405-11.594-46.848-19.854
	c-5.374-3.035-12.738-7.663-17.329-12.241c-5.013-5.025-2.438-5.995,2.115-11.792c3.496-4.702,9.715-12.166,13.684-16.645
	l6.954-8.459l16.669,11.171c24.12,16.171,41.262,21.894,65.619,22.143c24.12,0.249,36.312-4.702,45.268-17.913
	c4.702-6.718,5.673-10.922,4.479-18.635c-1.741-14.902-13.435-24.357-40.554-32.318c-59.66-17.913-70.097-21.645-79.551-28.362
	c-11.93-8.72-21.371-20.638-25.352-32.343c-3.968-11.917-3.496-37.033,1.244-50.455c17.552-49.883,77.611-58.964,123.961-47.644
	V-116.383z"/>
</svg>
