<svg xmlns="http://www.w3.org/2000/svg" viewBox="0 0 128 128">
<path fill="#444444" d="M1,64v63h126V1H1V64L1,64L1,64z M72.5,32.9c1.4,0.3,2.7,0.7,3.9,1.2c2.7,1,6.4,2.3,8.8,4.7
	c1,1,0.9,1.3-1.4,4.6c-1.3,1.9-2.6,3.7-2.9,4s-1-0.2-3.4-1.3c-4.7-2.2-9.1-4.3-13.9-4.3c-6.7,0-10.1,2.6-10.1,7.6
	c0,4.7,3.2,6.8,14.6,9.7c15,3.8,20.3,8.9,20.1,19.3c-0.1,6.6-5.2,13.3-11,15.9c-6.6,2.9-14.4,2.5-21.2,0.4c-3.7-1.2-7.6-2.7-11-4.7
	c-1.3-0.7-3-1.8-4.1-2.9c-1.2-1.2-0.6-1.4,0.5-2.8c0.8-1.1,2.3-2.9,3.2-3.9l1.6-2l3.9,2.6c5.7,3.8,9.7,5.1,15.4,5.2
	c5.7,0.1,8.5-1.1,10.6-4.2c1.1-1.6,1.3-2.6,1.1-4.4c-0.4-3.5-3.2-5.7-9.5-7.6c-14-4.2-16.4-5.1-18.7-6.7c-2.8-2-5-4.8-5.9-7.6
	c-0.9-2.8-0.8-8.7,0.3-11.8C47.5,32.4,61.6,30.3,72.5,32.9L72.5,32.9L72.5,32.9z"/>
</svg>
