<?xml version="1.0" encoding="utf-8"?>
<!-- Generator: Adobe Illustrator 15.0.0, SVG Export Plug-In . SVG Version: 6.00 Build 0)  -->
<!DOCTYPE svg PUBLIC "-//W3C//DTD SVG 1.1//EN" "http://www.w3.org/Graphics/SVG/1.1/DTD/svg11.dtd">
<svg version="1.1" id="Calque_1" xmlns="http://www.w3.org/2000/svg" xmlns:xlink="http://www.w3.org/1999/xlink" x="0px" y="0px"
	 width="595.279px" height="841.89px" viewBox="0 0 595.279 841.89" enable-background="new 0 0 595.279 841.89"
	 xml:space="preserve">
<path fill="#444444" d="M364.408,178.133c0,0,120.484,71.714,152.021,185.807c28.447,102.913,5.643,152.034,5.643,152.034
	s16.951,16.365,33.762,56.285c25.146,59.68,5.643,90.07,5.643,90.07s-1.85-41.956-61.928-50.643
	c-55.044-8.008-75.086,47.716-180.164,45.047c-60.523-1.568-186.603-16.507-292.793-168.902
	c51.532,29.313,118.845,74.43,202.688,67.547c83.854-6.884,101.344-33.785,101.344-33.785S170.044,391.181,82.889,251.357
	c65.744,57.561,229.027,171.806,225.199,168.902c-49.823-38.245-163.271-197.057-163.271-197.057s244.925,209.465,264.615,208.319
	c8.102-17.373,49.987-107.303-45.047-253.366L364.408,178.133z"/>
</svg>
