<svg xmlns="http://www.w3.org/2000/svg" viewBox="0 0 128 128">
<g>
	<path fill="#8FB443" d="M77.996,114.874c-0.104,1.885-1.337,4.203-1.807,6.321c-0.727-0.126-1.031,0.173-1.625,0.181
		C75.584,119.083,77.079,117.271,77.996,114.874z"/>
	<path fill="#8FB443" d="M52.716,116.501c0.802,0.942,1.749,1.74,2.348,2.89C53.317,119.391,53.488,117.475,52.716,116.501z"/>
	<path fill="#8FB443" d="M81.428,117.583c0.297,0.547-0.668,1.373-0.724,2.168c-0.422,0-0.842,0-1.265,0
		C79.995,118.921,80.871,118.413,81.428,117.583z"/>
	<path fill="#8FB443" d="M41.883,117.534c0.329,1.297-0.526,2.963-0.542,4.515c-0.553-0.132-0.531,0.313-1.084,0.181
		C40.66,120.525,41.471,119.23,41.883,117.534z"/>
	<path fill="#8FB443" d="M44.409,118.979c0.141,0.388,0.079,2.12-1.082,1.806C43.531,120.026,44.18,119.712,44.409,118.979z"/>
	<path fill="#8FB443" d="M69.689,87.61c0.879-1.22,0.99-2.744,1.445-4.152c2.948-9.191,6.732-18.961,14.625-23.474
		c-11.418,12.32-13.416,37.786-11.195,59.948c-4.771,0.18-9.092,1.481-13.723,0.36c-0.646,0.205,0.334,1.191-0.18,1.267
		c-0.668-0.239-1.645-0.165-2.348-0.36c-0.354-2.718-0.11-6.033-0.181-9.029c0.471,0.854,0.63,2.019,0.902,3.068
		c1.18-9.121,0.223-18.734-2.528-25.64c-2.469-6.2-6.862-11.644-13.723-13.543c-0.344-0.097-1.104,0.032-1.264-0.542
		c11.68-0.244,15.957,6.915,19.5,14.808c2.217-31.281,5.444-62.316,22.391-79.63c2.725-2.782,6.627-6.088,12.098-5.417
		c4.103,0.503,6.957,4.059,8.125,6.319c-2.51-2.255-4.422-5.69-9.388-5.056c-4.39,0.561-6.853,5.457-8.849,9.208
		C75.48,34.387,70.674,61.329,69.689,87.61z M61.926,101.514c-0.186,1.928,1.356,1.92,1.986,1.805
		c1.912-0.344,1.488-3.618-0.723-3.067C62.14,100.51,61.97,101.051,61.926,101.514z M66.26,102.235
		c0.381,2.186,3.604,1.42,3.25-0.722c-0.149-0.899-0.871-1.767-2.349-1.084C66.36,100.801,66.117,101.421,66.26,102.235z"/>
	<path fill="#8FB443" d="M24.367,95.686c3.129,1.688,5.688,5.507,7.042,9.569c0.16-12.738-0.186-26.537-0.902-39.002
		c3.134,12.695,4.954,26.705,6.319,41.17c1.474-1.039,4.309-2.887,7.583-2.168c-6.397,0.609-7.246,8.406-6.319,15.168
		c-0.106,0.709,0.992,0.214,0.723,1.084c-0.564,0.861-2.813,1.232-4.333,1.264c-0.839,0.018-1.83-0.245-2.528-0.361
		c-0.645,0.199-1.161,0.525-2.167,0.361c-0.819-1.775-0.328-4.671-0.903-7.043c0.624,1.424,1.12,2.975,1.626,4.516
		C30.716,110.522,29.268,100.896,24.367,95.686z M34.659,113.563c0.987,0.494,1.974-0.06,1.806-1.265
		c-0.362-0.36-0.712-0.731-1.444-0.723C34.57,111.872,34.204,112.931,34.659,113.563z M32.493,113.921
		c0.948-0.144,1.439-0.838,1.083-1.805C32.038,110.766,30.796,113.394,32.493,113.921z"/>
	<path fill="#8FB443" d="M25.811,119.34c-0.261,0.03,1.915,1.506,1.625,2.167C26.333,121.346,26.291,120.124,25.811,119.34z"/>
</g>
</svg>
