<svg xmlns="http://www.w3.org/2000/svg" viewBox="0 0 128 128">
<path fill="#2A3AD8" d="M122.6,35.2l-2.4,4.9l-0.3-0.6c-0.5-0.9-1.7-2.7-2.3-3.5c-1.7-2.2-4.1-3.7-6.5-4.3c-1-0.2-2.8-0.2-3.7,0
	c-1.7,0.5-3.3,1.5-4.9,3c-1.8,1.8-3.3,4.2-4.5,7.4c-1.4,3.5-2.1,6.9-2.3,11.3c-0.3,4.8,0.4,9.5,1.9,13.6c0.4,1,0.9,2.2,0.9,2.1
	c0,0,0-0.3-0.1-0.6c-0.4-1.9-0.5-5.7-0.3-8.4c0.2-2.8,0.7-5.5,1.8-8.8c1.1-3.4,2.4-5.6,4.5-7.8s4-3.1,6.5-3.3
	c1.8-0.1,3.2,0.4,5.2,1.7c1.9,1.3,3.6,3.3,5.1,5.8c0.2,0.4,0.4,0.7,0.4,0.6c0.1-0.1,4.8-9.2,4.9-9.4c0-0.1-1.2-8.2-1.3-8.4
	C125.1,30.4,124,32.5,122.6,35.2L122.6,35.2L122.6,35.2z M1,30.9C1,31,5.5,46,10.9,64.3l9.8,33.2h0.9l6.2-20.6
	C31.2,65.6,34,56.3,34,56.3s2.8,9.3,6.2,20.6l6.2,20.6h0.9l8.5-28.6c8.4-28.2,8.5-28.6,8.9-29.2l0.4-0.7h14l-0.3,0.4
	c-0.1,0.2-2.7,4.7-5.8,10L67.5,59v4h2.2c2.3,0,3.3,0.1,4.4,0.3c4.3,0.9,7.1,3.7,8.1,8.2c0.6,2.5,0.6,5.6,0.2,8.2
	c-0.7,4.1-2.8,7.6-5.3,8.9c-1,0.5-1.5,0.6-2.9,0.6c-1.1,0-1.3,0-1.9-0.2c-1.7-0.4-2.8-1.1-4.1-2.4c-1.3-1.3-2.2-2.7-3.1-4.6
	c-0.2-0.5-0.4-0.8-0.5-0.8c-0.1,0-5.5,2.2-6.3,2.6l-0.4,0.1l0.3,0.8c1.8,5.1,5.2,9.2,9.2,11.2c1.9,1,3.7,1.4,5.9,1.6
	c3.9,0.2,7.4-0.8,10.3-3c0.8-0.6,2.2-2,2.9-2.8c2.7-3.3,4.2-7,4.9-11.7c0.2-1.6,0.3-5,0.1-6.6c-0.7-6.9-3.6-12.3-8.4-15.4
	c-0.9-0.6-2.4-1.3-3.5-1.8c-0.5-0.2-0.9-0.3-0.9-0.4c0,0,2.7-4.8,6-10.5l6.1-10.5v-4H58.4l-6,20.3c-3.3,11.1-6,20.3-6,20.3
	s-2.6-8.6-5.6-19c-3.1-10.5-5.8-19.6-6-20.3l-0.4-1.2h-4.3c-4.1,0-4.3,0-4.3,0.1s0.9,3.1,2,6.6l1.9,6.5l-4,13.6
	c-2.2,7.5-4,13.6-4.1,13.6c0,0-2.7-9.1-6-20.3l-6-20.3H1V30.9L1,30.9z M92.6,77.6c0,0.1,1.2,3.7,1.5,4.5c0.4,1.1,1.6,3.4,2.2,4.6
	c1.2,2.1,2.8,4.2,4.4,5.8c2.6,2.6,5.2,4,8.4,4.6c0.7,0.1,3.4,0.1,4.2,0c2.2-0.4,4.1-1.2,5.8-2.5c3-2.2,5.5-5.1,7.4-8.6l0.5-0.8
	l-0.7-3.2c-0.3-1.8-0.6-3.3-0.7-3.3c0,0-0.3,0.5-0.7,1.1c-0.9,1.5-1.9,3.1-2.6,3.9c-0.3,0.3-1.1,1.2-1.7,1.9c-1.9,1.9-3.4,3-5.1,3.8
	c-2.6,1.2-4.6,1.7-7,1.5c-1.7-0.1-2.7-0.3-4.2-0.9c-2.2-0.9-3.8-2-5.9-4.1c-1.9-1.9-2.7-3-4.9-6.9C92.6,77.5,92.6,77.5,92.6,77.6
	L92.6,77.6z"/>
</svg>
