<?xml version="1.0" encoding="utf-8"?>
<!-- Generator: Adobe Illustrator 15.0.0, SVG Export Plug-In . SVG Version: 6.00 Build 0)  -->
<!DOCTYPE svg PUBLIC "-//W3C//DTD SVG 1.1//EN" "http://www.w3.org/Graphics/SVG/1.1/DTD/svg11.dtd">
<svg version="1.1" id="Calque_1" xmlns="http://www.w3.org/2000/svg" xmlns:xlink="http://www.w3.org/1999/xlink" x="0px" y="0px"
	 width="595.279px" height="595.275px" viewBox="0 123.307 595.279 595.275" enable-background="new 0 123.307 595.279 595.275"
	 xml:space="preserve">
<path fill="#2A3AD8" d="M551.245,295.953l-10.551,21.035l-1.391-2.467c-2.336-4.029-7.375-11.535-10.156-14.999
	c-7.533-9.356-17.769-16.207-28.135-18.792c-4.147-1.011-12.23-1.037-16.01-0.026c-7.401,2.021-14.437,6.352-20.996,12.965
	c-7.821,7.848-14.226,18.346-19.579,31.954c-5.879,14.934-8.871,29.644-9.868,48.829c-1.104,20.852,1.811,41.087,8.346,58.684
	c1.653,4.277,3.858,9.475,4.042,9.291c0.053-0.053-0.131-1.154-0.367-2.467c-1.574-8.164-2.205-24.685-1.47-36.481
	c0.84-12.256,3.201-23.87,7.82-38.107c4.725-14.737,10.341-24.408,19.447-33.791c9.187-9.435,17.4-13.568,28.239-14.186
	c7.742-0.407,13.728,1.536,22.335,7.257c8.137,5.459,15.694,14.055,21.836,24.92c0.944,1.627,1.837,2.848,1.942,2.703
	c0.498-0.538,20.891-39.906,21.022-40.522c0.131-0.538-5.382-35.26-5.774-36.52c-0.053-0.17-4.855,9.16-10.682,20.721
	L551.245,295.953L551.245,295.953z M25.503,277.345c0.079,0.433,19.291,65.285,42.676,144.19l42.49,143.457h3.792l26.601-89.076
	c14.618-49.025,26.69-89.128,26.77-89.128s12.151,40.103,26.771,89.128l26.599,89.076h3.74l36.599-123.51
	c36.126-121.909,36.639-123.55,38.279-126.397l1.692-2.9h60.351l-1.102,1.824c-0.604,1.023-11.812,20.418-24.935,43.16
	l-23.883,41.283v17.178h9.396c9.946,0,14.146,0.289,19.158,1.286c18.582,3.779,30.603,15.984,34.959,35.589
	c2.468,10.865,2.729,24.197,0.813,35.482c-3.02,17.795-11.89,32.912-22.702,38.686c-4.331,2.336-6.431,2.781-12.493,2.73
	c-4.619,0-5.669-0.133-8.346-0.842c-7.243-1.941-12.021-4.725-17.741-10.576c-5.63-5.668-9.527-11.549-13.346-19.973
	c-0.972-2.152-1.693-3.465-1.956-3.359c-0.38,0.104-23.568,9.658-27.229,11.232l-1.535,0.629l1.3,3.57
	c7.873,22.072,22.269,39.631,39.669,48.291c8.215,4.146,16.036,6.193,25.615,6.719c16.901,0.973,32.177-3.385,44.563-12.809
	c3.517-2.623,9.686-8.66,12.598-12.281c11.549-14.252,18.268-30.445,21.05-50.602c0.918-6.875,1.153-21.416,0.473-28.66
	c-2.835-29.762-15.616-53.238-36.219-66.702c-3.989-2.611-10.394-5.813-15.224-7.584c-2.021-0.774-3.831-1.496-3.937-1.614
	c-0.104-0.131,11.548-20.576,26.035-45.496l26.271-45.286v-17.44h-140.12l-25.772,87.593c-14.159,48.16-25.8,87.58-25.904,87.58
	c-0.118,0-11.049-37.004-24.303-82.239c-13.268-45.208-24.881-84.601-25.747-87.58l-1.614-5.354h-18.699
	c-17.688,0-18.7,0.026-18.542,0.538c0.105,0.328,3.95,13.228,8.518,28.646l8.358,28.069l-17.387,58.959
	c-9.566,32.439-17.44,58.933-17.545,58.933c-0.118,0-11.745-39.42-25.917-87.581l-25.747-87.593H25.32l0.158,0.695L25.503,277.345z
	 M421.437,479.119c0,0.551,5.224,15.799,6.614,19.314c1.837,4.805,6.719,14.75,9.711,19.947
	c5.354,9.211,12.099,18.162,18.896,24.959c11.232,11.338,22.439,17.506,36.165,19.92c3.202,0.525,14.75,0.525,17.952,0
	c9.527-1.707,17.899-5.195,25.274-10.604c12.78-9.316,23.776-22.1,31.938-37.084l1.97-3.57l-2.678-13.936
	c-1.496-7.717-2.703-14.066-2.835-14.146c-0.052-0.078-1.442,2.127-3.123,4.908c-3.856,6.535-8.346,13.281-11.075,16.719
	c-1.207,1.496-4.565,5.064-7.479,8.004c-8.215,8.242-14.566,13.045-22.178,16.613c-11.313,5.381-19.685,7.166-30.183,6.43
	c-7.506-0.523-11.758-1.469-18.136-4.041c-9.316-3.701-16.351-8.557-25.693-17.688c-8.294-8.189-11.862-13.123-21.39-29.633
	c-3.647-6.271-3.806-6.561-3.806-6.168L421.437,479.119z"/>
</svg>
