<svg xmlns="http://www.w3.org/2000/svg" viewBox="0 0 128 128">
<g>
	<polygon fill="#8ED6FB" points="14.9,95.4 61.9,122 61.9,101.3 32.6,85.2 	"/>
	<polygon fill="#8ED6FB" points="31,43.1 61.9,26.1 61.9,6 13.8,33.3 30.8,43.2 	"/>
	<polygon fill="#8ED6FB" points="97.2,43.2 114.3,33.3 66,6 66,26.1 96.9,43.1 	"/>
	<polygon fill="#8ED6FB" points="28.9,46.9 11.8,36.9 11.8,92.5 28.9,82.6 	"/>
	<polygon fill="#8ED6FB" points="66,101.3 66,122 113,95.4 95.3,85.2 	"/>
	<polygon fill="#8ED6FB" points="99,46.9 99,82.6 116.3,92.5 116.3,36.9 	"/>
	<polygon fill="#8ED6FB" points="63.9,29.7 34.9,45.6 63.9,62.4 93,45.6 	"/>
	<polygon fill="#8ED6FB" points="66,96.6 94.9,80.7 94.9,49.2 66,65.9 	"/>
	<polygon fill="#8ED6FB" points="33,80.7 61.9,96.6 61.9,65.9 33,49.2 	"/>
</g>
</svg>
