<svg xmlns="http://www.w3.org/2000/svg" viewBox="0 0 128 128">
<g>
	<path d="M37.78,56.413c3.061-3.013,6.048-6.105,9.154-9.071c-0.512-0.129-1.042-0.087-1.562-0.084
		c-2.688,0.004-5.375-0.008-8.063,0.004c-0.365-0.053-0.62,0.219-0.852,0.447c-3.961,3.99-7.987,7.92-11.929,11.928
		c-4.068-4.066-8.147-8.118-12.214-12.187c-0.058-0.042-0.177-0.126-0.234-0.168c-3.338-0.051-6.678-0.02-10.018-0.015
		c5.829,5.784,11.62,11.606,17.465,17.372c-5.43,5.327-10.776,10.74-16.185,16.091c3.343,0,6.688,0.065,10.027-0.029
		c1.508-1.383,2.909-2.884,4.375-4.314C24.424,69.729,31.101,63.068,37.78,56.413z"/>
	<path d="M15.888,80.7c3.649,0.025,7.297-0.008,10.944,0.017c0.614,0.102,0.956-0.504,1.349-0.856
		c7.085-7.092,14.217-14.139,21.284-21.25c-0.031,7.367,0.002,14.731-0.018,22.095c2.7,0.09,5.403,0.019,8.104,0.036
		c-0.005-11.157-0.009-22.319,0.002-33.477c-2.713-0.007-5.426-0.016-8.138,0.002C38.231,58.404,27.068,69.56,15.888,80.7z"/>
	<path d="M76.845,58.466c-3.742-3.729-7.521-7.426-11.22-11.2c-2.08-0.002-4.158-0.029-6.234,0.009
		c0.018,11.151,0.003,22.306,0.006,33.455c2.088,0.029,4.173,0.009,6.26,0.009c-0.049-7.054-0.004-14.104-0.023-21.155
		c3.738,3.743,7.414,7.545,11.201,11.241c3.763-3.705,7.439-7.488,11.174-11.219c0.033,7.036,0.027,14.078,0.005,21.117
		c2.084,0.044,4.172,0.012,6.258,0.018c-0.022-11.159-0.022-22.319,0-33.479c-2.063-0.004-4.129-0.006-6.188,0.002
		C84.332,50.996,80.586,54.728,76.845,58.466z"/>
	<path d="M119.953,74.744c-0.209-0.252-0.563-0.173-0.846-0.198c-5.578,0.012-11.156-0.005-16.732,0.009
		c-0.006-9.093-0.016-18.184,0.004-27.276c-2.09-0.042-4.176-0.009-6.264-0.014c0.025,11.158,0.023,22.316,0,33.477
		c9.941,0.005,19.881,0.013,29.822-0.008C123.965,78.714,121.938,76.751,119.953,74.744z"/>
</g>
</svg>
