<?xml version="1.0" encoding="utf-8"?>
<!-- Generator: Adobe Illustrator 15.0.0, SVG Export Plug-In . SVG Version: 6.00 Build 0)  -->
<!DOCTYPE svg PUBLIC "-//W3C//DTD SVG 1.1//EN" "http://www.w3.org/Graphics/SVG/1.1/DTD/svg11.dtd">
<svg version="1.1" id="Calque_1" xmlns="http://www.w3.org/2000/svg" xmlns:xlink="http://www.w3.org/1999/xlink" x="0px" y="0px"
	 width="595.279px" height="595.275px" viewBox="0 123.307 595.279 595.275" enable-background="new 0 123.307 595.279 595.275"
	 xml:space="preserve">
<path fill="#68B604" d="M249.311,499.345c-38.354,0.135-76.707,0.66-115.062,0.66h-5.52
	c52.998-74.41,105.257-144.848,157.884-216.984c-1.786-0.116-2.642-0.512-3.507-0.512c-83.019-0.009-166.032-0.14-249.05-0.2
	c-2.916,0-3.916,0.679-3.893,3.753c0.144,17.156,0.074,34.28,0.074,51.436c0,4.892,0.005,4.883,4.957,4.883
	c42.015,0,84.028-0.009,126.042,0.005c1.65,0,3.311,0.219,5.846,0.405C113.88,415.378,61.249,487.183,8.282,559.451l2.716,0.148
	c79.74,0.004,159.476-0.014,239.215,0.078c3.26,0.006,3.692-1.307,3.679-4.027c-0.084-17.406-0.14-34.531,0.042-51.938
	C253.966,500.093,252.971,499.332,249.311,499.345L249.311,499.345z M582.458,285.993c-75.21,0.005-150.42-0.098-225.635,0.144
	c-8.338,0.023-16.896,1.107-24.974,3.181c-29.024,7.455-52.254,38.958-51.115,69.085c0.121,3.307,2.052,2.083,4.042,2.083h115.466
	c19.435,0,38.865,0.842,58.3,0.726c21.184-0.13,42.409,0.726,63.532-0.53c21.872-1.297,39.34-11.431,51.398-30.122
	c8.102-12.566,11.692-26.522,13.469-41.177C587.425,285.375,584.858,285.993,582.458,285.993z M467.713,384.279
	c-38.089-0.014-76.177-0.037-114.266,0.014c-12.273,0.014-24.09,2.404-34.898,8.325c-25.132,13.775-34.791,36.838-37.758,63.821
	c-0.387,3.563,1.767,3.465,4.208,3.459c20.054-0.031,40.103-0.018,60.161-0.018c6.809,0.004,13.621,0.098,20.43-0.02
	c14.989-0.25,30.062,0.322,44.925-1.148c19.333-1.916,35.048-11.334,46.223-27.518c8.785-12.724,13.181-27.029,14.71-42.334
	C471.894,384.373,472.071,384.28,467.713,384.279L467.713,384.279z M391.402,482.134c-11.595,0.074-23.197-0.113-34.792,0.098
	c-5.381,0.098-10.803,0.553-16.123,1.391c-41.656,6.492-57.203,41.352-59.691,71.094c-0.228,2.66,0.73,3.543,3.391,3.488
	c6.93-0.145,13.863-0.053,20.802-0.053l0.019,0.383c9.423-0.414,18.942-0.168,28.267-1.367
	c35.024-4.512,61.761-36.107,61.495-71.908C394.736,482.589,393.698,482.119,391.402,482.134L391.402,482.134z"/>
</svg>
